# 3ds Max Wavefront OBJ Exporter v0.97b - (c)2007 guruware
# File Created: 15.03.2017 00:51:11

mtllib sherman_track_l.mtl

#
# object track_l
#

v  -0.868 0.319 -2.027
v  -1.590 0.319 -2.027
v  -1.590 0.533 -2.249
v  -0.868 0.533 -2.249
v  -1.590 0.361 -2.002
v  -1.590 0.567 -2.216
v  -0.868 0.361 -2.002
v  -0.868 0.567 -2.216
v  -1.590 0.784 -2.353
v  -0.868 0.784 -2.353
v  -1.590 0.784 -2.306
v  -0.868 0.784 -2.306
v  -1.590 1.035 -2.249
v  -0.868 1.035 -2.249
v  -1.590 1.001 -2.216
v  -0.868 1.001 -2.216
v  -1.590 1.138 -2.001
v  -0.868 1.138 -2.001
v  -1.590 1.091 -1.999
v  -0.868 1.091 -1.999
v  -0.868 1.131 -1.714
v  -1.590 1.131 -1.714
v  -1.590 1.131 -1.448
v  -0.868 1.131 -1.448
v  -1.590 1.082 -1.732
v  -1.590 1.086 -1.449
v  -0.868 1.082 -1.732
v  -0.868 1.086 -1.449
v  -1.590 1.133 -1.208
v  -0.868 1.133 -1.208
v  -1.590 1.085 -1.208
v  -0.868 1.085 -1.208
v  -1.590 1.139 -0.939
v  -0.868 1.139 -0.939
v  -1.590 1.097 -0.957
v  -0.868 1.097 -0.957
v  -1.590 1.135 -0.651
v  -0.868 1.135 -0.651
v  -1.590 1.097 -0.639
v  -0.868 1.097 -0.639
v  -1.590 1.143 -0.379
v  -0.868 1.143 -0.379
v  -1.590 1.098 -0.366
v  -0.868 1.098 -0.366
v  -1.590 1.140 -0.108
v  -0.868 1.140 -0.108
v  -1.590 1.094 -0.105
v  -0.868 1.094 -0.105
v  -1.590 1.134 0.166
v  -0.868 1.134 0.166
v  -1.590 1.090 0.168
v  -0.868 1.090 0.168
v  -0.868 1.134 0.422
v  -1.590 1.134 0.422
v  -1.590 1.136 0.683
v  -0.868 1.136 0.683
v  -1.590 1.086 0.405
v  -1.590 1.092 0.682
v  -0.868 1.086 0.405
v  -0.868 1.092 0.682
v  -1.590 1.136 0.923
v  -0.868 1.136 0.923
v  -1.590 1.089 0.923
v  -0.868 1.089 0.923
v  -1.590 1.133 1.193
v  -0.868 1.133 1.193
v  -1.590 1.092 1.196
v  -0.868 1.092 1.196
v  -1.590 1.132 1.480
v  -0.868 1.132 1.480
v  -1.590 1.089 1.481
v  -0.868 1.089 1.481
v  -1.590 1.133 1.753
v  -0.868 1.133 1.753
v  -1.590 1.087 1.765
v  -0.868 1.087 1.765
v  -1.590 1.138 2.062
v  -0.868 1.138 2.062
v  -1.590 1.097 2.038
v  -0.868 1.097 2.038
v  -1.590 1.135 2.304
v  -0.868 1.135 2.304
v  -1.590 1.094 2.300
v  -0.868 1.094 2.300
v  -1.590 1.134 2.534
v  -0.868 1.134 2.534
v  -1.590 1.090 2.538
v  -0.868 1.090 2.538
v  -1.590 1.135 2.770
v  -0.868 1.135 2.770
v  -1.590 1.087 2.770
v  -0.868 1.087 2.770
v  -1.590 1.031 3.021
v  -0.868 1.031 3.021
v  -1.590 0.997 2.987
v  -0.868 0.997 2.987
v  -1.590 0.780 3.125
v  -0.868 0.780 3.125
v  -1.590 0.780 3.077
v  -0.868 0.780 3.077
v  -1.590 0.530 3.021
v  -0.868 0.530 3.021
v  -1.590 0.563 2.987
v  -0.868 0.563 2.987
v  -1.590 0.390 2.822
v  -0.868 0.390 2.822
v  -1.590 0.426 2.805
v  -0.868 0.426 2.805
v  -1.590 0.256 2.613
v  -0.868 0.256 2.613
v  -1.590 0.288 2.588
v  -0.868 0.288 2.588
v  -0.868 0.033 1.940
v  -1.590 0.033 1.940
v  -1.590 0.034 1.722
v  -0.868 0.034 1.722
v  -1.590 0.078 1.937
v  -1.590 0.078 1.718
v  -0.868 0.078 1.937
v  -0.868 0.078 1.718
v  -1.590 0.029 1.470
v  -0.868 0.029 1.470
v  -1.590 0.074 1.467
v  -0.868 0.074 1.467
v  -1.590 0.041 1.212
v  -0.868 0.041 1.212
v  -1.590 0.084 1.211
v  -0.868 0.084 1.211
v  -1.590 0.034 0.967
v  -0.868 0.034 0.967
v  -1.590 0.077 0.970
v  -0.868 0.077 0.970
v  -1.590 0.140 2.410
v  -0.868 0.140 2.410
v  -1.590 0.176 2.385
v  -0.868 0.176 2.385
v  -1.590 0.040 2.172
v  -0.868 0.040 2.172
v  -1.590 0.086 2.168
v  -0.868 0.086 2.168
v  -0.868 0.034 0.137
v  -1.590 0.034 0.137
v  -1.590 0.031 -0.168
v  -0.868 0.031 -0.169
v  -1.590 0.081 0.137
v  -1.590 0.078 -0.169
v  -0.868 0.081 0.137
v  -0.868 0.078 -0.169
v  -1.590 0.033 0.696
v  -0.868 0.033 0.696
v  -1.590 0.080 0.696
v  -0.868 0.080 0.696
v  -1.590 0.035 0.428
v  -0.868 0.035 0.428
v  -1.590 0.083 0.423
v  -0.868 0.083 0.423
v  -0.868 0.034 -0.992
v  -1.590 0.034 -0.992
v  -1.590 0.027 -1.297
v  -0.868 0.027 -1.297
v  -1.590 0.081 -0.992
v  -1.590 0.074 -1.298
v  -0.868 0.081 -0.992
v  -0.868 0.074 -1.298
v  -1.590 0.029 -1.581
v  -0.868 0.029 -1.581
v  -1.590 0.076 -1.573
v  -0.868 0.076 -1.573
v  -1.590 0.137 -1.841
v  -0.868 0.137 -1.841
v  -1.590 0.171 -1.807
v  -0.868 0.171 -1.807
v  -1.590 0.033 -0.427
v  -0.868 0.033 -0.427
v  -1.590 0.080 -0.427
v  -0.868 0.080 -0.427
v  -1.590 0.035 -0.677
v  -0.868 0.035 -0.677
v  -1.590 0.083 -0.681
v  -0.868 0.083 -0.681
# 180 vertices

vn 0.000 -0.718 -0.696
vn 0.000 -0.564 -0.826
vn -1.000 0.000 -0.000
vn -0.000 0.718 0.696
vn -0.000 0.563 0.826
vn 1.000 0.000 0.000
vn 1.000 -0.000 0.000
vn 0.000 0.000 -1.000
vn -0.000 -0.000 1.000
vn 1.000 0.000 -0.000
vn -0.000 0.707 -0.707
vn 0.000 0.707 -0.707
vn -1.000 -0.000 -0.000
vn -0.000 -0.708 0.706
vn 0.000 -0.708 0.706
vn 0.000 0.983 -0.183
vn -0.000 0.983 -0.183
vn 0.000 -0.984 0.179
vn -0.000 1.000 0.012
vn -0.000 1.000 -0.004
vn 0.000 1.000 -0.004
vn -1.000 -0.000 0.000
vn -1.000 0.000 0.000
vn -0.000 -1.000 -0.008
vn 0.000 -1.000 -0.008
vn 0.000 -1.000 0.005
vn -0.000 -1.000 0.005
vn 0.000 1.000 -0.015
vn -0.000 -1.000 0.022
vn 0.000 -1.000 0.022
vn 0.000 -1.000 0.024
vn 0.000 1.000 -0.008
vn -0.000 1.000 -0.008
vn 0.000 -1.000 0.000
vn 0.000 1.000 -0.010
vn -0.000 1.000 -0.010
vn -0.000 -1.000 -0.006
vn -0.000 1.000 0.017
vn -0.000 -1.000 -0.015
vn 0.000 1.000 0.011
vn -0.000 -1.000 -0.017
vn -0.000 -1.000 0.002
vn 0.000 1.000 0.006
vn 0.000 -1.000 -0.001
vn 0.000 1.000 0.007
vn 0.000 1.000 -0.001
vn -0.000 1.000 -0.001
vn 0.000 -1.000 -0.007
vn -0.000 -1.000 -0.007
vn 1.000 -0.000 -0.000
vn -0.000 1.000 -0.009
vn -0.000 -1.000 0.015
vn -0.000 1.000 -0.002
vn -0.000 -1.000 0.011
vn 0.000 1.000 0.009
vn -0.000 -1.000 -0.014
vn 0.000 1.000 0.001
vn 0.000 -1.000 -0.014
vn 0.000 0.981 0.193
vn 0.000 -0.980 -0.200
vn 0.000 0.707 0.707
vn 0.000 -0.707 -0.707
vn 0.000 0.000 1.000
vn 0.000 -0.000 -1.000
vn 0.000 -0.626 0.780
vn 0.000 0.612 -0.790
vn -0.000 0.612 -0.790
vn 0.000 -0.830 0.557
vn -0.000 -0.830 0.557
vn -0.000 0.822 -0.570
vn -0.000 -0.855 0.519
vn -0.000 0.860 -0.510
vn -0.000 -1.000 0.013
vn -0.000 -1.000 0.008
vn 0.000 -1.000 0.008
vn -0.000 1.000 -0.018
vn 0.000 1.000 -0.018
vn 0.000 -1.000 -0.013
vn 0.000 -1.000 -0.009
vn -0.000 1.000 0.006
vn 0.000 -1.000 0.016
vn -0.000 -0.897 0.442
vn -0.000 0.902 -0.433
vn 0.000 0.902 -0.433
vn -0.000 -0.977 0.212
vn 0.000 0.977 -0.211
vn -0.000 -1.000 0.007
vn -0.000 -1.000 0.001
vn 0.000 -1.000 0.001
vn 0.000 1.000 -0.007
vn 0.000 -1.000 -0.002
vn -0.000 1.000 0.010
vn -0.000 -1.000 -0.002
vn -0.000 1.000 0.002
vn 0.000 1.000 0.002
vn 0.000 1.000 -0.014
vn -0.000 -0.980 -0.200
vn 0.000 0.981 0.195
vn -0.000 -0.834 -0.552
vn 0.000 0.837 0.547
vn -0.000 0.837 0.547
vn -0.000 1.000 0.009
vn 0.000 -1.000 -0.003
vn -0.000 -1.000 -0.003
# 104 vertex normals

vt 0.722 0.331 0.500
vt 0.103 0.331 0.500
vt 0.103 0.664 0.500
vt 0.722 0.664 0.500
vt 0.077 0.329 0.500
vt 0.021 0.327 0.433
vt 0.021 0.661 0.433
vt 0.077 0.662 0.500
vt 0.828 0.329 0.433
vt 0.984 0.329 0.433
vt 0.984 0.662 0.433
vt 0.828 0.662 0.433
vt 0.805 0.328 0.433
vt 0.746 0.329 0.500
vt 0.746 0.662 0.500
vt 0.805 0.661 0.433
vt 0.103 0.997 0.500
vt 0.722 0.997 0.500
vt 0.021 0.995 0.433
vt 0.077 0.996 0.500
vt 0.984 0.996 0.433
vt 0.828 0.996 0.433
vt 0.746 0.996 0.500
vt 0.805 0.995 0.433
vt 0.103 1.330 0.500
vt 0.722 1.330 0.500
vt 0.021 1.328 0.433
vt 0.077 1.329 0.500
vt 0.984 1.330 0.433
vt 0.828 1.330 0.433
vt 0.746 1.329 0.500
vt 0.805 1.329 0.433
vt 0.103 1.663 0.500
vt 0.722 1.663 0.500
vt 0.021 1.662 0.433
vt 0.077 1.662 0.500
vt 0.984 1.664 0.433
vt 0.828 1.664 0.433
vt 0.746 1.663 0.500
vt 0.805 1.662 0.433
vt 0.722 -0.669 0.500
vt 0.103 -0.669 0.500
vt 0.102 -0.338 0.500
vt 0.721 -0.338 0.500
vt 0.078 -0.669 0.500
vt 0.023 -0.669 0.433
vt 0.021 -0.340 0.433
vt 0.077 -0.342 0.500
vt 0.828 -0.673 0.433
vt 0.984 -0.673 0.433
vt 0.984 -0.339 0.433
vt 0.828 -0.339 0.433
vt 0.802 -0.670 0.433
vt 0.746 -0.670 0.500
vt 0.746 -0.341 0.500
vt 0.797 -0.322 0.438
vt 0.718 -0.340 0.500
vt 0.102 -0.003 0.500
vt 0.721 -0.003 0.500
vt 0.021 -0.007 0.433
vt 0.077 -0.005 0.500
vt 0.984 -0.005 0.433
vt 0.828 -0.005 0.433
vt 0.805 -0.340 0.433
vt 0.746 -0.004 0.500
vt 0.805 -0.006 0.433
vt 0.103 1.996 0.500
vt 0.722 1.996 0.500
vt 0.021 1.996 0.433
vt 0.077 1.996 0.500
vt 0.984 1.998 0.433
vt 0.828 1.998 0.433
vt 0.746 1.996 0.500
vt 0.805 1.996 0.433
vt 0.722 -0.672 0.500
vt 0.106 -0.670 0.500
vt 0.798 -0.322 0.438
vt 0.747 -0.677 0.495
vt 0.744 -0.673 0.499
vt 0.802 -0.351 0.433
# 80 texture coords

g track_l
usemtl Material__140
s 2
f 1/1/1 2/2/1 3/3/2 4/4/2 
s 4
f 2/5/3 5/6/3 6/7/3 3/8/3 
s 2
f 5/9/4 7/10/4 8/11/5 6/12/5 
s 4
f 7/13/6 1/14/6 4/15/7 8/16/7 
s 2
f 4/4/2 3/3/2 9/17/8 10/18/8 
s 4
f 3/8/3 6/7/3 11/19/3 9/20/3 
s 2
f 6/12/5 8/11/5 12/21/9 11/22/9 
s 4
f 8/16/7 4/15/7 10/23/10 12/24/7 
s 2
f 10/18/8 9/17/8 13/25/11 14/26/12 
s 4
f 9/20/3 11/19/3 15/27/13 13/28/13 
s 2
f 11/22/9 12/21/9 16/29/14 15/30/15 
s 4
f 12/24/7 10/23/10 14/31/7 16/32/7 
s 2
f 14/26/12 13/25/11 17/33/16 18/34/17 
s 4
f 13/28/13 15/27/13 19/35/13 17/36/13 
s 2
f 15/30/15 16/29/14 20/37/18 19/38/18 
s 4
f 16/32/7 14/31/7 18/39/7 20/40/6 
s 2
f 21/41/19 22/42/19 23/43/20 24/44/21 
s 4
f 22/45/3 25/46/3 26/47/22 23/48/23 
s 2
f 25/49/24 27/50/25 28/51/26 26/52/27 
s 4
f 27/53/7 21/54/7 24/55/10 28/56/7 
s 2
f 24/57/21 23/43/20 29/58/28 30/59/28 
s 4
f 23/48/23 26/47/22 31/60/23 29/61/23 
s 2
f 26/52/27 28/51/26 32/62/29 31/63/30 
s 4
f 28/64/7 24/55/10 30/65/7 32/66/7 
s 2
f 30/59/28 29/58/28 33/2/21 34/1/21 
s 4
f 29/61/23 31/60/23 35/6/23 33/5/3 
s 2
f 31/63/30 32/62/29 36/10/31 35/9/31 
s 4
f 32/66/7 30/65/7 34/14/10 36/13/10 
s 2
f 34/1/21 33/2/21 37/3/32 38/4/33 
s 4
f 33/5/3 35/6/23 39/7/3 37/8/3 
s 2
f 35/9/31 36/10/31 40/11/34 39/12/34 
s 4
f 36/13/10 34/14/10 38/15/7 40/16/7 
s 2
f 38/4/33 37/3/32 41/17/35 42/18/36 
s 4
f 37/8/3 39/7/3 43/19/13 41/20/13 
s 2
f 39/12/34 40/11/34 44/21/37 43/22/37 
s 4
f 40/16/7 38/15/7 42/23/7 44/24/6 
s 2
f 42/18/36 41/17/35 45/25/38 46/26/38 
s 4
f 41/20/13 43/19/13 47/27/13 45/28/13 
s 2
f 43/22/37 44/21/37 48/29/39 47/30/39 
s 4
f 44/24/6 42/23/7 46/31/6 48/32/6 
s 2
f 46/26/38 45/25/38 49/33/40 50/34/40 
s 4
f 45/28/13 47/27/13 51/35/13 49/36/3 
s 2
f 47/30/39 48/29/39 52/37/41 51/38/41 
s 4
f 48/32/6 46/31/6 50/39/6 52/40/6 
s 2
f 18/34/17 17/33/16 22/67/19 21/68/19 
s 4
f 17/36/13 19/35/13 25/69/3 22/70/3 
s 2
f 19/38/18 20/37/18 27/71/25 25/72/24 
s 4
f 20/40/6 18/39/7 21/73/7 27/74/7 
s 2
f 53/75/20 54/76/20 55/43/21 56/57/21 
s 4
f 54/45/3 57/46/3 58/47/3 55/48/3 
s 2
f 57/49/42 59/50/42 60/51/27 58/52/27 
s 4
f 59/53/7 53/54/7 56/55/7 60/77/7 
s 2
f 56/57/21 55/43/21 61/58/43 62/59/43 
s 4
f 55/48/3 58/47/3 63/60/3 61/61/3 
s 2
f 58/52/27 60/51/27 64/62/44 63/63/44 
s 4
f 60/64/7 56/55/7 62/65/10 64/66/10 
s 2
f 62/59/43 61/58/43 65/2/45 66/1/45 
s 4
f 61/61/3 63/60/3 67/6/23 65/5/23 
s 2
f 63/63/44 64/62/44 68/10/34 67/9/34 
s 4
f 64/66/10 62/65/10 66/14/10 68/13/10 
s 2
f 66/1/45 65/2/45 69/3/46 70/4/47 
s 4
f 65/5/23 67/6/23 71/7/23 69/8/23 
s 2
f 67/9/34 68/10/34 72/11/48 71/12/49 
s 4
f 68/13/10 66/14/10 70/15/50 72/16/50 
s 2
f 70/4/47 69/3/46 73/17/51 74/18/51 
s 4
f 69/8/23 71/7/23 75/19/13 73/20/13 
s 2
f 71/12/49 72/11/48 76/21/52 75/22/52 
s 4
f 72/16/50 70/15/50 74/23/7 76/24/7 
s 2
f 74/18/51 73/17/51 77/25/53 78/26/53 
s 4
f 73/20/13 75/19/13 79/27/3 77/28/3 
s 2
f 75/22/52 76/21/52 80/29/54 79/30/54 
s 4
f 76/24/7 74/23/7 78/31/6 80/32/10 
s 2
f 78/26/53 77/25/53 81/33/55 82/34/55 
s 4
f 77/28/3 79/27/3 83/35/3 81/36/3 
s 2
f 79/30/54 80/29/54 84/37/56 83/38/56 
s 4
f 80/32/10 78/31/6 82/39/10 84/40/6 
s 2
f 50/34/40 49/33/40 54/67/20 53/68/20 
s 4
f 49/36/3 51/35/13 57/69/3 54/70/3 
s 2
f 51/38/41 52/37/41 59/71/42 57/72/42 
s 4
f 52/40/6 50/39/6 53/73/7 59/74/7 
s 2
f 82/34/55 81/33/55 85/67/57 86/68/57 
s 4
f 81/36/3 83/35/3 87/69/3 85/70/3 
s 2
f 83/38/56 84/37/56 88/71/56 87/72/58 
s 4
f 84/40/6 82/39/10 86/73/10 88/74/10 
s 2
f 86/75/57 85/76/57 89/43/59 90/57/59 
s 4
f 85/45/3 87/46/3 91/47/3 89/48/3 
s 2
f 87/49/58 88/50/56 92/51/60 91/52/60 
s 4
f 88/53/10 86/78/10 90/55/6 92/64/6 
s 2
f 90/57/59 89/43/59 93/58/61 94/59/61 
s 4
f 89/48/3 91/47/3 95/60/3 93/61/3 
s 2
f 91/52/60 92/51/60 96/62/62 95/63/62 
s 4
f 92/64/6 90/55/6 94/65/6 96/66/6 
s 2
f 94/59/61 93/58/61 97/2/63 98/1/63 
s 4
f 93/61/3 95/60/3 99/6/3 97/5/3 
s 2
f 95/63/62 96/62/62 100/10/64 99/9/64 
s 4
f 96/66/6 94/65/6 98/14/7 100/13/7 
s 2
f 98/1/63 97/2/63 101/3/65 102/4/65 
s 4
f 97/5/3 99/6/3 103/7/3 101/8/3 
s 2
f 99/9/64 100/10/64 104/11/66 103/12/67 
s 4
f 100/13/7 98/14/7 102/15/7 104/16/7 
s 2
f 102/4/65 101/3/65 105/17/68 106/18/69 
s 4
f 101/8/3 103/7/3 107/19/3 105/20/3 
s 2
f 103/12/67 104/11/66 108/21/70 107/22/70 
s 4
f 104/16/7 102/15/7 106/23/50 108/24/50 
s 2
f 106/18/69 105/17/68 109/25/71 110/26/71 
s 4
f 105/20/3 107/19/3 111/27/3 109/28/3 
s 2
f 107/22/70 108/21/70 112/29/72 111/30/72 
s 4
f 108/24/50 106/23/50 110/31/50 112/32/50 
s 2
f 113/34/73 114/33/73 115/67/74 116/68/75 
s 4
f 114/36/3 117/35/3 118/69/23 115/70/13 
s 2
f 117/38/76 119/37/77 120/71/36 118/72/36 
s 4
f 119/40/6 113/39/6 116/73/6 120/74/6 
s 2
f 116/41/75 115/42/74 121/43/78 122/44/78 
s 4
f 115/45/13 118/46/23 123/47/13 121/48/13 
s 2
f 118/49/36 120/50/36 124/51/19 123/52/19 
s 4
f 120/53/6 116/79/6 122/55/10 124/64/10 
s 2
f 122/57/78 121/43/78 125/58/79 126/59/79 
s 4
f 121/48/13 123/47/13 127/60/13 125/61/3 
s 2
f 123/52/19 124/51/19 128/62/80 127/63/80 
s 4
f 124/64/10 122/55/10 126/65/7 128/66/7 
s 2
f 126/59/79 125/58/79 129/2/81 130/1/81 
s 4
f 125/61/3 127/60/13 131/6/3 129/5/3 
s 2
f 127/63/80 128/62/80 132/10/33 131/9/33 
s 4
f 128/66/7 126/65/7 130/14/6 132/13/6 
s 2
f 110/4/71 109/3/71 133/17/82 134/18/82 
s 4
f 109/8/3 111/7/3 135/19/3 133/20/3 
s 2
f 111/12/72 112/11/72 136/21/83 135/22/84 
s 4
f 112/16/50 110/15/50 134/23/50 136/24/6 
s 2
f 134/18/82 133/17/82 137/25/85 138/26/85 
s 4
f 133/20/3 135/19/3 139/27/3 137/28/3 
s 2
f 135/22/84 136/21/83 140/29/86 139/30/86 
s 4
f 136/24/6 134/23/50 138/31/6 140/32/6 
s 2
f 138/26/85 137/25/85 114/33/73 113/34/73 
s 4
f 137/28/3 139/27/3 117/35/3 114/36/3 
s 2
f 139/30/86 140/29/86 119/37/77 117/38/76 
s 4
f 140/32/6 138/31/6 113/39/6 119/40/6 
s 2
f 141/34/87 142/33/87 143/67/88 144/68/89 
s 4
f 142/36/22 145/35/23 146/69/13 143/70/13 
s 2
f 145/38/90 147/37/90 148/71/46 146/72/47 
s 4
f 147/40/7 141/39/7 144/73/6 148/74/6 
s 2
f 130/4/81 129/3/81 149/17/91 150/18/91 
s 4
f 129/8/3 131/7/3 151/19/22 149/20/23 
s 2
f 131/12/33 132/11/33 152/21/92 151/22/92 
s 4
f 132/16/6 130/15/6 150/23/10 152/24/10 
s 2
f 150/18/91 149/17/91 153/25/91 154/26/93 
s 4
f 149/20/23 151/19/22 155/27/23 153/28/23 
s 2
f 151/22/92 152/21/92 156/29/94 155/30/95 
s 4
f 152/24/10 150/23/10 154/31/10 156/32/10 
s 2
f 154/26/93 153/25/91 142/33/87 141/34/87 
s 4
f 153/28/23 155/27/23 145/35/23 142/36/22 
s 2
f 155/30/95 156/29/94 147/37/90 145/38/90 
s 4
f 156/32/10 154/31/10 141/39/7 147/40/7 
s 2
f 157/34/73 158/33/73 159/67/87 160/68/87 
s 4
f 158/36/23 161/35/23 162/69/3 159/70/3 
s 2
f 161/38/96 163/37/96 164/71/32 162/72/32 
s 4
f 163/40/7 157/39/7 160/73/50 164/74/10 
s 2
f 160/41/87 159/42/87 165/43/97 166/44/97 
s 4
f 159/45/3 162/46/3 167/47/3 165/48/13 
s 2
f 162/49/32 164/50/32 168/51/98 167/52/98 
s 4
f 164/53/10 160/54/50 166/55/6 168/80/6 
s 2
f 166/57/97 165/43/97 169/58/99 170/59/99 
s 4
f 165/48/13 167/47/3 171/60/13 169/61/13 
s 2
f 167/52/98 168/51/98 172/62/100 171/63/101 
s 4
f 168/64/6 166/55/6 170/65/6 172/66/6 
s 2
f 170/59/99 169/58/99 2/2/1 1/1/1 
s 4
f 169/61/13 171/60/13 5/6/3 2/5/3 
s 2
f 171/63/101 172/62/100 7/10/4 5/9/4 
s 4
f 172/66/6 170/65/6 1/14/6 7/13/6 
s 2
f 144/4/89 143/3/88 173/17/25 174/18/25 
s 4
f 143/8/13 146/7/13 175/19/13 173/20/3 
s 2
f 146/12/47 148/11/46 176/21/102 175/22/102 
s 4
f 148/16/6 144/15/6 174/23/10 176/24/10 
s 2
f 174/18/25 173/17/25 177/25/103 178/26/104 
s 4
f 173/20/3 175/19/13 179/27/23 177/28/23 
s 2
f 175/22/102 176/21/102 180/29/94 179/30/95 
s 4
f 176/24/10 174/23/10 178/31/10 180/32/50 
s 2
f 178/26/104 177/25/103 158/33/73 157/34/73 
s 4
f 177/28/23 179/27/23 161/35/23 158/36/23 
s 2
f 179/30/95 180/29/94 163/37/96 161/38/96 
s 4
f 180/32/50 178/31/10 157/39/7 163/40/7 
# 180 polygons

