# 3ds Max Wavefront OBJ Exporter v0.97b - (c)2007 guruware
# File Created: 15.03.2017 00:44:44

mtllib sherman_track_l_ao.mtl

#
# object track_l
#

v  -0.868 0.319 -2.027
v  -1.590 0.319 -2.027
v  -1.590 0.533 -2.249
v  -0.868 0.533 -2.249
v  -1.590 0.361 -2.002
v  -1.590 0.567 -2.216
v  -0.868 0.361 -2.002
v  -0.868 0.567 -2.216
v  -1.590 0.784 -2.353
v  -0.868 0.784 -2.353
v  -1.590 0.784 -2.306
v  -0.868 0.784 -2.306
v  -1.590 1.035 -2.249
v  -0.868 1.035 -2.249
v  -1.590 1.001 -2.216
v  -0.868 1.001 -2.216
v  -1.590 1.138 -2.001
v  -0.868 1.138 -2.001
v  -1.590 1.091 -1.999
v  -0.868 1.091 -1.999
v  -0.868 1.131 -1.714
v  -1.590 1.131 -1.714
v  -1.590 1.131 -1.448
v  -0.868 1.131 -1.448
v  -1.590 1.082 -1.732
v  -1.590 1.086 -1.449
v  -0.868 1.082 -1.732
v  -0.868 1.086 -1.449
v  -1.590 1.133 -1.208
v  -0.868 1.133 -1.208
v  -1.590 1.085 -1.208
v  -0.868 1.085 -1.208
v  -1.590 1.139 -0.939
v  -0.868 1.139 -0.939
v  -1.590 1.097 -0.957
v  -0.868 1.097 -0.957
v  -1.590 1.135 -0.651
v  -0.868 1.135 -0.651
v  -1.590 1.097 -0.639
v  -0.868 1.097 -0.639
v  -1.590 1.143 -0.379
v  -0.868 1.143 -0.379
v  -1.590 1.098 -0.366
v  -0.868 1.098 -0.366
v  -1.590 1.140 -0.108
v  -0.868 1.140 -0.108
v  -1.590 1.094 -0.105
v  -0.868 1.094 -0.105
v  -1.590 1.134 0.166
v  -0.868 1.134 0.166
v  -1.590 1.090 0.168
v  -0.868 1.090 0.168
v  -0.868 1.134 0.422
v  -1.590 1.134 0.422
v  -1.590 1.136 0.683
v  -0.868 1.136 0.683
v  -1.590 1.086 0.405
v  -1.590 1.092 0.682
v  -0.868 1.086 0.405
v  -0.868 1.092 0.682
v  -1.590 1.136 0.923
v  -0.868 1.136 0.923
v  -1.590 1.089 0.923
v  -0.868 1.089 0.923
v  -1.590 1.133 1.193
v  -0.868 1.133 1.193
v  -1.590 1.092 1.196
v  -0.868 1.092 1.196
v  -1.590 1.132 1.480
v  -0.868 1.132 1.480
v  -1.590 1.089 1.481
v  -0.868 1.089 1.481
v  -1.590 1.133 1.753
v  -0.868 1.133 1.753
v  -1.590 1.087 1.765
v  -0.868 1.087 1.765
v  -1.590 1.138 2.062
v  -0.868 1.138 2.062
v  -1.590 1.097 2.038
v  -0.868 1.097 2.038
v  -1.590 1.135 2.304
v  -0.868 1.135 2.304
v  -1.590 1.094 2.300
v  -0.868 1.094 2.300
v  -1.590 1.134 2.534
v  -0.868 1.134 2.534
v  -1.590 1.090 2.538
v  -0.868 1.090 2.538
v  -1.590 1.135 2.770
v  -0.868 1.135 2.770
v  -1.590 1.087 2.770
v  -0.868 1.087 2.770
v  -1.590 1.031 3.021
v  -0.868 1.031 3.021
v  -1.590 0.997 2.987
v  -0.868 0.997 2.987
v  -1.590 0.780 3.125
v  -0.868 0.780 3.125
v  -1.590 0.780 3.077
v  -0.868 0.780 3.077
v  -1.590 0.530 3.021
v  -0.868 0.530 3.021
v  -1.590 0.563 2.987
v  -0.868 0.563 2.987
v  -1.590 0.390 2.822
v  -0.868 0.390 2.822
v  -1.590 0.426 2.805
v  -0.868 0.426 2.805
v  -1.590 0.256 2.613
v  -0.868 0.256 2.613
v  -1.590 0.288 2.588
v  -0.868 0.288 2.588
v  -0.868 0.033 1.940
v  -1.590 0.033 1.940
v  -1.590 0.034 1.722
v  -0.868 0.034 1.722
v  -1.590 0.078 1.937
v  -1.590 0.078 1.718
v  -0.868 0.078 1.937
v  -0.868 0.078 1.718
v  -1.590 0.029 1.470
v  -0.868 0.029 1.470
v  -1.590 0.074 1.467
v  -0.868 0.074 1.467
v  -1.590 0.041 1.212
v  -0.868 0.041 1.212
v  -1.590 0.084 1.211
v  -0.868 0.084 1.211
v  -1.590 0.034 0.967
v  -0.868 0.034 0.967
v  -1.590 0.077 0.970
v  -0.868 0.077 0.970
v  -1.590 0.140 2.410
v  -0.868 0.140 2.410
v  -1.590 0.176 2.385
v  -0.868 0.176 2.385
v  -1.590 0.040 2.172
v  -0.868 0.040 2.172
v  -1.590 0.086 2.168
v  -0.868 0.086 2.168
v  -0.868 0.034 0.137
v  -1.590 0.034 0.137
v  -1.590 0.031 -0.168
v  -0.868 0.031 -0.169
v  -1.590 0.081 0.137
v  -1.590 0.078 -0.169
v  -0.868 0.081 0.137
v  -0.868 0.078 -0.169
v  -1.590 0.033 0.696
v  -0.868 0.033 0.696
v  -1.590 0.080 0.696
v  -0.868 0.080 0.696
v  -1.590 0.035 0.428
v  -0.868 0.035 0.428
v  -1.590 0.083 0.423
v  -0.868 0.083 0.423
v  -0.868 0.034 -0.992
v  -1.590 0.034 -0.992
v  -1.590 0.027 -1.297
v  -0.868 0.027 -1.297
v  -1.590 0.081 -0.992
v  -1.590 0.074 -1.298
v  -0.868 0.081 -0.992
v  -0.868 0.074 -1.298
v  -1.590 0.029 -1.581
v  -0.868 0.029 -1.581
v  -1.590 0.076 -1.573
v  -0.868 0.076 -1.573
v  -1.590 0.137 -1.841
v  -0.868 0.137 -1.841
v  -1.590 0.171 -1.807
v  -0.868 0.171 -1.807
v  -1.590 0.033 -0.427
v  -0.868 0.033 -0.427
v  -1.590 0.080 -0.427
v  -0.868 0.080 -0.427
v  -1.590 0.035 -0.677
v  -0.868 0.035 -0.677
v  -1.590 0.083 -0.681
v  -0.868 0.083 -0.681
# 180 vertices

vn 0.000 -0.718 -0.696
vn 0.000 -0.564 -0.826
vn -1.000 0.000 -0.000
vn -0.000 0.718 0.696
vn -0.000 0.563 0.826
vn 1.000 0.000 0.000
vn 1.000 -0.000 0.000
vn 0.000 0.000 -1.000
vn -0.000 -0.000 1.000
vn 1.000 0.000 -0.000
vn -0.000 0.707 -0.707
vn 0.000 0.707 -0.707
vn -1.000 -0.000 -0.000
vn -0.000 -0.708 0.706
vn 0.000 -0.708 0.706
vn 0.000 0.983 -0.183
vn -0.000 0.983 -0.183
vn 0.000 -0.984 0.179
vn -0.000 1.000 0.012
vn -0.000 1.000 -0.004
vn 0.000 1.000 -0.004
vn -1.000 -0.000 0.000
vn -1.000 0.000 0.000
vn -0.000 -1.000 -0.008
vn 0.000 -1.000 -0.008
vn 0.000 -1.000 0.005
vn -0.000 -1.000 0.005
vn 0.000 1.000 -0.015
vn -0.000 -1.000 0.022
vn 0.000 -1.000 0.022
vn 0.000 -1.000 0.024
vn 0.000 1.000 -0.008
vn -0.000 1.000 -0.008
vn 0.000 -1.000 0.000
vn 0.000 1.000 -0.010
vn -0.000 1.000 -0.010
vn -0.000 -1.000 -0.006
vn -0.000 1.000 0.017
vn -0.000 -1.000 -0.015
vn 0.000 1.000 0.011
vn -0.000 -1.000 -0.017
vn -0.000 -1.000 0.002
vn 0.000 1.000 0.006
vn 0.000 -1.000 -0.001
vn 0.000 1.000 0.007
vn 0.000 1.000 -0.001
vn -0.000 1.000 -0.001
vn 0.000 -1.000 -0.007
vn -0.000 -1.000 -0.007
vn 1.000 -0.000 -0.000
vn -0.000 1.000 -0.009
vn -0.000 -1.000 0.015
vn -0.000 1.000 -0.002
vn -0.000 -1.000 0.011
vn 0.000 1.000 0.009
vn -0.000 -1.000 -0.014
vn 0.000 1.000 0.001
vn 0.000 -1.000 -0.014
vn 0.000 0.981 0.193
vn 0.000 -0.980 -0.200
vn 0.000 0.707 0.707
vn 0.000 -0.707 -0.707
vn 0.000 0.000 1.000
vn 0.000 -0.000 -1.000
vn 0.000 -0.626 0.780
vn 0.000 0.612 -0.790
vn -0.000 0.612 -0.790
vn 0.000 -0.830 0.557
vn -0.000 -0.830 0.557
vn -0.000 0.822 -0.570
vn -0.000 -0.855 0.519
vn -0.000 0.860 -0.510
vn -0.000 -1.000 0.013
vn -0.000 -1.000 0.008
vn 0.000 -1.000 0.008
vn -0.000 1.000 -0.018
vn 0.000 1.000 -0.018
vn 0.000 -1.000 -0.013
vn 0.000 -1.000 -0.009
vn -0.000 1.000 0.006
vn 0.000 -1.000 0.016
vn -0.000 -0.897 0.442
vn -0.000 0.902 -0.433
vn 0.000 0.902 -0.433
vn -0.000 -0.977 0.212
vn 0.000 0.977 -0.211
vn -0.000 -1.000 0.007
vn -0.000 -1.000 0.001
vn 0.000 -1.000 0.001
vn 0.000 1.000 -0.007
vn 0.000 -1.000 -0.002
vn -0.000 1.000 0.010
vn -0.000 -1.000 -0.002
vn -0.000 1.000 0.002
vn 0.000 1.000 0.002
vn 0.000 1.000 -0.014
vn -0.000 -0.980 -0.200
vn 0.000 0.981 0.195
vn -0.000 -0.834 -0.552
vn 0.000 0.837 0.547
vn -0.000 0.837 0.547
vn -0.000 1.000 0.009
vn 0.000 -1.000 -0.003
vn -0.000 -1.000 -0.003
# 104 vertex normals

vt 0.770 0.653 0.000
vt 0.770 0.619 0.000
vt 0.777 0.619 0.000
vt 0.777 0.653 0.000
vt 0.621 0.926 0.000
vt 0.622 0.929 0.000
vt 0.615 0.942 0.000
vt 0.614 0.940 0.000
vt 0.618 0.760 0.000
vt 0.618 0.794 0.000
vt 0.611 0.794 0.000
vt 0.611 0.760 0.000
vt 0.773 0.837 0.000
vt 0.773 0.834 0.000
vt 0.780 0.848 0.000
vt 0.779 0.850 0.000
vt 0.685 0.673 0.000
vt 0.701 0.673 0.000
vt 0.701 0.689 0.000
vt 0.685 0.689 0.000
vt 0.612 0.955 0.000
vt 0.611 0.955 0.000
vt 0.758 0.675 0.000
vt 0.775 0.675 0.000
vt 0.775 0.689 0.000
vt 0.758 0.689 0.000
vt 0.784 0.863 0.000
vt 0.782 0.863 0.000
vt 0.701 0.704 0.000
vt 0.685 0.704 0.000
vt 0.615 0.969 0.000
vt 0.614 0.971 0.000
vt 0.775 0.702 0.000
vt 0.758 0.702 0.000
vt 0.780 0.879 0.000
vt 0.779 0.877 0.000
vt 0.611 0.607 0.000
vt 0.611 0.574 0.000
vt 0.619 0.574 0.000
vt 0.619 0.607 0.000
vt 0.622 0.974 0.000
vt 0.622 0.977 0.000
vt 0.775 0.715 0.000
vt 0.775 0.748 0.000
vt 0.768 0.748 0.000
vt 0.768 0.715 0.000
vt 0.773 0.885 0.000
vt 0.772 0.882 0.000
vt 0.628 0.607 0.000
vt 0.628 0.574 0.000
vt 0.636 0.574 0.000
vt 0.636 0.607 0.000
vt 0.631 0.977 0.000
vt 0.630 0.974 0.000
vt 0.639 0.974 0.000
vt 0.639 0.977 0.000
vt 0.760 0.715 0.000
vt 0.760 0.748 0.000
vt 0.751 0.748 0.000
vt 0.751 0.715 0.000
vt 0.764 0.882 0.000
vt 0.764 0.885 0.000
vt 0.755 0.885 0.000
vt 0.755 0.882 0.000
vt 0.644 0.574 0.000
vt 0.644 0.607 0.000
vt 0.647 0.974 0.000
vt 0.647 0.977 0.000
vt 0.743 0.748 0.000
vt 0.743 0.715 0.000
vt 0.748 0.885 0.000
vt 0.748 0.882 0.000
vt 0.652 0.574 0.000
vt 0.652 0.607 0.000
vt 0.655 0.975 0.000
vt 0.655 0.977 0.000
vt 0.735 0.748 0.000
vt 0.735 0.715 0.000
vt 0.739 0.885 0.000
vt 0.740 0.883 0.000
vt 0.661 0.574 0.000
vt 0.661 0.607 0.000
vt 0.665 0.975 0.000
vt 0.665 0.977 0.000
vt 0.725 0.748 0.000
vt 0.725 0.715 0.000
vt 0.730 0.885 0.000
vt 0.730 0.883 0.000
vt 0.670 0.574 0.000
vt 0.670 0.607 0.000
vt 0.674 0.975 0.000
vt 0.673 0.978 0.000
vt 0.717 0.748 0.000
vt 0.717 0.715 0.000
vt 0.721 0.886 0.000
vt 0.721 0.883 0.000
vt 0.678 0.574 0.000
vt 0.678 0.607 0.000
vt 0.682 0.974 0.000
vt 0.682 0.977 0.000
vt 0.708 0.748 0.000
vt 0.708 0.715 0.000
vt 0.713 0.885 0.000
vt 0.713 0.883 0.000
vt 0.687 0.574 0.000
vt 0.687 0.607 0.000
vt 0.690 0.974 0.000
vt 0.690 0.977 0.000
vt 0.700 0.748 0.000
vt 0.700 0.715 0.000
vt 0.704 0.885 0.000
vt 0.704 0.882 0.000
vt 0.695 0.607 0.000
vt 0.695 0.574 0.000
vt 0.703 0.574 0.000
vt 0.703 0.607 0.000
vt 0.698 0.977 0.000
vt 0.698 0.974 0.000
vt 0.707 0.974 0.000
vt 0.707 0.977 0.000
vt 0.692 0.715 0.000
vt 0.692 0.748 0.000
vt 0.684 0.748 0.000
vt 0.684 0.715 0.000
vt 0.697 0.882 0.000
vt 0.696 0.885 0.000
vt 0.688 0.885 0.000
vt 0.688 0.882 0.000
vt 0.711 0.574 0.000
vt 0.711 0.607 0.000
vt 0.714 0.974 0.000
vt 0.714 0.977 0.000
vt 0.676 0.748 0.000
vt 0.676 0.715 0.000
vt 0.680 0.885 0.000
vt 0.680 0.882 0.000
vt 0.719 0.574 0.000
vt 0.719 0.607 0.000
vt 0.723 0.974 0.000
vt 0.723 0.977 0.000
vt 0.667 0.748 0.000
vt 0.667 0.715 0.000
vt 0.672 0.885 0.000
vt 0.672 0.882 0.000
vt 0.729 0.574 0.000
vt 0.729 0.607 0.000
vt 0.732 0.974 0.000
vt 0.732 0.977 0.000
vt 0.658 0.748 0.000
vt 0.658 0.715 0.000
vt 0.663 0.885 0.000
vt 0.663 0.882 0.000
vt 0.737 0.574 0.000
vt 0.737 0.607 0.000
vt 0.741 0.974 0.000
vt 0.740 0.977 0.000
vt 0.649 0.748 0.000
vt 0.649 0.715 0.000
vt 0.654 0.885 0.000
vt 0.654 0.882 0.000
vt 0.747 0.574 0.000
vt 0.747 0.607 0.000
vt 0.749 0.975 0.000
vt 0.750 0.977 0.000
vt 0.641 0.748 0.000
vt 0.641 0.715 0.000
vt 0.644 0.885 0.000
vt 0.645 0.883 0.000
vt 0.754 0.574 0.000
vt 0.754 0.607 0.000
vt 0.758 0.974 0.000
vt 0.758 0.977 0.000
vt 0.633 0.748 0.000
vt 0.633 0.715 0.000
vt 0.637 0.885 0.000
vt 0.637 0.882 0.000
vt 0.762 0.574 0.000
vt 0.762 0.607 0.000
vt 0.765 0.974 0.000
vt 0.765 0.977 0.000
vt 0.625 0.748 0.000
vt 0.625 0.715 0.000
vt 0.630 0.885 0.000
vt 0.629 0.882 0.000
vt 0.769 0.574 0.000
vt 0.769 0.607 0.000
vt 0.772 0.974 0.000
vt 0.772 0.977 0.000
vt 0.618 0.748 0.000
vt 0.618 0.715 0.000
vt 0.622 0.885 0.000
vt 0.622 0.882 0.000
vt 0.777 0.574 0.000
vt 0.777 0.607 0.000
vt 0.779 0.968 0.000
vt 0.780 0.971 0.000
vt 0.611 0.748 0.000
vt 0.611 0.715 0.000
vt 0.614 0.879 0.000
vt 0.615 0.876 0.000
vt 0.726 0.703 0.000
vt 0.709 0.703 0.000
vt 0.709 0.687 0.000
vt 0.726 0.687 0.000
vt 0.782 0.955 0.000
vt 0.784 0.955 0.000
vt 0.753 0.702 0.000
vt 0.736 0.702 0.000
vt 0.736 0.689 0.000
vt 0.753 0.689 0.000
vt 0.611 0.863 0.000
vt 0.612 0.863 0.000
vt 0.709 0.672 0.000
vt 0.726 0.672 0.000
vt 0.779 0.941 0.000
vt 0.780 0.939 0.000
vt 0.736 0.675 0.000
vt 0.753 0.675 0.000
vt 0.614 0.847 0.000
vt 0.615 0.849 0.000
vt 0.611 0.653 0.000
vt 0.611 0.619 0.000
vt 0.617 0.619 0.000
vt 0.617 0.653 0.000
vt 0.774 0.933 0.000
vt 0.774 0.931 0.000
vt 0.775 0.760 0.000
vt 0.775 0.794 0.000
vt 0.769 0.794 0.000
vt 0.769 0.760 0.000
vt 0.620 0.839 0.000
vt 0.621 0.841 0.000
vt 0.624 0.619 0.000
vt 0.624 0.653 0.000
vt 0.767 0.924 0.000
vt 0.768 0.922 0.000
vt 0.762 0.794 0.000
vt 0.762 0.760 0.000
vt 0.627 0.830 0.000
vt 0.628 0.832 0.000
vt 0.645 0.653 0.000
vt 0.645 0.619 0.000
vt 0.652 0.619 0.000
vt 0.652 0.653 0.000
vt 0.746 0.908 0.000
vt 0.746 0.911 0.000
vt 0.739 0.911 0.000
vt 0.739 0.908 0.000
vt 0.742 0.760 0.000
vt 0.742 0.794 0.000
vt 0.735 0.794 0.000
vt 0.735 0.760 0.000
vt 0.648 0.819 0.000
vt 0.648 0.816 0.000
vt 0.655 0.816 0.000
vt 0.655 0.819 0.000
vt 0.660 0.619 0.000
vt 0.660 0.653 0.000
vt 0.731 0.911 0.000
vt 0.731 0.908 0.000
vt 0.727 0.794 0.000
vt 0.727 0.760 0.000
vt 0.663 0.816 0.000
vt 0.663 0.819 0.000
vt 0.668 0.619 0.000
vt 0.668 0.653 0.000
vt 0.723 0.912 0.000
vt 0.723 0.909 0.000
vt 0.719 0.794 0.000
vt 0.719 0.760 0.000
vt 0.671 0.817 0.000
vt 0.671 0.820 0.000
vt 0.676 0.619 0.000
vt 0.676 0.653 0.000
vt 0.716 0.911 0.000
vt 0.716 0.908 0.000
vt 0.711 0.794 0.000
vt 0.711 0.760 0.000
vt 0.679 0.816 0.000
vt 0.679 0.819 0.000
vt 0.630 0.619 0.000
vt 0.630 0.653 0.000
vt 0.760 0.917 0.000
vt 0.761 0.915 0.000
vt 0.756 0.794 0.000
vt 0.756 0.760 0.000
vt 0.633 0.823 0.000
vt 0.634 0.825 0.000
vt 0.638 0.619 0.000
vt 0.638 0.653 0.000
vt 0.753 0.912 0.000
vt 0.754 0.909 0.000
vt 0.749 0.794 0.000
vt 0.749 0.760 0.000
vt 0.641 0.817 0.000
vt 0.641 0.820 0.000
vt 0.702 0.653 0.000
vt 0.702 0.619 0.000
vt 0.711 0.619 0.000
vt 0.711 0.653 0.000
vt 0.689 0.908 0.000
vt 0.689 0.911 0.000
vt 0.680 0.911 0.000
vt 0.680 0.908 0.000
vt 0.685 0.760 0.000
vt 0.685 0.794 0.000
vt 0.675 0.794 0.000
vt 0.675 0.760 0.000
vt 0.705 0.819 0.000
vt 0.705 0.816 0.000
vt 0.715 0.816 0.000
vt 0.715 0.819 0.000
vt 0.684 0.619 0.000
vt 0.684 0.653 0.000
vt 0.707 0.911 0.000
vt 0.707 0.908 0.000
vt 0.703 0.794 0.000
vt 0.703 0.760 0.000
vt 0.688 0.816 0.000
vt 0.688 0.819 0.000
vt 0.693 0.619 0.000
vt 0.693 0.653 0.000
vt 0.698 0.911 0.000
vt 0.699 0.908 0.000
vt 0.694 0.794 0.000
vt 0.694 0.760 0.000
vt 0.696 0.817 0.000
vt 0.696 0.820 0.000
vt 0.737 0.653 0.000
vt 0.737 0.619 0.000
vt 0.747 0.619 0.000
vt 0.747 0.653 0.000
vt 0.654 0.908 0.000
vt 0.654 0.911 0.000
vt 0.644 0.911 0.000
vt 0.644 0.908 0.000
vt 0.649 0.760 0.000
vt 0.649 0.794 0.000
vt 0.640 0.794 0.000
vt 0.640 0.760 0.000
vt 0.741 0.819 0.000
vt 0.741 0.816 0.000
vt 0.750 0.816 0.000
vt 0.750 0.819 0.000
vt 0.756 0.619 0.000
vt 0.756 0.653 0.000
vt 0.635 0.911 0.000
vt 0.635 0.908 0.000
vt 0.631 0.794 0.000
vt 0.631 0.760 0.000
vt 0.759 0.816 0.000
vt 0.759 0.819 0.000
vt 0.764 0.619 0.000
vt 0.764 0.653 0.000
vt 0.628 0.917 0.000
vt 0.627 0.915 0.000
vt 0.624 0.794 0.000
vt 0.624 0.760 0.000
vt 0.767 0.823 0.000
vt 0.766 0.825 0.000
vt 0.720 0.619 0.000
vt 0.720 0.653 0.000
vt 0.672 0.911 0.000
vt 0.672 0.908 0.000
vt 0.667 0.794 0.000
vt 0.667 0.760 0.000
vt 0.723 0.816 0.000
vt 0.723 0.819 0.000
vt 0.728 0.619 0.000
vt 0.728 0.653 0.000
vt 0.664 0.911 0.000
vt 0.664 0.908 0.000
vt 0.659 0.794 0.000
vt 0.659 0.760 0.000
vt 0.731 0.817 0.000
vt 0.731 0.820 0.000
# 376 texture coords

g track_l
usemtl Material__140
s 2
f 1/1/1 2/2/1 3/3/2 4/4/2 
s 4
f 2/5/3 5/6/3 6/7/3 3/8/3 
s 2
f 5/9/4 7/10/4 8/11/5 6/12/5 
s 4
f 7/13/6 1/14/6 4/15/7 8/16/7 
s 2
f 4/17/2 3/18/2 9/19/8 10/20/8 
s 4
f 3/8/3 6/7/3 11/21/3 9/22/3 
s 2
f 6/23/5 8/24/5 12/25/9 11/26/9 
s 4
f 8/16/7 4/15/7 10/27/10 12/28/7 
s 2
f 10/20/8 9/19/8 13/29/11 14/30/12 
s 4
f 9/22/3 11/21/3 15/31/13 13/32/13 
s 2
f 11/26/9 12/25/9 16/33/14 15/34/15 
s 4
f 12/28/7 10/27/10 14/35/7 16/36/7 
s 2
f 14/37/12 13/38/11 17/39/16 18/40/17 
s 4
f 13/32/13 15/31/13 19/41/13 17/42/13 
s 2
f 15/43/15 16/44/14 20/45/18 19/46/18 
s 4
f 16/36/7 14/35/7 18/47/7 20/48/6 
s 2
f 21/49/19 22/50/19 23/51/20 24/52/21 
s 4
f 22/53/3 25/54/3 26/55/22 23/56/23 
s 2
f 25/57/24 27/58/25 28/59/26 26/60/27 
s 4
f 27/61/7 21/62/7 24/63/10 28/64/7 
s 2
f 24/52/21 23/51/20 29/65/28 30/66/28 
s 4
f 23/56/23 26/55/22 31/67/23 29/68/23 
s 2
f 26/60/27 28/59/26 32/69/29 31/70/30 
s 4
f 28/64/7 24/63/10 30/71/7 32/72/7 
s 2
f 30/66/28 29/65/28 33/73/21 34/74/21 
s 4
f 29/68/23 31/67/23 35/75/23 33/76/3 
s 2
f 31/70/30 32/69/29 36/77/31 35/78/31 
s 4
f 32/72/7 30/71/7 34/79/10 36/80/10 
s 2
f 34/74/21 33/73/21 37/81/32 38/82/33 
s 4
f 33/76/3 35/75/23 39/83/3 37/84/3 
s 2
f 35/78/31 36/77/31 40/85/34 39/86/34 
s 4
f 36/80/10 34/79/10 38/87/7 40/88/7 
s 2
f 38/82/33 37/81/32 41/89/35 42/90/36 
s 4
f 37/84/3 39/83/3 43/91/13 41/92/13 
s 2
f 39/86/34 40/85/34 44/93/37 43/94/37 
s 4
f 40/88/7 38/87/7 42/95/7 44/96/6 
s 2
f 42/90/36 41/89/35 45/97/38 46/98/38 
s 4
f 41/92/13 43/91/13 47/99/13 45/100/13 
s 2
f 43/94/37 44/93/37 48/101/39 47/102/39 
s 4
f 44/96/6 42/95/7 46/103/6 48/104/6 
s 2
f 46/98/38 45/97/38 49/105/40 50/106/40 
s 4
f 45/100/13 47/99/13 51/107/13 49/108/3 
s 2
f 47/102/39 48/101/39 52/109/41 51/110/41 
s 4
f 48/104/6 46/103/6 50/111/6 52/112/6 
s 2
f 18/40/17 17/39/16 22/50/19 21/49/19 
s 4
f 17/42/13 19/41/13 25/54/3 22/53/3 
s 2
f 19/46/18 20/45/18 27/58/25 25/57/24 
s 4
f 20/48/6 18/47/7 21/62/7 27/61/7 
s 2
f 53/113/20 54/114/20 55/115/21 56/116/21 
s 4
f 54/117/3 57/118/3 58/119/3 55/120/3 
s 2
f 57/121/42 59/122/42 60/123/27 58/124/27 
s 4
f 59/125/7 53/126/7 56/127/7 60/128/7 
s 2
f 56/116/21 55/115/21 61/129/43 62/130/43 
s 4
f 55/120/3 58/119/3 63/131/3 61/132/3 
s 2
f 58/124/27 60/123/27 64/133/44 63/134/44 
s 4
f 60/128/7 56/127/7 62/135/10 64/136/10 
s 2
f 62/130/43 61/129/43 65/137/45 66/138/45 
s 4
f 61/132/3 63/131/3 67/139/23 65/140/23 
s 2
f 63/134/44 64/133/44 68/141/34 67/142/34 
s 4
f 64/136/10 62/135/10 66/143/10 68/144/10 
s 2
f 66/138/45 65/137/45 69/145/46 70/146/47 
s 4
f 65/140/23 67/139/23 71/147/23 69/148/23 
s 2
f 67/142/34 68/141/34 72/149/48 71/150/49 
s 4
f 68/144/10 66/143/10 70/151/50 72/152/50 
s 2
f 70/146/47 69/145/46 73/153/51 74/154/51 
s 4
f 69/148/23 71/147/23 75/155/13 73/156/13 
s 2
f 71/150/49 72/149/48 76/157/52 75/158/52 
s 4
f 72/152/50 70/151/50 74/159/7 76/160/7 
s 2
f 74/154/51 73/153/51 77/161/53 78/162/53 
s 4
f 73/156/13 75/155/13 79/163/3 77/164/3 
s 2
f 75/158/52 76/157/52 80/165/54 79/166/54 
s 4
f 76/160/7 74/159/7 78/167/6 80/168/10 
s 2
f 78/162/53 77/161/53 81/169/55 82/170/55 
s 4
f 77/164/3 79/163/3 83/171/3 81/172/3 
s 2
f 79/166/54 80/165/54 84/173/56 83/174/56 
s 4
f 80/168/10 78/167/6 82/175/10 84/176/6 
s 2
f 50/106/40 49/105/40 54/114/20 53/113/20 
s 4
f 49/108/3 51/107/13 57/118/3 54/117/3 
s 2
f 51/110/41 52/109/41 59/122/42 57/121/42 
s 4
f 52/112/6 50/111/6 53/126/7 59/125/7 
s 2
f 82/170/55 81/169/55 85/177/57 86/178/57 
s 4
f 81/172/3 83/171/3 87/179/3 85/180/3 
s 2
f 83/174/56 84/173/56 88/181/56 87/182/58 
s 4
f 84/176/6 82/175/10 86/183/10 88/184/10 
s 2
f 86/178/57 85/177/57 89/185/59 90/186/59 
s 4
f 85/180/3 87/179/3 91/187/3 89/188/3 
s 2
f 87/182/58 88/181/56 92/189/60 91/190/60 
s 4
f 88/184/10 86/183/10 90/191/6 92/192/6 
s 2
f 90/186/59 89/185/59 93/193/61 94/194/61 
s 4
f 89/188/3 91/187/3 95/195/3 93/196/3 
s 2
f 91/190/60 92/189/60 96/197/62 95/198/62 
s 4
f 92/192/6 90/191/6 94/199/6 96/200/6 
s 2
f 94/201/61 93/202/61 97/203/63 98/204/63 
s 4
f 93/196/3 95/195/3 99/205/3 97/206/3 
s 2
f 95/207/62 96/208/62 100/209/64 99/210/64 
s 4
f 96/200/6 94/199/6 98/211/7 100/212/7 
s 2
f 98/204/63 97/203/63 101/213/65 102/214/65 
s 4
f 97/206/3 99/205/3 103/215/3 101/216/3 
s 2
f 99/210/64 100/209/64 104/217/66 103/218/67 
s 4
f 100/212/7 98/211/7 102/219/7 104/220/7 
s 2
f 102/221/65 101/222/65 105/223/68 106/224/69 
s 4
f 101/216/3 103/215/3 107/225/3 105/226/3 
s 2
f 103/227/67 104/228/66 108/229/70 107/230/70 
s 4
f 104/220/7 102/219/7 106/231/50 108/232/50 
s 2
f 106/224/69 105/223/68 109/233/71 110/234/71 
s 4
f 105/226/3 107/225/3 111/235/3 109/236/3 
s 2
f 107/230/70 108/229/70 112/237/72 111/238/72 
s 4
f 108/232/50 106/231/50 110/239/50 112/240/50 
s 2
f 113/241/73 114/242/73 115/243/74 116/244/75 
s 4
f 114/245/3 117/246/3 118/247/23 115/248/13 
s 2
f 117/249/76 119/250/77 120/251/36 118/252/36 
s 4
f 119/253/6 113/254/6 116/255/6 120/256/6 
s 2
f 116/244/75 115/243/74 121/257/78 122/258/78 
s 4
f 115/248/13 118/247/23 123/259/13 121/260/13 
s 2
f 118/252/36 120/251/36 124/261/19 123/262/19 
s 4
f 120/256/6 116/255/6 122/263/10 124/264/10 
s 2
f 122/258/78 121/257/78 125/265/79 126/266/79 
s 4
f 121/260/13 123/259/13 127/267/13 125/268/3 
s 2
f 123/262/19 124/261/19 128/269/80 127/270/80 
s 4
f 124/264/10 122/263/10 126/271/7 128/272/7 
s 2
f 126/266/79 125/265/79 129/273/81 130/274/81 
s 4
f 125/268/3 127/267/13 131/275/3 129/276/3 
s 2
f 127/270/80 128/269/80 132/277/33 131/278/33 
s 4
f 128/272/7 126/271/7 130/279/6 132/280/6 
s 2
f 110/234/71 109/233/71 133/281/82 134/282/82 
s 4
f 109/236/3 111/235/3 135/283/3 133/284/3 
s 2
f 111/238/72 112/237/72 136/285/83 135/286/84 
s 4
f 112/240/50 110/239/50 134/287/50 136/288/6 
s 2
f 134/282/82 133/281/82 137/289/85 138/290/85 
s 4
f 133/284/3 135/283/3 139/291/3 137/292/3 
s 2
f 135/286/84 136/285/83 140/293/86 139/294/86 
s 4
f 136/288/6 134/287/50 138/295/6 140/296/6 
s 2
f 138/290/85 137/289/85 114/242/73 113/241/73 
s 4
f 137/292/3 139/291/3 117/246/3 114/245/3 
s 2
f 139/294/86 140/293/86 119/250/77 117/249/76 
s 4
f 140/296/6 138/295/6 113/254/6 119/253/6 
s 2
f 141/297/87 142/298/87 143/299/88 144/300/89 
s 4
f 142/301/22 145/302/23 146/303/13 143/304/13 
s 2
f 145/305/90 147/306/90 148/307/46 146/308/47 
s 4
f 147/309/7 141/310/7 144/311/6 148/312/6 
s 2
f 130/274/81 129/273/81 149/313/91 150/314/91 
s 4
f 129/276/3 131/275/3 151/315/22 149/316/23 
s 2
f 131/278/33 132/277/33 152/317/92 151/318/92 
s 4
f 132/280/6 130/279/6 150/319/10 152/320/10 
s 2
f 150/314/91 149/313/91 153/321/91 154/322/93 
s 4
f 149/316/23 151/315/22 155/323/23 153/324/23 
s 2
f 151/318/92 152/317/92 156/325/94 155/326/95 
s 4
f 152/320/10 150/319/10 154/327/10 156/328/10 
s 2
f 154/322/93 153/321/91 142/298/87 141/297/87 
s 4
f 153/324/23 155/323/23 145/302/23 142/301/22 
s 2
f 155/326/95 156/325/94 147/306/90 145/305/90 
s 4
f 156/328/10 154/327/10 141/310/7 147/309/7 
s 2
f 157/329/73 158/330/73 159/331/87 160/332/87 
s 4
f 158/333/23 161/334/23 162/335/3 159/336/3 
s 2
f 161/337/96 163/338/96 164/339/32 162/340/32 
s 4
f 163/341/7 157/342/7 160/343/50 164/344/10 
s 2
f 160/332/87 159/331/87 165/345/97 166/346/97 
s 4
f 159/336/3 162/335/3 167/347/3 165/348/13 
s 2
f 162/340/32 164/339/32 168/349/98 167/350/98 
s 4
f 164/344/10 160/343/50 166/351/6 168/352/6 
s 2
f 166/346/97 165/345/97 169/353/99 170/354/99 
s 4
f 165/348/13 167/347/3 171/355/13 169/356/13 
s 2
f 167/350/98 168/349/98 172/357/100 171/358/101 
s 4
f 168/352/6 166/351/6 170/359/6 172/360/6 
s 2
f 170/354/99 169/353/99 2/2/1 1/1/1 
s 4
f 169/356/13 171/355/13 5/6/3 2/5/3 
s 2
f 171/358/101 172/357/100 7/10/4 5/9/4 
s 4
f 172/360/6 170/359/6 1/14/6 7/13/6 
s 2
f 144/300/89 143/299/88 173/361/25 174/362/25 
s 4
f 143/304/13 146/303/13 175/363/13 173/364/3 
s 2
f 146/308/47 148/307/46 176/365/102 175/366/102 
s 4
f 148/312/6 144/311/6 174/367/10 176/368/10 
s 2
f 174/362/25 173/361/25 177/369/103 178/370/104 
s 4
f 173/364/3 175/363/13 179/371/23 177/372/23 
s 2
f 175/366/102 176/365/102 180/373/94 179/374/95 
s 4
f 176/368/10 174/367/10 178/375/10 180/376/50 
s 2
f 178/370/104 177/369/103 158/330/73 157/329/73 
s 4
f 177/372/23 179/371/23 161/334/23 158/333/23 
s 2
f 179/374/95 180/373/94 163/338/96 161/337/96 
s 4
f 180/376/50 178/375/10 157/342/7 163/341/7 
# 180 polygons

