# 3ds Max Wavefront OBJ Exporter v0.97b - (c)2007 guruware
# File Created: 15.03.2017 01:00:20

mtllib sherman_track_r_ao.mtl

#
# object track_r
#

v  0.862 0.319 -2.027
v  0.862 0.533 -2.249
v  1.597 0.533 -2.249
v  1.597 0.319 -2.027
v  1.597 0.567 -2.216
v  1.597 0.361 -2.002
v  0.862 0.567 -2.216
v  0.862 0.361 -2.002
v  0.862 0.784 -2.353
v  1.597 0.784 -2.353
v  1.597 0.784 -2.306
v  0.862 0.784 -2.306
v  0.862 1.035 -2.249
v  1.597 1.035 -2.249
v  1.597 1.001 -2.216
v  0.862 1.001 -2.216
v  0.862 1.138 -2.001
v  1.597 1.138 -2.001
v  1.597 1.091 -1.999
v  0.862 1.091 -1.999
v  0.862 1.131 -1.714
v  0.862 1.131 -1.448
v  1.597 1.131 -1.448
v  1.597 1.131 -1.714
v  1.597 1.086 -1.449
v  1.597 1.082 -1.732
v  0.862 1.086 -1.449
v  0.862 1.082 -1.732
v  0.862 1.133 -1.208
v  1.597 1.133 -1.208
v  1.597 1.085 -1.208
v  0.862 1.085 -1.208
v  0.862 1.139 -0.939
v  1.597 1.139 -0.939
v  1.597 1.097 -0.957
v  0.862 1.097 -0.957
v  0.862 1.135 -0.651
v  1.597 1.135 -0.651
v  1.597 1.097 -0.639
v  0.862 1.097 -0.639
v  0.862 1.143 -0.379
v  1.597 1.143 -0.379
v  1.597 1.098 -0.366
v  0.862 1.098 -0.366
v  0.862 1.140 -0.108
v  1.597 1.140 -0.108
v  1.597 1.094 -0.105
v  0.862 1.094 -0.105
v  0.862 1.134 0.166
v  1.597 1.134 0.166
v  1.597 1.090 0.168
v  0.862 1.090 0.168
v  0.862 1.134 0.422
v  0.862 1.136 0.683
v  1.597 1.136 0.683
v  1.597 1.134 0.422
v  1.597 1.092 0.682
v  1.597 1.086 0.405
v  0.862 1.092 0.682
v  0.862 1.086 0.405
v  0.862 1.136 0.923
v  1.597 1.136 0.923
v  1.597 1.089 0.923
v  0.862 1.089 0.923
v  0.862 1.133 1.193
v  1.597 1.133 1.193
v  1.597 1.092 1.196
v  0.862 1.092 1.196
v  0.862 1.132 1.480
v  1.597 1.132 1.480
v  1.597 1.089 1.481
v  0.862 1.089 1.481
v  0.862 1.133 1.753
v  1.597 1.133 1.753
v  1.597 1.087 1.765
v  0.862 1.087 1.765
v  0.862 1.138 2.062
v  1.597 1.138 2.062
v  1.597 1.097 2.038
v  0.862 1.097 2.038
v  0.862 1.135 2.304
v  1.597 1.135 2.304
v  1.597 1.094 2.300
v  0.862 1.094 2.300
v  0.862 1.134 2.534
v  1.597 1.134 2.534
v  1.597 1.090 2.538
v  0.862 1.090 2.538
v  0.862 1.135 2.770
v  1.597 1.135 2.770
v  1.597 1.087 2.770
v  0.862 1.087 2.770
v  0.862 1.031 3.021
v  1.597 1.031 3.021
v  1.597 0.997 2.987
v  0.862 0.997 2.987
v  0.862 0.780 3.125
v  1.597 0.780 3.125
v  1.597 0.780 3.077
v  0.862 0.780 3.077
v  0.862 0.530 3.021
v  1.597 0.530 3.021
v  1.597 0.563 2.987
v  0.862 0.563 2.987
v  0.862 0.390 2.822
v  1.597 0.390 2.822
v  1.597 0.426 2.805
v  0.862 0.426 2.805
v  0.862 0.256 2.613
v  1.597 0.256 2.613
v  1.597 0.288 2.588
v  0.862 0.288 2.588
v  0.862 0.033 1.940
v  0.862 0.034 1.722
v  1.597 0.034 1.722
v  1.597 0.033 1.940
v  1.597 0.078 1.718
v  1.597 0.078 1.937
v  0.862 0.078 1.718
v  0.862 0.078 1.937
v  0.862 0.029 1.470
v  1.597 0.029 1.470
v  1.597 0.074 1.467
v  0.862 0.074 1.467
v  0.862 0.041 1.212
v  1.597 0.041 1.212
v  1.597 0.084 1.211
v  0.862 0.084 1.211
v  0.862 0.034 0.967
v  1.597 0.034 0.967
v  1.597 0.077 0.970
v  0.862 0.077 0.970
v  0.862 0.140 2.410
v  1.597 0.140 2.410
v  1.597 0.176 2.385
v  0.862 0.176 2.385
v  0.862 0.040 2.172
v  1.597 0.040 2.172
v  1.597 0.086 2.168
v  0.862 0.086 2.168
v  0.862 0.034 0.137
v  0.862 0.031 -0.169
v  1.597 0.031 -0.168
v  1.597 0.034 0.137
v  1.597 0.078 -0.169
v  1.597 0.081 0.137
v  0.862 0.078 -0.169
v  0.862 0.081 0.137
v  0.862 0.033 0.696
v  1.597 0.033 0.696
v  1.597 0.080 0.696
v  0.862 0.080 0.696
v  0.862 0.035 0.428
v  1.597 0.035 0.428
v  1.597 0.083 0.423
v  0.862 0.083 0.423
v  0.862 0.034 -0.992
v  0.862 0.027 -1.297
v  1.597 0.027 -1.297
v  1.597 0.034 -0.992
v  1.597 0.074 -1.298
v  1.597 0.081 -0.992
v  0.862 0.074 -1.298
v  0.862 0.081 -0.992
v  0.862 0.029 -1.581
v  1.597 0.029 -1.581
v  1.597 0.076 -1.573
v  0.862 0.076 -1.573
v  0.862 0.137 -1.841
v  1.597 0.137 -1.841
v  1.597 0.171 -1.807
v  0.862 0.171 -1.807
v  0.862 0.033 -0.427
v  1.597 0.033 -0.427
v  1.597 0.080 -0.427
v  0.862 0.080 -0.427
v  0.862 0.035 -0.677
v  1.597 0.035 -0.677
v  1.597 0.083 -0.681
v  0.862 0.083 -0.681
# 180 vertices

vn -0.000 -0.718 -0.696
vn -0.000 -0.564 -0.826
vn 1.000 0.000 0.000
vn 1.000 0.000 -0.000
vn 0.000 0.718 0.696
vn 0.000 0.563 0.826
vn -1.000 0.000 0.000
vn -1.000 -0.000 0.000
vn 0.000 0.000 -1.000
vn -0.000 0.000 -1.000
vn 0.000 -0.000 1.000
vn 0.000 0.000 1.000
vn -1.000 0.000 -0.000
vn -0.000 0.707 -0.707
vn 0.000 0.707 -0.707
vn 1.000 -0.000 -0.000
vn 0.000 -0.708 0.706
vn 0.000 0.983 -0.183
vn 0.000 -0.984 0.179
vn 0.000 1.000 0.012
vn 0.000 1.000 -0.004
vn 1.000 -0.000 0.000
vn -0.000 -1.000 -0.008
vn -0.000 -1.000 0.005
vn 0.000 -1.000 -0.008
vn -0.000 1.000 -0.015
vn 0.000 1.000 -0.015
vn -0.000 -1.000 0.022
vn -0.000 1.000 -0.004
vn -0.000 -1.000 0.024
vn -0.000 1.000 -0.008
vn -0.000 -1.000 0.000
vn 0.000 1.000 -0.010
vn -0.000 1.000 -0.010
vn 0.000 -1.000 -0.006
vn 0.000 1.000 0.017
vn 0.000 -1.000 -0.015
vn -0.000 1.000 0.011
vn 0.000 -1.000 -0.017
vn 0.000 -1.000 0.002
vn 0.000 -1.000 0.005
vn -0.000 1.000 0.006
vn 0.000 -1.000 -0.001
vn -0.000 -1.000 -0.001
vn -0.000 1.000 0.007
vn 0.000 -1.000 0.000
vn -0.000 1.000 -0.001
vn 0.000 -1.000 -0.007
vn -1.000 -0.000 -0.000
vn 0.000 1.000 -0.009
vn -0.000 1.000 -0.009
vn 0.000 -1.000 0.015
vn 0.000 1.000 -0.002
vn 0.000 -1.000 0.011
vn -0.000 1.000 0.009
vn 0.000 -1.000 -0.014
vn 0.000 1.000 0.001
vn -0.000 1.000 0.001
vn 0.000 0.981 0.193
vn 0.000 -0.980 -0.200
vn 0.000 0.707 0.707
vn 0.000 -0.707 -0.707
vn 0.000 -0.000 -1.000
vn -0.000 -0.626 0.780
vn 0.000 -0.626 0.780
vn 0.000 0.612 -0.790
vn 0.000 -0.830 0.557
vn -0.000 -0.830 0.557
vn 0.000 0.822 -0.570
vn 0.000 -0.855 0.519
vn 0.000 0.860 -0.510
vn 0.000 -1.000 0.013
vn -0.000 -1.000 0.008
vn 0.000 -1.000 0.008
vn 0.000 1.000 -0.018
vn -0.000 1.000 -0.018
vn -0.000 -1.000 -0.013
vn -0.000 -1.000 -0.009
vn 0.000 1.000 0.006
vn -0.000 -1.000 0.016
vn 0.000 1.000 -0.008
vn 0.000 -0.897 0.442
vn -0.000 0.902 -0.433
vn 0.000 0.902 -0.433
vn 0.000 -0.977 0.212
vn -0.000 0.977 -0.211
vn 0.000 -1.000 0.007
vn -0.000 -1.000 0.001
vn 0.000 -1.000 0.001
vn -0.000 1.000 -0.007
vn 0.000 1.000 -0.001
vn -0.000 -1.000 -0.002
vn 0.000 1.000 0.010
vn 0.000 -1.000 -0.002
vn -0.000 1.000 0.002
vn 0.000 1.000 0.002
vn -0.000 1.000 -0.014
vn -0.000 0.981 0.195
vn 0.000 -0.834 -0.552
vn 0.000 0.837 0.547
vn -0.000 0.837 0.547
vn 0.000 1.000 0.009
vn 0.000 -1.000 -0.003
vn -0.000 -1.000 -0.003
# 104 vertex normals

vt 0.722 0.331 0.500
vt 0.722 0.664 0.500
vt 0.103 0.664 0.500
vt 0.103 0.331 0.500
vt 0.077 0.329 0.500
vt 0.077 0.662 0.500
vt 0.021 0.661 0.433
vt 0.021 0.327 0.433
vt 0.828 0.329 0.433
vt 0.828 0.662 0.433
vt 0.984 0.662 0.433
vt 0.984 0.329 0.433
vt 0.805 0.328 0.433
vt 0.805 0.661 0.433
vt 0.746 0.662 0.500
vt 0.746 0.329 0.500
vt 0.722 0.997 0.500
vt 0.103 0.997 0.500
vt 0.077 0.996 0.500
vt 0.021 0.995 0.433
vt 0.828 0.996 0.433
vt 0.984 0.996 0.433
vt 0.805 0.995 0.433
vt 0.746 0.996 0.500
vt 0.722 1.330 0.500
vt 0.103 1.330 0.500
vt 0.077 1.329 0.500
vt 0.021 1.328 0.433
vt 0.828 1.330 0.433
vt 0.984 1.330 0.433
vt 0.805 1.329 0.433
vt 0.746 1.329 0.500
vt 0.722 1.663 0.500
vt 0.103 1.663 0.500
vt 0.077 1.662 0.500
vt 0.021 1.662 0.433
vt 0.828 1.664 0.433
vt 0.984 1.664 0.433
vt 0.805 1.662 0.433
vt 0.746 1.663 0.500
vt 0.722 -0.669 0.500
vt 0.721 -0.338 0.500
vt 0.102 -0.338 0.500
vt 0.103 -0.669 0.500
vt 0.078 -0.669 0.500
vt 0.077 -0.342 0.500
vt 0.021 -0.340 0.433
vt 0.023 -0.669 0.433
vt 0.828 -0.673 0.433
vt 0.828 -0.339 0.433
vt 0.984 -0.339 0.433
vt 0.984 -0.673 0.433
vt 0.802 -0.670 0.433
vt 0.797 -0.322 0.438
vt 0.746 -0.341 0.500
vt 0.746 -0.670 0.500
vt 0.718 -0.340 0.500
vt 0.721 -0.003 0.500
vt 0.102 -0.003 0.500
vt 0.077 -0.005 0.500
vt 0.021 -0.007 0.433
vt 0.828 -0.005 0.433
vt 0.984 -0.005 0.433
vt 0.805 -0.340 0.433
vt 0.805 -0.006 0.433
vt 0.746 -0.004 0.500
vt 0.722 1.996 0.500
vt 0.103 1.996 0.500
vt 0.077 1.996 0.500
vt 0.021 1.996 0.433
vt 0.828 1.998 0.433
vt 0.984 1.998 0.433
vt 0.805 1.996 0.433
vt 0.746 1.996 0.500
vt 0.722 -0.672 0.500
vt 0.106 -0.670 0.500
vt 0.798 -0.322 0.438
vt 0.747 -0.677 0.495
vt 0.744 -0.673 0.499
vt 0.802 -0.351 0.433
# 80 texture coords

g track_r
usemtl Material__140
s 2
f 1/1/1 2/2/2 3/3/2 4/4/1 
s 4
f 4/5/3 3/6/4 5/7/4 6/8/3 
s 2
f 6/9/5 5/10/6 7/11/6 8/12/5 
s 4
f 8/13/7 7/14/8 2/15/8 1/16/7 
s 2
f 2/2/2 9/17/9 10/18/10 3/3/2 
s 4
f 3/6/4 10/19/4 11/20/4 5/7/4 
s 2
f 5/10/6 11/21/11 12/22/12 7/11/6 
s 4
f 7/14/8 12/23/8 9/24/13 2/15/8 
s 2
f 9/17/9 13/25/14 14/26/15 10/18/10 
s 4
f 10/19/4 14/27/16 15/28/16 11/20/4 
s 2
f 11/21/11 15/29/17 16/30/17 12/22/12 
s 4
f 12/23/8 16/31/8 13/32/8 9/24/13 
s 2
f 13/25/14 17/33/18 18/34/18 14/26/15 
s 4
f 14/27/16 18/35/16 19/36/16 15/28/16 
s 2
f 15/29/17 19/37/19 20/38/19 16/30/17 
s 4
f 16/31/8 20/39/7 17/40/8 13/32/8 
s 2
f 21/41/20 22/42/21 23/43/21 24/44/20 
s 4
f 24/45/4 23/46/22 25/47/3 26/48/4 
s 2
f 26/49/23 25/50/24 27/51/24 28/52/25 
s 4
f 28/53/8 27/54/8 22/55/13 21/56/8 
s 2
f 22/57/21 29/58/26 30/59/27 23/43/21 
s 4
f 23/46/22 30/60/3 31/61/22 25/47/3 
s 2
f 25/50/24 31/62/28 32/63/28 27/51/24 
s 4
f 27/64/8 32/65/8 29/66/8 22/55/13 
s 2
f 29/58/26 33/1/29 34/4/29 30/59/27 
s 4
f 30/60/3 34/5/22 35/8/22 31/61/22 
s 2
f 31/62/28 35/9/30 36/12/30 32/63/28 
s 4
f 32/65/8 36/13/13 33/16/13 29/66/8 
s 2
f 33/1/29 37/2/31 38/3/31 34/4/29 
s 4
f 34/5/22 38/6/3 39/7/3 35/8/22 
s 2
f 35/9/30 39/10/32 40/11/32 36/12/30 
s 4
f 36/13/13 40/14/8 37/15/8 33/16/13 
s 2
f 37/2/31 41/17/33 42/18/34 38/3/31 
s 4
f 38/6/3 42/19/16 43/20/16 39/7/3 
s 2
f 39/10/32 43/21/35 44/22/35 40/11/32 
s 4
f 40/14/8 44/23/7 41/24/8 37/15/8 
s 2
f 41/17/33 45/25/36 46/26/36 42/18/34 
s 4
f 42/19/16 46/27/16 47/28/16 43/20/16 
s 2
f 43/21/35 47/29/37 48/30/37 44/22/35 
s 4
f 44/23/7 48/31/7 45/32/7 41/24/8 
s 2
f 45/25/36 49/33/38 50/34/38 46/26/36 
s 4
f 46/27/16 50/35/4 51/36/16 47/28/16 
s 2
f 47/29/37 51/37/39 52/38/39 48/30/37 
s 4
f 48/31/7 52/39/7 49/40/7 45/32/7 
s 2
f 17/33/18 21/67/20 24/68/20 18/34/18 
s 4
f 18/35/16 24/69/4 26/70/4 19/36/16 
s 2
f 19/37/19 26/71/23 28/72/25 20/38/19 
s 4
f 20/39/7 28/73/8 21/74/8 17/40/8 
s 2
f 53/75/21 54/57/29 55/43/29 56/76/21 
s 4
f 56/45/4 55/46/3 57/47/22 58/48/4 
s 2
f 58/49/40 57/50/41 59/51/24 60/52/40 
s 4
f 60/53/8 59/77/8 54/55/8 53/56/8 
s 2
f 54/57/29 61/58/42 62/59/42 55/43/29 
s 4
f 55/46/3 62/60/3 63/61/3 57/47/22 
s 2
f 57/50/41 63/62/43 64/63/44 59/51/24 
s 4
f 59/64/8 64/65/13 61/66/13 54/55/8 
s 2
f 61/58/42 65/1/45 66/4/45 62/59/42 
s 4
f 62/60/3 66/5/4 67/8/3 63/61/3 
s 2
f 63/62/43 67/9/46 68/12/32 64/63/44 
s 4
f 64/65/13 68/13/13 65/16/13 61/66/13 
s 2
f 65/1/45 69/2/47 70/3/47 66/4/45 
s 4
f 66/5/4 70/6/4 71/7/4 67/8/3 
s 2
f 67/9/46 71/10/48 72/11/48 68/12/32 
s 4
f 68/13/13 72/14/49 69/15/49 65/16/13 
s 2
f 69/2/47 73/17/50 74/18/51 70/3/47 
s 4
f 70/6/4 74/19/16 75/20/16 71/7/4 
s 2
f 71/10/48 75/21/52 76/22/52 72/11/48 
s 4
f 72/14/49 76/23/8 73/24/8 69/15/49 
s 2
f 73/17/50 77/25/53 78/26/53 74/18/51 
s 4
f 74/19/16 78/27/22 79/28/4 75/20/16 
s 2
f 75/21/52 79/29/54 80/30/54 76/22/52 
s 4
f 76/23/8 80/31/13 77/32/7 73/24/8 
s 2
f 77/25/53 81/33/55 82/34/55 78/26/53 
s 4
f 78/27/22 82/35/22 83/36/22 79/28/4 
s 2
f 79/29/54 83/37/56 84/38/56 80/30/54 
s 4
f 80/31/13 84/39/7 81/40/13 77/32/7 
s 2
f 49/33/38 53/67/21 56/68/21 50/34/38 
s 4
f 50/35/4 56/69/4 58/70/4 51/36/16 
s 2
f 51/37/39 58/71/40 60/72/40 52/38/39 
s 4
f 52/39/7 60/73/8 53/74/8 49/40/7 
s 2
f 81/33/55 85/67/57 86/68/58 82/34/55 
s 4
f 82/35/22 86/69/3 87/70/3 83/36/22 
s 2
f 83/37/56 87/71/56 88/72/56 84/38/56 
s 4
f 84/39/7 88/73/13 85/74/13 81/40/13 
s 2
f 85/75/57 89/57/59 90/43/59 86/76/58 
s 4
f 86/45/3 90/46/4 91/47/4 87/48/3 
s 2
f 87/49/56 91/50/60 92/51/60 88/52/56 
s 4
f 88/53/13 92/64/7 89/55/7 85/78/13 
s 2
f 89/57/59 93/58/61 94/59/61 90/43/59 
s 4
f 90/46/4 94/60/4 95/61/4 91/47/4 
s 2
f 91/50/60 95/62/62 96/63/62 92/51/60 
s 4
f 92/64/7 96/65/7 93/66/7 89/55/7 
s 2
f 93/58/61 97/1/11 98/4/12 94/59/61 
s 4
f 94/60/4 98/5/4 99/8/4 95/61/4 
s 2
f 95/62/62 99/9/9 100/12/63 96/63/62 
s 4
f 96/65/7 100/13/8 97/16/8 93/66/7 
s 2
f 97/1/11 101/2/64 102/3/65 98/4/12 
s 4
f 98/5/4 102/6/16 103/7/16 99/8/4 
s 2
f 99/9/9 103/10/66 104/11/66 100/12/63 
s 4
f 100/13/8 104/14/8 101/15/8 97/16/8 
s 2
f 101/2/64 105/17/67 106/18/68 102/3/65 
s 4
f 102/6/16 106/19/3 107/20/3 103/7/16 
s 2
f 103/10/66 107/21/69 108/22/69 104/11/66 
s 4
f 104/14/8 108/23/49 105/24/49 101/15/8 
s 2
f 105/17/67 109/25/70 110/26/70 106/18/68 
s 4
f 106/19/3 110/27/3 111/28/3 107/20/3 
s 2
f 107/21/69 111/29/71 112/30/71 108/22/69 
s 4
f 108/23/49 112/31/49 109/32/49 105/24/49 
s 2
f 113/33/72 114/67/73 115/68/74 116/34/72 
s 4
f 116/35/3 115/69/16 117/70/4 118/36/3 
s 2
f 118/37/75 117/71/33 119/72/33 120/38/76 
s 4
f 120/39/7 119/73/7 114/74/7 113/40/7 
s 2
f 114/41/73 121/42/77 122/43/77 115/44/74 
s 4
f 115/45/16 122/46/16 123/47/16 117/48/4 
s 2
f 117/49/33 123/50/20 124/51/20 119/52/33 
s 4
f 119/53/7 124/64/13 121/55/13 114/79/7 
s 2
f 121/57/77 125/58/78 126/59/78 122/43/77 
s 4
f 122/46/16 126/60/3 127/61/22 123/47/16 
s 2
f 123/50/20 127/62/79 128/63/79 124/51/20 
s 4
f 124/64/13 128/65/8 125/66/8 121/55/13 
s 2
f 125/58/78 129/1/80 130/4/80 126/59/78 
s 4
f 126/60/3 130/5/4 131/8/4 127/61/22 
s 2
f 127/62/79 131/9/81 132/12/81 128/63/79 
s 4
f 128/65/8 132/13/7 129/16/7 125/66/8 
s 2
f 109/2/70 133/17/82 134/18/82 110/3/70 
s 4
f 110/6/3 134/19/4 135/20/4 111/7/3 
s 2
f 111/10/71 135/21/83 136/22/84 112/11/71 
s 4
f 112/14/49 136/23/7 133/24/49 109/15/49 
s 2
f 133/17/82 137/25/85 138/26/85 134/18/82 
s 4
f 134/19/4 138/27/4 139/28/4 135/20/4 
s 2
f 135/21/83 139/29/86 140/30/86 136/22/84 
s 4
f 136/23/7 140/31/7 137/32/7 133/24/49 
s 2
f 137/25/85 113/33/72 116/34/72 138/26/85 
s 4
f 138/27/4 116/35/3 118/36/3 139/28/4 
s 2
f 139/29/86 118/37/75 120/38/76 140/30/86 
s 4
f 140/31/7 120/39/7 113/40/7 137/32/7 
s 2
f 141/33/87 142/67/88 143/68/89 144/34/87 
s 4
f 144/35/4 143/69/4 145/70/4 146/36/4 
s 2
f 146/37/90 145/71/91 147/72/47 148/38/90 
s 4
f 148/39/8 147/73/7 142/74/7 141/40/8 
s 2
f 129/2/80 149/17/92 150/18/92 130/3/80 
s 4
f 130/6/4 150/19/4 151/20/4 131/7/4 
s 2
f 131/10/81 151/21/93 152/22/93 132/11/81 
s 4
f 132/14/7 152/23/13 149/24/13 129/15/7 
s 2
f 149/17/92 153/25/94 154/26/92 150/18/92 
s 4
f 150/19/4 154/27/4 155/28/4 151/20/4 
s 2
f 151/21/93 155/29/95 156/30/96 152/22/93 
s 4
f 152/23/13 156/31/13 153/32/13 149/24/13 
s 2
f 153/25/94 141/33/87 144/34/87 154/26/92 
s 4
f 154/27/4 144/35/4 146/36/4 155/28/4 
s 2
f 155/29/95 146/37/90 148/38/90 156/30/96 
s 4
f 156/31/13 148/39/8 141/40/8 153/32/13 
s 2
f 157/33/72 158/67/87 159/68/87 160/34/72 
s 4
f 160/35/4 159/69/4 161/70/4 162/36/4 
s 2
f 162/37/97 161/71/31 163/72/31 164/38/97 
s 4
f 164/39/8 163/73/13 158/74/49 157/40/8 
s 2
f 158/41/87 165/42/60 166/43/60 159/44/87 
s 4
f 159/45/4 166/46/4 167/47/4 161/48/4 
s 2
f 161/49/31 167/50/98 168/51/98 163/52/31 
s 4
f 163/53/13 168/80/7 165/55/7 158/56/49 
s 2
f 165/57/60 169/58/99 170/59/99 166/43/60 
s 4
f 166/46/4 170/60/4 171/61/4 167/47/4 
s 2
f 167/50/98 171/62/100 172/63/101 168/51/98 
s 4
f 168/64/7 172/65/7 169/66/7 165/55/7 
s 2
f 169/58/99 1/1/1 4/4/1 170/59/99 
s 4
f 170/60/4 4/5/3 6/8/3 171/61/4 
s 2
f 171/62/100 6/9/5 8/12/5 172/63/101 
s 4
f 172/65/7 8/13/7 1/16/7 169/66/7 
s 2
f 142/2/88 173/17/23 174/18/23 143/3/89 
s 4
f 143/6/4 174/19/4 175/20/4 145/7/4 
s 2
f 145/10/91 175/21/102 176/22/102 147/11/47 
s 4
f 147/14/7 176/23/13 173/24/13 142/15/7 
s 2
f 173/17/23 177/25/103 178/26/104 174/18/23 
s 4
f 174/19/4 178/27/4 179/28/4 175/20/4 
s 2
f 175/21/102 179/29/95 180/30/96 176/22/102 
s 4
f 176/23/13 180/31/49 177/32/13 173/24/13 
s 2
f 177/25/103 157/33/72 160/34/72 178/26/104 
s 4
f 178/27/4 160/35/4 162/36/4 179/28/4 
s 2
f 179/29/95 162/37/97 164/38/97 180/30/96 
s 4
f 180/31/49 164/39/8 157/40/8 177/32/13 
# 180 polygons

