# 3ds Max Wavefront OBJ Exporter v0.97b - (c)2007 guruware
# File Created: 15.02.2017 00:34:47

#
# object cannon
#

v  0.0063 2.4337 -0.2567
v  0.0990 2.2731 -0.2567
v  0.1917 2.4337 -0.2567
v  -0.0864 2.2731 -0.2567
v  -0.1791 2.4337 -0.2567
v  -0.0864 2.5942 -0.2567
v  0.0990 2.5942 -0.2567
v  0.0979 2.2750 -1.0679
v  0.1895 2.4337 -1.0679
v  -0.0853 2.2750 -1.0679
v  -0.1769 2.4337 -1.0679
v  -0.0853 2.5923 -1.0679
v  0.0979 2.5923 -1.0679
v  0.0787 2.3082 -1.1024
v  0.1512 2.4337 -1.1024
v  -0.0661 2.3082 -1.1024
v  -0.1385 2.4337 -1.1024
v  -0.0661 2.5591 -1.1024
v  0.0787 2.5591 -1.1024
v  0.0578 2.3445 -3.4325
v  0.1093 2.4337 -3.4325
v  -0.0452 2.3445 -3.4325
v  -0.0966 2.4337 -3.4325
v  -0.0452 2.5228 -3.4325
v  0.0578 2.5228 -3.4325
v  0.0509 2.3564 -5.0002
v  0.0955 2.4337 -5.0002
v  -0.0383 2.3564 -5.0002
v  -0.0829 2.4337 -5.0002
v  -0.0383 2.5109 -5.0002
v  0.0509 2.5109 -5.0002
v  0.0395 2.3762 -5.0002
v  0.0727 2.4337 -5.0002
v  -0.0269 2.3762 -5.0002
v  -0.0601 2.4337 -5.0002
v  -0.0269 2.4911 -5.0002
v  0.0395 2.4911 -5.0002
v  0.0063 2.4337 -0.7002
v  0.0727 2.4337 -0.7002
v  0.0395 2.3762 -0.7002
v  -0.0269 2.3762 -0.7002
v  -0.0601 2.4337 -0.7002
v  -0.0269 2.4911 -0.7002
v  0.0395 2.4911 -0.7002
v  0.2693 2.4324 -0.6004
v  0.2693 2.7025 -0.5528
v  0.2693 2.5262 -0.3427
v  0.2323 2.6087 -0.8105
v  0.2323 2.3386 -0.8581
v  0.2693 2.1623 -0.6480
v  0.2693 2.2561 -0.3903
v  0.2715 2.7854 -0.5361
v  0.2693 2.5540 -0.2662
v  0.5208 2.6704 -0.5765
v  0.5054 2.6356 -0.8554
v  0.5253 2.7424 -0.5619
v  0.5010 2.5888 -0.8006
v  0.4683 2.3280 -0.9096
v  0.4642 2.3539 -0.8420
v  0.4519 2.1273 -0.6703
v  0.4481 2.2006 -0.6593
v  0.2693 2.2038 -0.3279
v  0.2715 2.0781 -0.6608
v  -0.2659 2.7854 -0.5361
v  -0.2629 2.5540 -0.2662
v  -0.2285 2.6626 -0.8735
v  0.2341 2.6626 -0.8735
v  -0.2285 2.3089 -0.9359
v  0.2341 2.3089 -0.9359
v  -0.2659 2.0781 -0.6608
v  -0.2629 2.2038 -0.3279
v  -0.2629 2.7025 -0.5528
v  -0.2629 2.5262 -0.3427
v  -0.5197 2.7424 -0.5619
v  -0.4945 2.5888 -0.8006
v  -0.5143 2.6704 -0.5765
v  -0.4998 2.6356 -0.8554
v  -0.4578 2.3539 -0.8420
v  -0.4627 2.3280 -0.9096
v  -0.4416 2.2006 -0.6593
v  -0.4416 2.1308 -0.6716
v  -0.2629 2.2561 -0.3903
v  -0.2629 2.1623 -0.6480
v  -0.2629 2.4324 -0.6004
v  -0.2259 2.6087 -0.8105
v  -0.2259 2.3386 -0.8581
# 86 vertices

vn -0.0000 -0.0000 1.0000
vn -0.0000 0.0000 1.0000
vn 1.0000 0.0000 -0.0028
vn 0.5000 -0.8660 -0.0028
vn -0.5000 -0.8660 -0.0028
vn -1.0000 0.0000 -0.0028
vn -0.5000 0.8660 -0.0028
vn 0.5000 0.8660 -0.0028
vn 0.6688 0.0000 -0.7434
vn 0.3344 -0.5792 -0.7434
vn -0.3344 -0.5792 -0.7434
vn -0.6688 0.0000 -0.7434
vn -0.3344 0.5792 -0.7434
vn 0.3344 0.5792 -0.7434
vn 0.9998 0.0000 -0.0180
vn 0.5000 -0.8659 -0.0134
vn 0.9999 -0.0000 -0.0134
vn 0.4999 -0.8659 -0.0180
vn -0.5000 -0.8659 -0.0134
vn -0.4999 -0.8659 -0.0180
vn -0.9999 0.0000 -0.0134
vn -0.9998 0.0000 -0.0180
vn -0.5000 0.8659 -0.0134
vn -0.4999 0.8659 -0.0180
vn 0.5000 0.8659 -0.0134
vn 0.4999 0.8659 -0.0180
vn 0.5000 -0.8660 -0.0088
vn 1.0000 0.0000 -0.0088
vn -0.5000 -0.8660 -0.0088
vn -1.0000 -0.0000 -0.0088
vn -0.5000 0.8660 -0.0088
vn 0.5000 0.8660 -0.0088
vn 0.0000 0.0000 -1.0000
vn -0.8660 0.5000 -0.0000
vn 0.0000 1.0000 0.0000
vn 0.8660 0.5000 0.0000
vn 0.8660 -0.5000 0.0000
vn 0.0000 -1.0000 -0.0000
vn -0.8660 -0.5000 -0.0000
vn 0.9970 0.0134 -0.0761
vn 0.9989 -0.0042 -0.0476
vn 1.0000 -0.0027 0.0000
vn 0.9881 0.0267 -0.1517
vn 0.9990 0.0183 -0.0399
vn 1.0000 0.0000 0.0000
vn 0.9997 -0.0188 -0.0142
vn 1.0000 -0.0033 0.0012
vn 0.9969 -0.0624 -0.0471
vn 0.9926 -0.1177 -0.0300
vn 0.9974 -0.0535 -0.0483
vn 0.9913 -0.1296 -0.0210
vn 0.9933 -0.0846 0.0786
vn 0.9913 -0.0894 0.0971
vn 0.9941 0.0256 0.1051
vn 0.9925 0.0348 0.1170
vn 1.0000 0.0029 -0.0004
vn 0.9997 0.0259 -0.0034
vn -0.0000 0.7593 0.6508
vn 0.0619 0.9357 -0.3474
vn -0.0556 0.6424 -0.7643
vn -0.0609 0.9362 -0.3461
vn 0.0549 0.6439 -0.7632
vn -0.0671 -0.3471 -0.9354
vn 0.0610 -0.3450 -0.9366
vn -0.0909 -0.7568 -0.6473
vn 0.0787 -0.7635 -0.6410
vn -0.0000 -0.9355 0.3532
vn -0.0000 -0.1736 0.9848
vn -1.0000 -0.0036 -0.0019
vn -0.9989 -0.0078 -0.0459
vn -1.0000 0.0000 -0.0000
vn -0.9993 -0.0328 -0.0170
vn -0.9955 -0.0776 -0.0551
vn -0.9901 -0.1374 -0.0283
vn -0.9959 -0.0620 -0.0652
vn -0.9901 -0.1402 -0.0090
vn -0.9926 -0.0777 0.0931
vn -0.9919 -0.0768 0.1011
vn -0.9969 -0.0135 0.0770
vn -0.9969 -0.0136 0.0770
vn -0.9995 0.0314 -0.0096
vn -1.0000 0.0036 0.0013
vn -0.9987 0.0256 -0.0452
vn -1.0000 0.0037 0.0031
vn -0.9970 0.0134 -0.0761
vn -0.9881 0.0267 -0.1517
vn -0.0840 -0.9332 0.3495
vn -0.0819 -0.9327 0.3512
vn -0.0841 -0.9332 0.3494
vn -0.0865 -0.9337 0.3475
vn -0.0525 -0.1696 0.9841
vn -0.0567 -0.1734 0.9832
vn -0.0526 -0.1698 0.9841
vn -0.0485 -0.1661 0.9849
vn -0.1051 0.7598 0.6416
vn -0.1195 0.7501 0.6505
vn -0.1086 0.7575 0.6437
vn -0.0946 0.7667 0.6350
vn 0.0665 -0.1989 0.9778
vn 0.0669 -0.1983 0.9779
vn 0.0655 -0.2011 0.9774
vn 0.0651 -0.2018 0.9773
vn 0.1191 0.9294 -0.3494
vn 0.1180 0.6501 -0.7506
vn 0.1372 -0.3020 -0.9434
vn 0.1741 -0.7602 -0.6260
vn 0.0924 -0.1465 0.9849
vn 0.0922 -0.1474 0.9848
vn 0.0928 -0.1446 0.9851
vn 0.0930 -0.1437 0.9852
vn -0.1163 0.6469 -0.7536
vn -0.1221 0.9300 -0.3468
vn -0.1271 -0.3058 -0.9436
vn -0.1651 -0.7511 -0.6392
vn -0.0658 -0.1995 0.9777
vn -0.0657 -0.1989 0.9778
vn -0.0661 -0.2019 0.9772
vn -0.0662 -0.2026 0.9770
vn 0.0840 -0.9332 0.3495
vn 0.0859 -0.9322 0.3516
vn 0.0839 -0.9332 0.3495
vn 0.0819 -0.9342 0.3472
vn 0.0528 -0.1694 0.9841
vn 0.0490 -0.1734 0.9836
vn 0.0527 -0.1696 0.9841
vn 0.0574 -0.1646 0.9847
vn 0.1095 0.7600 0.6406
vn 0.0948 0.7543 0.6496
vn 0.1056 0.7585 0.6430
vn 0.1240 0.7655 0.6314
vn -0.0980 -0.1528 0.9834
vn -0.0936 -0.1464 0.9848
vn -0.1065 -0.1649 0.9805
vn -0.1119 -0.1726 0.9786
# 134 vertex normals

vt -0.9501 0.9406 0.5000
vt -0.8862 0.9333 0.5523
vt -0.8862 0.9405 0.4940
vt -0.9501 0.9334 0.5590
vt -0.8862 0.9272 0.5523
vt -0.9501 0.9273 0.5590
vt -0.8862 0.9610 0.4940
vt -0.9501 0.9201 0.5000
vt -0.8862 0.9538 0.5523
vt -0.9501 0.9538 0.5590
vt -0.8862 0.9478 0.5523
vt -0.9501 0.9478 0.5590
vt -0.8386 -0.1948 0.0000
vt -0.8373 -0.1948 0.0000
vt -0.8361 -0.1948 0.0000
vt -0.8398 -0.1948 0.0000
vt -0.8410 -0.1948 0.0000
vt -0.7646 0.2993 0.0000
vt -0.8373 -0.1948 0.0000
vt -0.8766 0.9333 0.4367
vt -0.8766 0.9405 0.3906
vt -0.8766 0.9272 0.4367
vt -0.8766 0.9610 0.3906
vt -0.8766 0.9538 0.4367
vt -0.8766 0.9478 0.4367
vt -0.7539 0.3117 0.0000
vt -0.7432 0.2993 0.0000
vt -0.7753 0.3117 0.0000
vt -0.7641 0.2953 0.0000
vt -0.7405 0.2996 0.0000
vt -0.7559 0.3187 0.0000
vt -0.7487 0.2762 0.0000
vt -0.7723 0.2718 0.0000
vt -0.7878 0.2909 0.0000
vt -0.7795 0.3144 0.0000
vt -0.7949 0.3257 0.0000
vt -0.7332 0.3011 0.0000
vt -0.8374 -0.1794 0.0000
vt -0.8381 -0.1794 0.0000
vt -0.8377 -0.1794 0.0000
vt -0.8380 -0.1794 0.0000
vt -0.8390 -0.1794 0.0000
vt -0.8391 -0.1794 0.0000
vt -0.8394 -0.1794 0.0000
vt -0.8397 -0.1794 0.0000
vt -0.8390 -0.1794 0.0000
vt -0.8391 -0.1794 0.0000
vt -0.8381 -0.1794 0.0000
vt -0.8380 -0.1794 0.0000
vt -0.8386 -0.1933 0.0000
vt -0.8377 -0.1933 0.0000
vt -0.7332 0.3011 0.0000
vt -0.7535 0.3257 0.0000
vt -0.7335 0.3257 0.0000
vt 1.0248 0.7496 0.5000
vt 1.0411 0.7720 0.3973
vt 1.0241 0.7718 0.3553
vt 1.0418 0.7498 0.5590
vt 1.0381 0.7719 0.3973
vt 1.0388 0.7498 0.5590
vt 1.0344 0.7719 0.3553
vt 1.0351 0.7497 0.5000
vt 1.0308 0.7719 0.3973
vt -0.8381 -0.1933 0.0000
vt -0.8390 -0.1933 0.0000
vt -0.8394 -0.1933 0.0000
vt -0.7951 0.3011 0.0000
vt -0.8390 -0.1933 0.0000
vt -0.8381 -0.1933 0.0000
vt -0.8876 -0.2079 0.0000
vt -0.7535 0.3257 0.0000
vt -0.8896 -0.2057 0.0000
vt -0.7405 0.2996 0.0000
vt -0.8625 -0.2156 0.0000
vt -0.8814 -0.2158 0.0000
vt -0.8814 -0.2156 0.0000
vt -0.7559 0.3187 0.0000
vt -0.8625 -0.2158 0.0000
vt -0.7332 0.3011 0.0000
vt -0.8638 -0.2137 0.0000
vt -0.8801 -0.2135 0.0000
vt -0.8638 -0.2140 0.0000
vt -0.8638 -0.2138 0.0000
vt -0.8556 -0.2138 0.0000
vt -0.8814 -0.1999 0.0000
vt -0.8801 -0.2137 0.0000
vt -0.8638 -0.2135 0.0000
vt -0.8543 -0.2140 0.0000
vt -0.8625 -0.2149 0.0000
vt -0.8902 -0.2051 0.0000
vt -0.7951 0.2898 0.0000
vt -0.8625 -0.2148 0.0000
vt -0.8536 -0.2147 0.0000
vt -0.8536 -0.2148 0.0000
vt -0.8896 -0.2057 0.0000
vt -0.7795 0.3144 0.0000
vt -0.7878 0.2909 0.0000
vt -0.8625 -0.2145 0.0000
vt -0.8625 -0.2144 0.0000
vt -0.8638 -0.2106 0.0000
vt -0.7841 0.3200 0.0000
vt -0.8625 -0.1999 0.0000
vt -0.8801 -0.2027 0.0000
vt -0.8562 -0.2144 0.0000
vt -0.8562 -0.2145 0.0000
vt -0.8638 -0.2027 0.0000
vt -0.8879 -0.2009 0.0000
vt -0.8814 -0.2158 0.0000
vt -0.8814 -0.2148 0.0000
vt -0.8814 -0.2149 0.0000
vt -0.8903 -0.2148 0.0000
vt -0.8543 -0.2138 0.0000
vt -0.8903 -0.2147 0.0000
vt -0.8556 -0.2136 0.0000
vt -0.8801 -0.2138 0.0000
vt -0.8801 -0.2140 0.0000
vt -0.8638 -0.2100 0.0000
vt -0.8883 -0.2136 0.0000
vt -0.8896 -0.2140 0.0000
vt -0.8883 -0.2138 0.0000
vt -0.8814 -0.2144 0.0000
vt -0.8896 -0.2138 0.0000
vt -0.8814 -0.2145 0.0000
vt -0.8877 -0.2145 0.0000
vt -0.8877 -0.2144 0.0000
vt -0.8893 -0.2119 0.0000
vt -0.7641 0.2953 0.0000
vt -0.7841 0.3200 0.0000
vt -0.8878 -0.2025 0.0000
vt -0.8857 -0.2033 0.0000
vt -0.8879 -0.2009 0.0000
vt -0.8861 -0.2043 0.0000
vt -0.8853 -0.2102 0.0000
vt -0.8858 -0.2096 0.0000
vt -0.8871 -0.2147 0.0000
vt -0.8872 -0.2131 0.0000
vt -0.7951 0.2898 0.0000
vt -0.7487 0.2762 0.0000
vt -0.8861 -0.2043 0.0000
vt -0.8878 -0.2025 0.0000
vt -0.8857 -0.2033 0.0000
vt -0.8858 -0.2096 0.0000
vt -0.8853 -0.2102 0.0000
vt -0.8872 -0.2131 0.0000
vt -0.8871 -0.2147 0.0000
vt -0.7723 0.2718 0.0000
vt -0.8893 -0.2119 0.0000
vt 1.0315 0.7497 0.5590
vt -0.8897 -0.2130 0.0000
vt -0.8876 -0.2079 0.0000
vt 1.0278 0.7718 0.3973
vt 1.0285 0.7497 0.5590
vt -0.8625 -0.2140 0.0000
vt -0.8562 -0.2131 0.0000
vt -0.8556 -0.2096 0.0000
vt -0.8536 -0.2009 0.0000
vt -0.8543 -0.2033 0.0000
vt -0.8896 -0.2033 0.0000
vt -0.8903 -0.2009 0.0000
vt -0.8814 -0.2140 0.0000
vt -0.8801 -0.2100 0.0000
vt -0.8883 -0.2096 0.0000
vt -0.8877 -0.2131 0.0000
vt -0.8801 -0.2106 0.0000
vt -0.8625 -0.2158 0.0000
vt -0.8814 -0.2130 0.0000
vt -0.8625 -0.2130 0.0000
vt -0.8625 -0.2017 0.0000
vt -0.8638 -0.2039 0.0000
vt -0.8543 -0.2043 0.0000
vt -0.8536 -0.2025 0.0000
vt -0.8556 -0.2102 0.0000
vt -0.8562 -0.2147 0.0000
vt -0.8877 -0.2147 0.0000
vt -0.8883 -0.2102 0.0000
vt -0.8801 -0.2039 0.0000
vt -0.8814 -0.2017 0.0000
vt -0.8903 -0.2025 0.0000
vt -0.8896 -0.2043 0.0000
vt 1.0415 0.7900 0.3442
vt 1.0245 0.7898 0.3079
vt 1.0385 0.7900 0.3442
vt 1.0348 0.7899 0.3079
vt 1.0312 0.7899 0.3442
vt 1.0282 0.7899 0.3442
vt -0.8002 0.2105 0.0000
vt -0.7876 0.2105 0.0000
vt -0.7876 0.1345 0.0000
vt -0.8002 0.1345 0.0000
vt -0.7876 0.2105 0.0000
vt -0.8002 0.2105 0.0000
vt -0.8002 0.1345 0.0000
vt -0.7876 0.1345 0.0000
vt -0.8013 0.2105 0.0000
vt -0.7930 0.2105 0.0000
vt -0.7930 0.1345 0.0000
vt -0.8013 0.1345 0.0000
vt -0.7847 0.2105 0.0000
vt -0.7847 0.1345 0.0000
vt -0.7930 0.2105 0.0000
vt -0.8013 0.2105 0.0000
vt -0.8013 0.1345 0.0000
vt -0.7930 0.1345 0.0000
vt -0.7847 0.2105 0.0000
vt -0.7847 0.1345 0.0000
vt -0.8862 0.9201 0.4940
vt -0.8862 0.9201 0.4940
vt -0.8862 0.9129 0.5523
vt -0.8862 0.9201 0.4940
vt -0.9501 0.9129 0.5590
vt -0.8862 0.9129 0.5523
vt -0.8766 0.9200 0.3906
vt -0.8862 0.9200 0.4940
vt -0.8766 0.9200 0.3906
vt 1.0454 0.7498 0.5000
vt 1.0447 0.7720 0.3553
vt 1.0454 0.7498 0.5000
vt 1.0447 0.7720 0.3553
vt 1.0451 0.7900 0.3079
vt 1.0447 0.7720 0.3553
# 220 texture coords

g cannon
s 1
f 1/13/1 2/14/1 3/15/1 
f 1/13/1 4/16/1 2/14/1 
f 1/13/1 5/17/1 4/16/1 
f 1/18/1 6/26/2 5/27/1 
f 1/18/1 7/28/1 6/26/2 
f 1/13/1 3/15/1 7/19/1 
s 2
f 3/1/3 8/2/4 9/3/3 
f 3/1/3 2/4/4 8/2/4 
f 2/4/4 10/5/5 8/2/4 
f 2/4/4 4/6/5 10/5/5 
f 4/6/5 11/206/6 10/5/5 
f 4/6/5 5/8/6 11/207/6 
f 5/8/6 12/208/7 11/209/6 
f 5/8/6 6/210/7 12/211/7 
f 6/10/7 13/11/8 12/9/7 
f 6/10/7 7/12/8 13/11/8 
f 7/12/8 9/3/3 13/11/8 
f 7/12/8 3/1/3 9/3/3 
s 16
f 9/3/9 14/20/10 15/21/9 
f 9/3/9 8/2/10 14/20/10 
f 8/2/10 16/22/11 14/20/10 
f 8/2/10 10/5/11 16/22/11 
f 10/5/11 17/212/12 16/22/11 
f 10/5/11 11/213/12 17/214/12 
f 11/7/12 18/24/13 17/23/12 
f 11/7/12 12/9/13 18/24/13 
f 12/9/13 19/25/14 18/24/13 
f 12/9/13 13/11/14 19/25/14 
f 13/11/14 15/21/9 19/25/14 
f 13/11/14 9/3/9 15/21/9 
s 2
f 15/215/15 20/56/16 21/216/17 
f 15/217/15 14/58/18 20/56/16 
f 14/58/18 22/59/19 20/56/16 
f 14/58/18 16/60/20 22/59/19 
f 16/60/20 23/61/21 22/59/19 
f 16/60/20 17/62/22 23/61/21 
f 17/62/22 24/63/23 23/61/21 
f 17/62/22 18/148/24 24/63/23 
f 18/148/24 25/151/25 24/63/23 
f 18/148/24 19/152/26 25/151/25 
f 19/152/26 21/57/17 25/151/25 
f 19/152/26 15/55/15 21/57/17 
f 21/218/17 26/180/27 27/219/28 
f 21/220/17 20/56/16 26/180/27 
f 20/56/16 28/182/29 26/180/27 
f 20/56/16 22/59/19 28/182/29 
f 22/59/19 29/183/30 28/182/29 
f 22/59/19 23/61/21 29/183/30 
f 23/61/21 30/184/31 29/183/30 
f 23/61/21 24/63/23 30/184/31 
f 24/63/23 31/185/32 30/184/31 
f 24/63/23 25/151/25 31/185/32 
f 25/151/25 27/181/28 31/185/32 
f 25/151/25 21/57/17 27/181/28 
s 1
f 27/38/33 32/39/33 33/40/33 
f 27/38/33 26/41/33 32/39/33 
f 26/41/33 34/42/33 32/39/33 
f 26/41/33 28/43/33 34/42/33 
f 28/43/33 35/44/33 34/42/33 
f 28/43/33 29/45/33 35/44/33 
f 29/45/33 36/46/33 35/44/33 
f 29/45/33 30/47/33 36/46/33 
f 30/47/33 37/48/33 36/46/33 
f 30/47/33 31/49/33 37/48/33 
f 31/49/33 33/40/33 37/48/33 
f 31/49/33 27/38/33 33/40/33 
f 38/50/33 39/51/33 40/64/33 
f 38/50/33 40/64/33 41/65/33 
f 38/50/33 41/65/33 42/66/33 
f 38/50/33 42/66/33 43/68/33 
f 38/50/33 43/68/33 44/69/33 
f 38/50/33 44/69/33 39/51/33 
s 2
f 33/200/34 32/201/34 40/202/34 
f 40/202/34 39/203/34 33/200/34 
s 4
f 32/186/35 34/187/35 41/188/35 
f 41/188/35 40/189/35 32/186/35 
s 2
f 34/194/36 35/195/36 42/196/36 
f 42/196/36 41/197/36 34/194/36 
s 4
f 35/195/37 36/198/37 43/199/37 
f 43/199/37 42/196/37 35/195/37 
s 2
f 36/190/38 37/191/38 44/192/38 
f 44/192/38 43/193/38 36/190/38 
s 4
f 37/204/39 33/200/39 39/203/39 
f 39/203/39 44/205/39 37/204/39 
s 1
f 45/29/40 46/30/41 47/31/42 
f 45/29/40 48/32/43 46/30/41 
f 45/29/40 49/33/43 48/32/43 
f 45/29/40 50/34/44 49/33/43 
f 45/29/40 51/35/45 50/34/44 
f 45/70/40 47/72/42 51/126/45 
f 47/31/42 52/52/46 53/53/47 
f 47/31/42 46/30/41 52/52/46 
f 54/129/48 55/130/49 56/131/50 
f 54/129/48 57/132/51 55/130/49 
f 57/132/51 58/133/52 55/130/49 
f 57/132/51 59/134/53 58/133/52 
f 59/134/53 60/135/54 58/133/52 
f 59/134/53 61/136/55 60/135/54 
f 50/34/44 62/128/56 63/137/57 
f 50/34/44 51/35/45 62/128/56 
f 51/35/45 53/53/47 62/128/56 
f 51/35/45 47/31/42 53/53/47 
s 2
f 53/36/58 64/37/58 65/54/58 
f 53/36/58 52/67/58 64/37/58 
s 2147483648
f 52/102/59 66/103/60 64/85/61 
f 52/102/59 67/106/62 66/103/60 
f 67/80/62 68/81/63 66/86/60 
f 67/80/62 69/87/64 68/81/63 
f 69/100/64 70/108/65 68/164/63 
f 69/100/64 63/165/66 70/108/65 
s 2
f 63/165/67 71/166/67 70/108/67 
f 63/165/67 62/167/67 71/166/67 
s 4
f 62/74/68 65/75/68 71/76/68 
f 62/74/68 53/78/68 65/75/68 
s 1
f 65/71/69 72/73/70 73/77/71 
f 65/71/69 64/79/72 72/73/70 
f 74/107/73 75/139/74 76/140/75 
f 74/107/73 77/141/76 75/139/74 
f 77/141/76 78/142/77 75/139/74 
f 77/141/76 79/143/78 78/142/77 
f 79/143/78 80/144/79 78/142/77 
f 79/143/78 81/145/80 80/144/79 
f 70/91/81 82/96/82 83/97/83 
f 70/91/81 71/101/84 82/96/82 
f 71/149/84 73/95/71 82/147/82 
f 71/149/84 65/90/69 73/95/71 
f 84/127/85 73/77/71 72/73/70 
f 84/127/85 72/73/70 85/138/86 
f 84/127/85 85/138/86 86/146/86 
f 84/127/85 86/146/86 83/97/83 
f 84/127/85 83/97/83 82/96/82 
f 84/150/85 82/147/82 73/95/71 
s 2
f 46/168/87 48/169/88 57/170/89 
f 57/170/89 54/171/90 46/168/87 
s 4
f 48/82/91 49/83/92 59/84/93 
f 59/84/93 57/88/94 48/82/91 
s 2
f 49/117/95 50/153/96 61/154/97 
f 61/154/97 59/155/98 49/117/95 
s 8
f 52/89/99 46/92/100 54/93/101 
f 54/93/101 56/94/102 52/89/99 
s 2147483648
f 67/106/62 52/102/59 56/156/103 
f 56/156/103 55/157/104 67/106/62 
f 69/87/64 67/80/62 55/112/104 
f 55/112/104 58/114/105 69/87/64 
f 63/165/66 69/100/64 58/172/105 
f 58/172/105 60/173/106 63/165/66 
s 8
f 50/98/107 63/99/108 60/104/109 
f 60/104/109 61/105/110 50/98/107 
s 2147483648
f 64/85/61 66/103/60 77/158/111 
f 77/158/111 74/159/112 64/85/61 
f 66/86/60 68/81/63 79/118/113 
f 79/118/113 77/122/111 66/86/60 
f 68/164/63 70/108/65 81/174/114 
f 81/174/114 79/175/113 68/164/63 
s 8
f 72/109/115 64/110/116 74/111/117 
f 74/111/117 76/113/118 72/109/115 
s 2
f 85/176/119 72/177/120 76/178/121 
f 76/178/121 75/179/122 85/176/119 
s 4
f 86/115/123 85/116/124 75/119/125 
f 75/119/125 78/120/126 86/115/123 
s 2
f 83/160/127 86/161/128 78/162/129 
f 78/162/129 80/163/130 83/160/127 
s 8
f 70/121/131 83/123/132 80/124/133 
f 80/124/133 81/125/134 70/121/131 
# 164 faces

