# 3ds Max Wavefront OBJ Exporter v0.97b - (c)2007 guruware
# File Created: 15.03.2017 00:22:54

mtllib sherman_cannon.mtl

#
# object cannon
#

v  0.006 2.434 -0.257
v  0.099 2.273 -0.257
v  0.192 2.434 -0.257
v  -0.086 2.273 -0.257
v  -0.179 2.434 -0.257
v  -0.086 2.594 -0.257
v  0.099 2.594 -0.257
v  0.098 2.275 -1.068
v  0.190 2.434 -1.068
v  -0.085 2.275 -1.068
v  -0.177 2.434 -1.068
v  -0.085 2.592 -1.068
v  0.098 2.592 -1.068
v  0.079 2.308 -1.102
v  0.151 2.434 -1.102
v  -0.066 2.308 -1.102
v  -0.139 2.434 -1.102
v  -0.066 2.559 -1.102
v  0.079 2.559 -1.102
v  0.058 2.345 -3.433
v  0.109 2.434 -3.433
v  -0.045 2.345 -3.433
v  -0.097 2.434 -3.433
v  -0.045 2.523 -3.433
v  0.058 2.523 -3.433
v  0.051 2.356 -5.000
v  0.096 2.434 -5.000
v  -0.038 2.356 -5.000
v  -0.083 2.434 -5.000
v  -0.038 2.511 -5.000
v  0.051 2.511 -5.000
v  0.040 2.376 -5.000
v  0.073 2.434 -5.000
v  -0.027 2.376 -5.000
v  -0.060 2.434 -5.000
v  -0.027 2.491 -5.000
v  0.040 2.491 -5.000
v  0.006 2.434 -0.700
v  0.073 2.434 -0.700
v  0.039 2.376 -0.700
v  -0.027 2.376 -0.700
v  -0.060 2.434 -0.700
v  -0.027 2.491 -0.700
v  0.039 2.491 -0.700
v  0.269 2.432 -0.600
v  0.269 2.702 -0.553
v  0.269 2.526 -0.343
v  0.232 2.609 -0.810
v  0.232 2.339 -0.858
v  0.269 2.162 -0.648
v  0.269 2.256 -0.390
v  0.271 2.785 -0.536
v  0.269 2.554 -0.266
v  0.521 2.670 -0.576
v  0.501 2.589 -0.801
v  0.505 2.636 -0.855
v  0.525 2.742 -0.562
v  0.464 2.354 -0.842
v  0.468 2.328 -0.910
v  0.448 2.201 -0.659
v  0.452 2.127 -0.670
v  0.269 2.204 -0.328
v  0.271 2.078 -0.661
v  -0.266 2.785 -0.536
v  -0.263 2.554 -0.266
v  0.234 2.663 -0.874
v  -0.229 2.663 -0.874
v  0.234 2.309 -0.936
v  -0.229 2.309 -0.936
v  -0.266 2.078 -0.661
v  -0.263 2.204 -0.328
v  -0.263 2.702 -0.553
v  -0.263 2.526 -0.343
v  -0.520 2.742 -0.562
v  -0.500 2.636 -0.855
v  -0.495 2.589 -0.801
v  -0.514 2.670 -0.576
v  -0.463 2.328 -0.910
v  -0.458 2.354 -0.842
v  -0.442 2.131 -0.672
v  -0.442 2.201 -0.659
v  -0.263 2.256 -0.390
v  -0.263 2.162 -0.648
v  -0.263 2.432 -0.600
v  -0.226 2.609 -0.810
v  -0.226 2.339 -0.858
# 86 vertices

vn -0.000 -0.000 1.000
vn -0.000 0.000 1.000
vn 1.000 0.000 -0.003
vn 0.500 -0.866 -0.003
vn -0.500 -0.866 -0.003
vn -1.000 0.000 -0.003
vn -0.500 0.866 -0.003
vn 0.500 0.866 -0.003
vn 0.669 0.000 -0.743
vn 0.334 -0.579 -0.743
vn -0.334 -0.579 -0.743
vn -0.669 0.000 -0.743
vn -0.334 0.579 -0.743
vn 0.334 0.579 -0.743
vn 1.000 0.000 -0.018
vn 0.500 -0.866 -0.018
vn 0.500 -0.866 -0.013
vn 1.000 -0.000 -0.013
vn -0.500 -0.866 -0.018
vn -0.500 -0.866 -0.013
vn -1.000 0.000 -0.018
vn -1.000 0.000 -0.013
vn -0.500 0.866 -0.018
vn -0.500 0.866 -0.013
vn 0.500 0.866 -0.018
vn 0.500 0.866 -0.013
vn 0.500 -0.866 -0.009
vn 1.000 0.000 -0.009
vn -0.500 -0.866 -0.009
vn -1.000 0.000 -0.009
vn -0.500 0.866 -0.009
vn 0.500 0.866 -0.009
vn 0.000 0.000 -1.000
vn -0.866 0.500 -0.000
vn 0.000 1.000 0.000
vn 0.866 0.500 0.000
vn 0.866 -0.500 0.000
vn 0.000 -1.000 -0.000
vn -0.866 -0.500 -0.000
vn 0.997 0.013 -0.076
vn 0.999 -0.004 -0.048
vn 1.000 -0.003 0.000
vn 0.988 0.027 -0.152
vn 0.999 0.018 -0.040
vn 1.000 0.000 0.000
vn 1.000 -0.019 -0.014
vn 1.000 -0.003 0.001
vn 0.997 -0.062 -0.047
vn 0.991 -0.130 -0.021
vn 0.993 -0.118 -0.030
vn 0.997 -0.054 -0.048
vn 0.991 -0.089 0.097
vn 0.993 -0.085 0.079
vn 0.993 0.035 0.117
vn 0.994 0.026 0.105
vn 1.000 0.003 -0.000
vn 1.000 0.026 -0.003
vn -0.000 0.759 0.651
vn 0.062 0.936 -0.347
vn 0.055 0.644 -0.763
vn -0.056 0.642 -0.764
vn -0.061 0.936 -0.346
vn 0.061 -0.345 -0.937
vn -0.067 -0.347 -0.935
vn 0.079 -0.763 -0.641
vn -0.091 -0.757 -0.647
vn -0.000 -0.936 0.353
vn -0.000 -0.174 0.985
vn -1.000 -0.004 -0.002
vn -0.999 -0.033 -0.017
vn -0.999 -0.008 -0.046
vn -1.000 0.000 -0.000
vn -0.995 -0.078 -0.055
vn -0.990 -0.140 -0.009
vn -0.990 -0.137 -0.028
vn -0.996 -0.062 -0.065
vn -0.992 -0.077 0.101
vn -0.993 -0.078 0.093
vn -0.997 -0.014 0.077
vn -0.999 0.031 -0.010
vn -1.000 0.004 0.003
vn -1.000 0.004 0.001
vn -0.999 0.026 -0.045
vn -0.997 0.013 -0.076
vn -0.988 0.027 -0.152
vn -0.084 -0.933 0.349
vn -0.082 -0.933 0.351
vn -0.086 -0.934 0.347
vn -0.053 -0.170 0.984
vn -0.057 -0.173 0.983
vn -0.048 -0.166 0.985
vn -0.105 0.760 0.642
vn -0.120 0.750 0.650
vn -0.109 0.757 0.644
vn -0.095 0.767 0.635
vn 0.067 -0.199 0.978
vn 0.067 -0.198 0.978
vn 0.065 -0.201 0.977
vn 0.065 -0.202 0.977
vn 0.119 0.929 -0.349
vn 0.118 0.650 -0.751
vn 0.137 -0.302 -0.943
vn 0.174 -0.760 -0.626
vn 0.092 -0.147 0.985
vn 0.093 -0.145 0.985
vn 0.093 -0.144 0.985
vn -0.116 0.647 -0.754
vn -0.122 0.930 -0.347
vn -0.127 -0.306 -0.944
vn -0.165 -0.751 -0.639
vn -0.066 -0.200 0.978
vn -0.066 -0.199 0.978
vn -0.066 -0.202 0.977
vn -0.066 -0.203 0.977
vn 0.084 -0.933 0.350
vn 0.086 -0.932 0.352
vn 0.084 -0.933 0.349
vn 0.082 -0.934 0.347
vn 0.053 -0.169 0.984
vn 0.049 -0.173 0.984
vn 0.053 -0.170 0.984
vn 0.057 -0.165 0.985
vn 0.109 0.760 0.641
vn 0.095 0.754 0.650
vn 0.106 0.759 0.643
vn 0.124 0.766 0.631
vn -0.098 -0.153 0.983
vn -0.094 -0.146 0.985
vn -0.107 -0.165 0.981
vn -0.112 -0.173 0.979
# 130 vertex normals

vt -0.671 -0.330 0.000
vt -0.668 -0.330 0.000
vt -0.665 -0.330 0.000
vt -0.673 -0.330 0.000
vt -0.676 -0.330 0.000
vt -0.964 -0.131 0.000
vt -0.954 -0.121 0.000
vt -0.944 -0.131 0.000
vt -0.974 -0.121 0.000
vt -0.505 0.973 0.500
vt -0.505 0.965 0.559
vt -0.463 0.965 0.552
vt -0.463 0.973 0.494
vt -0.505 0.959 0.559
vt -0.463 0.959 0.552
vt -0.505 0.951 0.500
vt -0.463 0.951 0.494
vt -0.505 0.943 0.559
vt -0.463 0.943 0.552
vt -0.505 0.987 0.559
vt -0.505 0.980 0.559
vt -0.463 0.980 0.552
vt -0.463 0.987 0.552
vt -0.501 0.969 0.494
vt -0.501 0.962 0.552
vt -0.506 0.962 0.437
vt -0.506 0.969 0.391
vt -0.501 0.955 0.552
vt -0.506 0.955 0.437
vt -0.501 0.948 0.494
vt -0.506 0.948 0.391
vt -0.501 0.991 0.494
vt -0.501 0.983 0.552
vt -0.506 0.983 0.437
vt -0.506 0.991 0.391
vt -0.501 0.977 0.552
vt -0.506 0.977 0.437
vt 1.201 0.751 0.500
vt 1.201 0.747 0.559
vt 1.265 0.747 0.397
vt 1.265 0.751 0.355
vt 1.201 0.744 0.559
vt 1.265 0.743 0.397
vt 1.202 0.740 0.500
vt 1.265 0.739 0.355
vt 1.202 0.736 0.559
vt 1.265 0.736 0.397
vt 1.202 0.732 0.559
vt 1.266 0.732 0.397
vt 1.202 0.728 0.500
vt 1.266 0.728 0.355
vt 1.319 0.747 0.344
vt 1.319 0.751 0.308
vt 1.319 0.744 0.344
vt 1.319 0.739 0.308
vt 1.319 0.735 0.344
vt 1.319 0.732 0.344
vt 1.319 0.728 0.308
vt -0.431 0.002 0.000
vt -0.432 0.002 0.000
vt -0.433 0.002 0.000
vt -0.434 0.002 0.000
vt -0.671 -0.311 0.000
vt -0.669 -0.311 0.000
vt -0.670 -0.311 0.000
vt -0.672 -0.311 0.000
vt -0.862 0.211 0.000
vt -0.865 0.211 0.000
vt -0.865 0.173 0.000
vt -0.862 0.173 0.000
vt -0.860 0.211 0.000
vt -0.860 0.173 0.000
vt -0.859 0.211 0.000
vt -0.859 0.173 0.000
vt -0.963 -0.134 0.000
vt -0.942 -0.131 0.000
vt -0.956 -0.115 0.000
vt -0.949 -0.149 0.000
vt -0.971 -0.153 0.000
vt -0.985 -0.138 0.000
vt -0.978 -0.119 0.000
vt -0.663 -0.316 0.000
vt -0.663 -0.326 0.000
vt -0.663 -0.324 0.000
vt -0.935 -0.130 0.000
vt -0.954 -0.110 0.000
vt -0.656 -0.317 0.000
vt -0.657 -0.307 0.000
vt -0.656 -0.303 0.000
vt -0.656 -0.316 0.000
vt -0.658 -0.306 0.000
vt -0.657 -0.301 0.000
vt -0.658 -0.313 0.000
vt -0.982 -0.114 0.000
vt -0.992 -0.139 0.000
vt -0.992 -0.110 0.000
vt -0.992 -0.130 0.000
vt -0.935 -0.110 0.000
vt 0.344 -0.338 0.000
vt 0.336 -0.336 0.000
vt 0.336 -0.315 0.000
vt 0.344 -0.314 0.000
vt 0.322 -0.336 0.000
vt 0.322 -0.315 0.000
vt 0.315 -0.338 0.000
vt 0.315 -0.314 0.000
vt -0.663 -0.313 0.000
vt -0.663 -0.327 0.000
vt -0.678 -0.327 0.000
vt -0.678 -0.313 0.000
vt -0.663 -0.329 0.000
vt -0.678 -0.329 0.000
vt -0.685 -0.316 0.000
vt -0.686 -0.303 0.000
vt -0.685 -0.307 0.000
vt -0.685 -0.317 0.000
vt -0.685 -0.301 0.000
vt -0.684 -0.306 0.000
vt -0.683 -0.313 0.000
vt -0.678 -0.326 0.000
vt -0.678 -0.324 0.000
vt -0.678 -0.316 0.000
vt -0.663 -0.317 0.000
vt -0.664 -0.307 0.000
vt -0.664 -0.305 0.000
vt -0.663 -0.314 0.000
vt 0.343 -0.349 0.000
vt 0.335 -0.349 0.000
vt 0.323 -0.349 0.000
vt 0.316 -0.349 0.000
vt 0.335 -0.302 0.000
vt 0.343 -0.302 0.000
vt 0.323 -0.302 0.000
vt 0.316 -0.302 0.000
vt -0.678 -0.317 0.000
vt -0.677 -0.307 0.000
vt -0.677 -0.305 0.000
vt -0.678 -0.314 0.000
# 138 texture coords

g cannon
usemtl Material__56
s 1
f 1/1/1 2/2/1 3/3/1 
f 1/1/1 4/4/1 2/2/1 
f 1/1/1 5/5/1 4/4/1 
f 1/6/1 6/7/2 5/8/1 
f 1/6/1 7/9/1 6/7/2 
f 1/1/1 3/3/1 7/2/1 
s 2
f 3/10/3 2/11/4 8/12/4 9/13/3 
f 2/11/4 4/14/5 10/15/5 8/12/4 
f 4/14/5 5/16/6 11/17/6 10/15/5 
f 5/16/6 6/18/7 12/19/7 11/17/6 
f 6/20/7 7/21/8 13/22/8 12/23/7 
f 7/21/8 3/10/3 9/13/3 13/22/8 
s 16
f 9/24/9 8/25/10 14/26/10 15/27/9 
f 8/25/10 10/28/11 16/29/11 14/26/10 
f 10/28/11 11/30/12 17/31/12 16/29/11 
f 11/32/12 12/33/13 18/34/13 17/35/12 
f 12/33/13 13/36/14 19/37/14 18/34/13 
f 13/36/14 9/24/9 15/27/9 19/37/14 
s 2
f 15/38/15 14/39/16 20/40/17 21/41/18 
f 14/39/16 16/42/19 22/43/20 20/40/17 
f 16/42/19 17/44/21 23/45/22 22/43/20 
f 17/44/21 18/46/23 24/47/24 23/45/22 
f 18/46/23 19/48/25 25/49/26 24/47/24 
f 19/48/25 15/50/15 21/51/18 25/49/26 
f 21/41/18 20/40/17 26/52/27 27/53/28 
f 20/40/17 22/43/20 28/54/29 26/52/27 
f 22/43/20 23/45/22 29/55/30 28/54/29 
f 23/45/22 24/47/24 30/56/31 29/55/30 
f 24/47/24 25/49/26 31/57/32 30/56/31 
f 25/49/26 21/51/18 27/58/28 31/57/32 
s 1
f 27/59/33 26/59/33 32/60/33 33/59/33 
f 26/59/33 28/61/33 34/61/33 32/60/33 
f 28/61/33 29/62/33 35/61/33 34/61/33 
f 29/62/33 30/61/33 36/61/33 35/61/33 
f 30/61/33 31/59/33 37/60/33 36/61/33 
f 31/59/33 27/59/33 33/59/33 37/60/33 
f 38/63/33 39/64/33 40/65/33 
f 38/63/33 40/65/33 41/63/33 
f 38/63/33 41/63/33 42/66/33 
f 38/63/33 42/66/33 43/63/33 
f 38/63/33 43/63/33 44/65/33 
f 38/63/33 44/65/33 39/64/33 
s 2
f 33/67/34 32/68/34 40/69/34 39/70/34 
s 4
f 32/68/35 34/71/35 41/72/35 40/69/35 
s 2
f 34/68/36 35/67/36 42/70/36 41/69/36 
s 4
f 35/67/37 36/73/37 43/74/37 42/70/37 
s 2
f 36/71/38 37/68/38 44/69/38 43/72/38 
s 4
f 37/73/39 33/67/39 39/70/39 44/74/39 
s 1
f 45/75/40 46/76/41 47/77/42 
f 45/75/40 48/78/43 46/76/41 
f 45/75/40 49/79/43 48/78/43 
f 45/75/40 50/80/44 49/79/43 
f 45/75/40 51/81/45 50/80/44 
f 45/82/40 47/83/42 51/84/45 
f 47/77/42 46/76/41 52/85/46 53/86/47 
f 54/87/48 55/88/49 56/89/50 57/90/51 
f 55/88/49 58/91/52 59/92/53 56/89/50 
f 58/91/52 60/93/54 61/93/55 59/92/53 
f 50/80/44 51/81/45 62/94/56 63/95/57 
f 51/81/45 47/77/42 53/86/47 62/94/56 
s 2
f 53/96/58 52/97/58 64/85/58 65/98/58 
s 2147483648
f 52/99/59 66/100/60 67/101/61 64/102/62 
f 66/100/60 68/103/63 69/104/64 67/101/61 
f 68/103/63 63/105/65 70/106/66 69/104/64 
s 2
f 63/107/67 62/108/67 71/109/67 70/110/67 
s 4
f 62/108/68 53/111/68 65/112/68 71/109/68 
s 1
f 65/86/69 64/85/70 72/76/71 73/77/72 
f 74/113/73 75/114/74 76/115/75 77/116/76 
f 75/114/74 78/117/77 79/118/78 76/115/75 
f 78/117/77 80/119/79 81/119/79 79/118/78 
f 70/95/80 71/94/81 82/81/82 83/80/83 
f 71/109/81 65/112/69 73/120/72 82/121/82 
f 84/75/84 73/77/72 72/76/71 
f 84/75/84 72/76/71 85/78/85 
f 84/75/84 85/78/85 86/79/85 
f 84/75/84 86/79/85 83/80/83 
f 84/75/84 83/80/83 82/81/82 
f 84/122/84 82/121/82 73/120/72 
s 2
f 46/123/86 48/124/87 55/88/86 54/87/88 
s 4
f 48/124/89 49/125/90 58/91/89 55/88/91 
s 2
f 49/125/92 50/126/93 60/93/94 58/91/95 
s 8
f 52/123/96 46/123/97 54/87/98 57/90/99 
s 2147483648
f 66/100/60 52/99/59 57/127/100 56/128/101 
f 68/103/63 66/100/60 56/128/101 59/129/102 
f 63/105/65 68/103/63 59/129/102 61/130/103 
s 8
f 50/126/104 63/107/104 61/93/105 60/93/106 
s 2147483648
f 64/102/62 67/101/61 75/131/107 74/132/108 
f 67/101/61 69/104/64 78/133/109 75/131/107 
f 69/104/64 70/106/66 80/134/110 78/133/109 
s 8
f 72/135/111 64/135/112 74/113/113 77/116/114 
s 2
f 85/136/115 72/135/116 77/116/117 76/115/118 
s 4
f 86/137/119 85/136/120 76/115/121 79/118/122 
s 2
f 83/138/123 86/137/124 79/118/125 81/119/126 
s 8
f 70/110/127 83/138/128 81/119/129 80/119/130 
# 70 polygons - 24 triangles

