# 3ds Max Wavefront OBJ Exporter v0.97b - (c)2007 guruware
# File Created: 16.02.2017 00:30:40

#
# object Plane007
#

v  -35.2435 37.7080 34.3629
v  -38.5084 40.8017 13.7583
v  -11.8930 25.9785 9.6424
v  -8.7499 37.7080 39.3345
v  9.7629 36.7201 11.6165
v  13.7533 41.1967 39.3345
v  35.1188 41.9216 11.2039
v  32.2660 38.8279 34.3629
v  -38.5084 40.8017 -8.9881
v  -12.0198 33.2314 -9.6881
v  11.9144 36.7201 -13.3373
v  35.1188 41.9216 -11.5426
v  -35.2435 37.1695 -33.8764
v  -13.1377 37.1695 -38.8911
v  9.3743 40.6582 -37.8486
v  32.2660 38.2894 -33.8765
v  -0.8091 43.9413 -25.2693
v  -8.8112 28.8856 -14.6311
v  -19.6535 16.0684 -18.5052
v  -8.2247 31.4245 -34.8415
v  -26.5378 27.2643 -23.6653
v  -17.3677 26.3163 -37.9975
v  -33.8439 11.9706 -30.3439
v  -24.0248 17.5785 -39.4520
v  -17.6250 28.8856 -2.8721
v  -25.9839 15.8152 -10.4533
v  -34.2956 26.5081 -14.4912
v  -41.6063 13.4188 -19.9876
v  -27.0469 25.7425 10.1605
v  -36.7848 33.2602 6.9105
v  -42.1678 26.1711 -1.7029
v  -47.1327 17.9085 -8.2487
v  -6.9906 42.2379 -51.0595
v  -1.0636 34.2212 -12.5108
v  -16.3420 18.7202 -11.2304
v  -21.9203 32.1094 -43.0369
v  11.8648 41.8587 -48.2041
v  17.7617 46.1659 -21.8396
v  -26.4370 30.0026 -0.9932
v  -13.1533 32.9083 -0.1284
v  -11.8841 25.5224 14.7197
v  -30.3810 17.4858 10.4551
v  -11.7140 30.6623 20.8500
v  -28.0111 30.3390 19.8327
v  -11.7582 21.6227 24.6827
v  -25.5801 21.6012 26.1984
v  1.5128 32.9083 0.8011
v  -0.9655 19.2132 13.1471
v  1.5888 34.5793 26.6158
v  0.3358 17.4415 30.2402
v  17.5774 29.7653 1.5415
v  15.9276 14.2285 9.5172
v  15.9390 12.2323 20.6909
v  13.1837 21.9312 28.4308
v  -43.0978 35.4108 5.2497
v  -10.5369 29.8315 3.8425
v  -12.6449 24.1036 19.1196
v  -37.6323 30.0165 19.9628
v  -38.0543 32.7538 -10.1649
v  -15.3410 20.8946 -12.3761
v  11.8640 29.2366 22.0987
v  11.8867 32.1176 8.9004
v  28.0125 42.5488 7.5284
v  23.4395 34.7879 25.2833
v  39.4786 33.5322 7.5284
v  34.9055 25.7713 25.2833
v  44.5800 16.0800 7.2641
v  41.8844 16.0646 22.0987
v  11.8867 32.1176 -5.6700
v  22.7976 18.3916 -5.3385
v  33.0114 28.1703 -7.3131
v  44.5800 16.0800 -7.3062
v  11.6118 46.9627 -21.6122
v  21.2701 36.6080 -24.8244
v  32.7401 27.5872 -24.1566
v  41.6322 15.8293 -21.6122
v  -3.7209 24.8417 3.5651
v  15.1892 28.5946 -6.8235
v  27.3690 36.0107 36.6689
v  5.6522 31.7378 37.1821
v  36.9620 33.9989 -6.8955
v  44.1773 29.7725 23.6548
v  25.8369 48.8443 -2.6211
v  11.9796 47.3644 -40.3811
v  22.8185 31.3684 -37.9540
v  31.8858 30.6426 -7.3067
v  8.6266 57.0649 -2.4021
v  -3.4237 54.9731 -26.8730
v  -19.2267 32.9344 2.0523
v  -2.4462 38.6623 8.3206
v  -21.8379 44.2416 40.8325
v  -33.8660 38.8473 27.1326
v  11.4855 29.7254 22.1744
v  -3.2984 41.5846 44.1756
v  -12.7403 56.6162 11.6165
v  9.7629 54.6815 11.6165
v  -12.0198 51.1929 -9.6881
v  11.9144 54.6815 -13.3373
v  -8.8112 46.8471 -14.6311
v  -21.9273 44.8845 -21.7054
v  -30.0772 36.8752 -27.8140
v  -17.6250 46.8471 -2.8721
v  -29.4214 44.5847 -12.1733
v  -39.2610 35.9800 -16.9535
v  -27.0469 43.7040 10.1605
v  -1.0636 52.1827 -12.5108
v  -18.0071 48.0237 -13.0933
v  -13.1533 50.8698 -0.1284
v  -26.4370 47.9640 -0.9932
v  -11.8841 43.4838 14.7197
v  -30.3810 35.4472 10.4551
v  -12.5284 40.8979 24.8843
v  -12.5807 21.4167 29.4215
v  1.5128 50.8698 0.8011
v  0.1960 48.6074 15.7655
v  17.5774 47.7267 1.5415
v  20.1945 42.7063 11.4682
v  15.9390 30.1938 20.6909
v  -10.5369 47.7929 3.8425
v  -12.6449 42.0651 19.1196
v  -15.3410 38.8561 -12.3761
v  11.8867 50.0791 8.9004
v  11.8640 47.1980 22.0987
v  11.8867 50.0791 -5.6700
v  28.3273 47.6347 -6.1183
v  40.4186 37.9477 -8.4558
v  15.1892 46.5560 -6.8235
v  -3.7209 42.8031 3.5651
v  -2.4462 56.6237 8.3206
v  -19.2267 50.8958 2.0523
v  11.4855 47.6869 22.1744
# 131 vertices

vn -0.2932 -0.9409 0.1695
vn -0.4357 -0.8957 -0.0892
vn -0.0411 -0.9991 -0.0112
vn 0.1225 -0.9509 0.2844
vn 0.2968 -0.9484 0.1116
vn 0.0935 -0.9933 0.0683
vn 0.1384 -0.9903 0.0121
vn -0.1651 -0.9747 -0.1505
vn -0.2191 -0.9757 -0.0050
vn -0.1250 -0.9687 -0.2145
vn 0.1667 -0.9833 -0.0730
vn 0.2085 -0.9759 0.0640
vn 0.0337 -0.9883 0.1487
vn 0.0163 -0.9974 -0.0708
vn 0.0471 -0.9872 -0.1521
vn 0.0637 -0.9979 -0.0131
vn 0.8245 -0.5650 -0.0314
vn 0.7606 -0.6490 0.0177
vn 0.1687 -0.9543 -0.2469
vn 0.6230 -0.7819 -0.0216
vn 0.1939 -0.9773 -0.0850
vn 0.5368 -0.7550 0.3766
vn 0.6633 -0.5515 0.5058
vn 0.7012 -0.5987 0.3873
vn 0.3456 -0.7876 0.5101
vn -0.0958 -0.9808 0.1701
vn 0.0539 -0.9979 0.0349
vn 0.6378 -0.5619 0.5267
vn -0.4242 -0.7614 -0.4903
vn -0.1473 -0.9135 0.3792
vn 0.0599 -0.8853 0.4612
vn 0.6377 -0.6266 0.4481
vn 0.2504 -0.9243 -0.2880
vn 0.5549 -0.8126 -0.1785
vn 0.5970 -0.7443 -0.2993
vn 0.3475 -0.8409 -0.4149
vn 0.1916 -0.9717 -0.1385
vn 0.5414 -0.8406 0.0162
vn 0.3417 -0.7717 -0.5365
vn 0.0335 -0.8365 -0.5469
vn -0.0650 -0.9710 0.2299
vn 0.3555 -0.9346 0.0144
vn 0.1966 -0.9713 -0.1337
vn -0.0586 -0.9835 0.1709
vn 0.1584 -0.4240 -0.8917
vn -0.0861 -0.6022 -0.7937
vn -0.0777 -0.6093 -0.7891
vn -0.4629 -0.8863 -0.0180
vn -0.1707 -0.9434 -0.2845
vn 0.1735 -0.2473 -0.9533
vn -0.0474 -0.4522 -0.8907
vn -0.2782 -0.7920 -0.5434
vn -0.5183 -0.8054 0.2877
vn -0.7325 -0.6788 -0.0511
vn -0.1901 -0.9769 -0.0977
vn -0.2531 -0.9673 0.0145
vn -0.1888 -0.9222 -0.3374
vn -0.2307 -0.9381 -0.2582
vn -0.2288 -0.9399 0.2534
vn -0.3515 -0.7720 0.5295
vn 0.4982 -0.8399 -0.2153
vn 0.2656 -0.9247 0.2727
vn -0.0363 -0.9830 0.1801
vn -0.0301 -0.9130 -0.4068
vn -0.7844 -0.6201 -0.0140
vn -0.7408 -0.5620 -0.3679
vn -0.9355 -0.3248 -0.1389
vn -0.8254 -0.5441 -0.1505
vn -0.7535 -0.5946 -0.2806
vn -0.0488 -0.9892 0.1381
vn -0.0712 -0.8752 0.4785
vn -0.7936 -0.5716 0.2087
vn -0.7132 -0.5191 -0.4711
vn -0.6321 -0.5819 -0.5118
vn -0.4976 -0.8180 -0.2884
vn -0.7600 -0.6427 0.0965
vn 0.2310 -0.9668 0.1093
vn 0.1658 -0.9856 0.0321
vn 0.0242 -0.9847 0.1727
vn 0.1943 -0.9702 0.1448
vn 0.2360 -0.9535 -0.1877
vn -0.0758 -0.9910 0.1104
vn -0.6945 -0.6748 0.2497
vn -0.6098 -0.7426 0.2770
vn -0.8340 -0.4630 0.3002
vn -0.8956 -0.3636 0.2564
vn -0.3794 -0.9039 0.1974
vn -0.2743 -0.9373 0.2152
vn 0.1824 -0.9405 0.2865
vn -0.1168 -0.9754 0.1872
vn -0.0027 -0.9826 0.1859
vn 0.1030 -0.9530 0.2848
vn -0.5759 -0.8158 0.0528
vn -0.2921 -0.9538 0.0708
vn -0.4745 0.8783 0.0593
vn -0.3033 0.8585 0.4136
vn -0.2193 0.9634 0.1543
vn -0.0785 0.8448 0.5293
vn 0.2330 0.9430 0.2376
vn 0.0943 0.9251 0.3679
vn 0.4006 0.9057 0.1389
vn 0.1651 0.9747 0.1505
vn -0.3055 0.9401 -0.1512
vn -0.2898 0.9064 -0.3074
vn 0.1600 0.9566 -0.2436
vn 0.4760 0.8753 -0.0853
vn -0.0337 0.9883 -0.1487
vn -0.1645 0.9183 -0.3601
vn -0.0085 0.8790 -0.4768
vn 0.3311 0.8697 -0.3661
vn -0.0551 0.9822 -0.1798
vn -0.0655 0.7977 -0.5995
vn -0.2051 0.8782 -0.4321
vn -0.0913 0.6413 -0.7619
vn -0.4952 0.5291 -0.6891
vn -0.3635 0.4929 -0.7905
vn -0.7091 0.2411 -0.6626
vn -0.7012 0.5987 -0.3873
vn -0.3384 0.9407 0.0221
vn -0.4750 0.8799 -0.0096
vn -0.8072 0.5397 -0.2389
vn -0.8137 0.1663 -0.5570
vn -0.6491 0.6988 -0.3007
vn -0.7141 0.6997 0.0225
vn -0.8375 0.5340 0.1155
vn -0.9280 0.2937 -0.2295
vn -0.0490 0.9740 -0.2214
vn -0.2632 0.9230 -0.2806
vn -0.3478 0.9066 -0.2391
vn -0.6397 0.7102 -0.2939
vn 0.2057 0.9574 -0.2024
vn 0.1016 0.9649 -0.2423
vn -0.2038 0.9043 0.3752
vn -0.3417 0.7717 0.5365
vn -0.2897 0.8414 0.4562
vn -0.4984 0.7103 0.4970
vn -0.1302 0.7352 0.6652
vn -0.4885 0.5082 0.7093
vn -0.1566 0.2777 0.9478
vn -0.1951 0.5415 0.8178
vn 0.1323 0.9709 0.1996
vn 0.0348 0.8320 0.5537
vn 0.1830 0.4757 0.8604
vn 0.0275 0.2113 0.9770
vn 0.1566 0.8974 0.4126
vn 0.2946 0.7516 0.5902
vn 0.4134 0.5265 0.7429
vn 0.2678 0.3730 0.8883
vn -0.3357 0.9418 -0.0184
vn -0.3792 0.9220 0.0787
vn -0.3432 0.8786 0.3320
vn -0.3781 0.8149 0.4392
vn -0.2739 0.8743 -0.4006
vn -0.3303 0.8919 -0.3088
vn 0.3571 0.9177 0.1740
vn 0.5248 0.7840 0.3315
vn 0.5371 0.7704 0.3435
vn 0.5711 0.6880 0.4478
vn 0.8072 0.5164 0.2860
vn 0.7408 0.5620 0.3679
vn 0.9355 0.3248 0.1389
vn 0.8254 0.5441 0.1505
vn 0.2465 0.9444 -0.2176
vn 0.4303 0.8879 -0.1628
vn 0.7876 0.5801 -0.2078
vn 0.9751 0.2098 -0.0713
vn 0.6997 0.6988 -0.1487
vn 0.4865 0.7241 -0.4888
vn 0.5976 0.5247 -0.6062
vn 0.8697 0.2867 -0.4018
vn 0.2060 0.9661 0.1558
vn -0.0866 0.9568 0.2776
vn 0.1373 0.9649 0.2238
vn -0.1728 0.9203 0.3511
vn 0.4996 0.8663 0.0018
vn 0.4406 0.8947 0.0736
vn 0.6098 0.7426 -0.2770
vn 0.6945 0.6748 -0.2497
vn 0.8340 0.4630 -0.3002
vn 0.8956 0.3636 -0.2564
vn 0.2743 0.9373 -0.2152
vn 0.3794 0.9039 -0.1974
vn -0.1237 0.9559 0.2664
vn -0.4045 0.9055 0.1281
vn -0.2190 0.9404 0.2601
vn -0.5100 0.8528 0.1120
vn 0.1978 0.9023 0.3831
vn 0.1018 0.9165 0.3868
# 188 vertex normals

vt 0.5452 0.0133 0.0000
vt 0.6146 0.0125 0.0000
vt 0.6750 0.0299 0.0000
vt 0.7457 0.0299 0.0000
vt 0.5404 0.0830 0.0000
vt 0.6049 0.0885 0.0000
vt 0.6729 0.1004 0.0000
vt 0.7437 0.1004 0.0000
vt 0.5307 0.1527 0.0000
vt 0.6111 0.1669 0.0000
vt 0.6708 0.1590 0.0000
vt 0.7471 0.1575 0.0000
vt 0.5508 0.2350 0.0000
vt 0.6160 0.2374 0.0000
vt 0.6694 0.2406 0.0000
vt 0.7430 0.2343 0.0000
vt 0.5452 0.0133 0.0000
vt 0.6146 0.0125 0.0000
vt 0.6750 0.0299 0.0000
vt 0.7457 0.0299 0.0000
vt 0.5404 0.0830 0.0000
vt 0.6049 0.0885 0.0000
vt 0.6729 0.1004 0.0000
vt 0.7437 0.1004 0.0000
vt 0.5307 0.1527 0.0000
vt 0.6111 0.1669 0.0000
vt 0.6708 0.1590 0.0000
vt 0.7471 0.1575 0.0000
vt 0.5508 0.2350 0.0000
vt 0.6160 0.2374 0.0000
vt 0.6694 0.2406 0.0000
vt 0.7430 0.2343 0.0000
vt 0.5342 0.0135 0.0000
vt 0.7482 0.0135 0.0000
vt 0.5342 0.1276 0.0000
vt 0.7482 0.1276 0.0000
vt 0.5342 0.2416 0.0000
vt 0.7482 0.2416 0.0000
vt 0.5452 0.0133 0.0000
vt 0.6146 0.0125 0.0000
vt 0.6750 0.0299 0.0000
vt 0.7457 0.0299 0.0000
vt 0.5404 0.0830 0.0000
vt 0.6049 0.0885 0.0000
vt 0.6729 0.1004 0.0000
vt 0.7437 0.1004 0.0000
vt 0.5307 0.1527 0.0000
vt 0.6111 0.1669 0.0000
vt 0.6708 0.1590 0.0000
vt 0.7471 0.1575 0.0000
vt 0.5508 0.2350 0.0000
vt 0.6160 0.2374 0.0000
vt 0.6694 0.2406 0.0000
vt 0.7430 0.2343 0.0000
vt 0.5342 0.0135 0.0000
vt 0.7482 0.0135 0.0000
vt 0.5342 0.1276 0.0000
vt 0.7482 0.1276 0.0000
vt 0.5342 0.2416 0.0000
vt 0.7482 0.2416 0.0000
vt 0.5452 0.0133 0.0000
vt 0.6146 0.0125 0.0000
vt 0.6750 0.0299 0.0000
vt 0.7457 0.0299 0.0000
vt 0.5404 0.0830 0.0000
vt 0.6049 0.0885 0.0000
vt 0.6729 0.1004 0.0000
vt 0.7437 0.1004 0.0000
vt 0.5307 0.1527 0.0000
vt 0.6111 0.1669 0.0000
vt 0.6708 0.1590 0.0000
vt 0.7471 0.1575 0.0000
vt 0.5508 0.2350 0.0000
vt 0.6160 0.2374 0.0000
vt 0.6694 0.2406 0.0000
vt 0.7430 0.2343 0.0000
vt 0.5342 0.0135 0.0000
vt 0.7482 0.0135 0.0000
vt 0.5342 0.1276 0.0000
vt 0.7482 0.1276 0.0000
vt 0.5342 0.2416 0.0000
vt 0.7482 0.2416 0.0000
vt 0.5342 0.0135 0.0000
vt 0.7482 0.0135 0.0000
vt 0.5342 0.1276 0.0000
vt 0.7482 0.1276 0.0000
vt 0.5342 0.2416 0.0000
vt 0.7482 0.2416 0.0000
vt 0.5353 0.2397 0.0000
vt 0.5339 0.0136 0.0000
vt 0.6405 0.2391 0.0000
vt 0.6391 0.0130 0.0000
vt 0.7457 0.2384 0.0000
vt 0.7443 0.0123 0.0000
vt 0.5452 0.0133 0.0000
vt 0.6146 0.0125 0.0000
vt 0.6750 0.0299 0.0000
vt 0.7457 0.0299 0.0000
vt 0.5404 0.0830 0.0000
vt 0.6049 0.0885 0.0000
vt 0.6729 0.1004 0.0000
vt 0.7437 0.1004 0.0000
vt 0.5307 0.1527 0.0000
vt 0.6111 0.1669 0.0000
vt 0.6708 0.1590 0.0000
vt 0.7471 0.1575 0.0000
vt 0.5508 0.2350 0.0000
vt 0.6160 0.2374 0.0000
vt 0.6694 0.2406 0.0000
vt 0.7430 0.2343 0.0000
vt 0.5452 0.0133 0.0000
vt 0.6146 0.0125 0.0000
vt 0.6750 0.0299 0.0000
vt 0.7457 0.0299 0.0000
vt 0.5404 0.0830 0.0000
vt 0.6049 0.0885 0.0000
vt 0.6729 0.1004 0.0000
vt 0.7437 0.1004 0.0000
vt 0.5307 0.1527 0.0000
vt 0.6111 0.1669 0.0000
vt 0.6708 0.1590 0.0000
vt 0.7471 0.1575 0.0000
vt 0.5508 0.2350 0.0000
vt 0.6160 0.2374 0.0000
vt 0.6694 0.2406 0.0000
vt 0.7430 0.2343 0.0000
vt 0.5342 0.0135 0.0000
vt 0.7482 0.0135 0.0000
vt 0.5342 0.1276 0.0000
vt 0.7482 0.1276 0.0000
vt 0.5342 0.2416 0.0000
vt 0.7482 0.2416 0.0000
vt 0.5452 0.0133 0.0000
vt 0.6146 0.0125 0.0000
vt 0.6750 0.0299 0.0000
vt 0.7457 0.0299 0.0000
vt 0.5404 0.0830 0.0000
vt 0.6049 0.0885 0.0000
vt 0.6729 0.1004 0.0000
vt 0.7437 0.1004 0.0000
vt 0.5307 0.1527 0.0000
vt 0.6111 0.1669 0.0000
vt 0.6708 0.1590 0.0000
vt 0.7471 0.1575 0.0000
vt 0.5508 0.2350 0.0000
vt 0.6160 0.2374 0.0000
vt 0.6694 0.2406 0.0000
vt 0.7430 0.2343 0.0000
vt 0.5342 0.0135 0.0000
vt 0.7482 0.0135 0.0000
vt 0.5342 0.1276 0.0000
vt 0.7482 0.1276 0.0000
vt 0.5342 0.2416 0.0000
vt 0.7482 0.2416 0.0000
vt 0.5452 0.0133 0.0000
vt 0.6146 0.0125 0.0000
vt 0.6750 0.0299 0.0000
vt 0.7457 0.0299 0.0000
vt 0.5404 0.0830 0.0000
vt 0.6049 0.0885 0.0000
vt 0.6729 0.1004 0.0000
vt 0.7437 0.1004 0.0000
vt 0.5307 0.1527 0.0000
vt 0.6111 0.1669 0.0000
vt 0.6708 0.1590 0.0000
vt 0.7471 0.1575 0.0000
vt 0.5508 0.2350 0.0000
vt 0.6160 0.2374 0.0000
vt 0.6694 0.2406 0.0000
vt 0.7430 0.2343 0.0000
vt 0.5342 0.0135 0.0000
vt 0.7482 0.0135 0.0000
vt 0.5342 0.1276 0.0000
vt 0.7482 0.1276 0.0000
vt 0.5342 0.2416 0.0000
vt 0.7482 0.2416 0.0000
vt 0.5342 0.0135 0.0000
vt 0.7482 0.0135 0.0000
vt 0.5342 0.1276 0.0000
vt 0.7482 0.1276 0.0000
vt 0.5342 0.2416 0.0000
vt 0.7482 0.2416 0.0000
vt 0.5353 0.2397 0.0000
vt 0.5339 0.0136 0.0000
vt 0.6405 0.2391 0.0000
vt 0.6391 0.0130 0.0000
vt 0.7457 0.2384 0.0000
vt 0.7443 0.0123 0.0000
# 188 texture coords

g Plane007
s 1
f 1/1/1 2/5/2 3/6/3 
f 3/6/3 4/2/4 1/1/1 
f 4/2/4 3/6/3 5/7/5 
f 5/7/5 6/3/6 4/2/4 
f 6/3/6 5/7/5 7/8/7 
f 7/8/7 8/4/8 6/3/6 
f 2/5/2 9/9/9 10/10/10 
f 10/10/10 3/6/3 2/5/2 
f 3/6/3 10/10/10 11/11/11 
f 11/11/11 5/7/5 3/6/3 
f 5/7/5 11/11/11 12/12/12 
f 12/12/12 7/8/7 5/7/5 
f 9/9/9 13/13/13 14/14/14 
f 14/14/14 10/10/10 9/9/9 
f 10/10/10 14/14/14 15/15/15 
f 15/15/15 11/11/11 10/10/10 
f 11/11/11 15/15/15 16/16/16 
f 16/16/16 12/12/12 11/11/11 
f 17/17/17 18/21/18 19/22/19 
f 19/22/19 20/18/20 17/17/17 
f 20/18/20 19/22/19 21/23/21 
f 21/23/21 22/19/22 20/18/20 
f 22/19/22 21/23/21 23/24/23 
f 23/24/23 24/20/24 22/19/22 
f 18/21/18 25/25/25 26/26/26 
f 26/26/26 19/22/19 18/21/18 
f 19/22/19 26/26/26 27/27/27 
f 27/27/27 21/23/21 19/22/19 
f 21/23/21 27/27/27 28/28/28 
f 28/28/28 23/24/23 21/23/21 
f 25/25/25 29/29/29 30/30/30 
f 30/30/30 26/26/26 25/25/25 
f 26/26/26 30/30/30 31/31/31 
f 31/31/31 27/27/27 26/26/26 
f 27/27/27 31/31/31 32/32/32 
f 32/32/32 28/28/28 27/27/27 
f 33/36/33 34/35/34 35/33/35 
f 35/33/35 36/34/36 33/36/33 
f 37/38/37 38/37/38 34/35/34 
f 34/35/34 33/36/33 37/38/37 
f 39/39/39 40/43/40 41/44/41 
f 41/44/41 42/40/42 39/39/39 
f 42/40/42 41/44/41 43/45/43 
f 43/45/43 44/41/44 42/40/42 
f 44/41/44 43/45/43 45/46/45 
f 45/46/45 46/42/46 44/41/44 
f 40/43/40 47/47/47 48/48/48 
f 48/48/48 41/44/41 40/43/40 
f 41/44/41 48/48/48 49/49/49 
f 49/49/49 43/45/43 41/44/41 
f 43/45/43 49/49/49 50/50/50 
f 50/50/50 45/46/45 43/45/43 
f 47/47/47 51/51/51 52/52/52 
f 52/52/52 48/48/48 47/47/47 
f 48/48/48 52/52/52 53/53/53 
f 53/53/53 49/49/49 48/48/48 
f 49/49/49 53/53/53 54/54/54 
f 54/54/54 50/50/50 49/49/49 
f 55/58/55 56/57/56 57/55/57 
f 57/55/57 58/56/58 55/58/55 
f 59/60/59 60/59/60 56/57/56 
f 56/57/56 55/58/55 59/60/59 
f 61/61/61 62/65/62 63/66/63 
f 63/66/63 64/62/64 61/61/61 
f 64/62/64 63/66/63 65/67/65 
f 65/67/65 66/63/66 64/62/64 
f 66/63/66 65/67/65 67/68/67 
f 67/68/67 68/64/68 66/63/66 
f 62/65/62 69/69/69 70/70/70 
f 70/70/70 63/66/63 62/65/62 
f 63/66/63 70/70/70 71/71/71 
f 71/71/71 65/67/65 63/66/63 
f 65/67/65 71/71/71 72/72/72 
f 72/72/72 67/68/67 65/67/65 
f 69/69/69 73/73/73 74/74/74 
f 74/74/74 70/70/70 69/69/69 
f 70/70/70 74/74/74 75/75/75 
f 75/75/75 71/71/71 70/70/70 
f 71/71/71 75/75/75 76/76/76 
f 76/76/76 72/72/72 71/71/71 
f 77/77/77 78/79/78 79/80/79 
f 79/80/79 80/78/80 77/77/77 
f 78/79/78 81/81/81 82/82/82 
f 82/82/82 79/80/79 78/79/78 
f 83/86/83 84/85/84 85/83/85 
f 85/83/85 86/84/86 83/86/83 
f 87/88/87 88/87/88 84/85/84 
f 84/85/84 83/86/83 87/88/87 
f 89/89/89 90/91/90 91/92/91 
f 91/92/91 92/90/92 89/89/89 
f 90/91/90 93/93/93 94/94/94 
f 94/94/94 91/92/91 90/91/90 
f 2/99/95 1/95/96 95/100/97 
f 4/96/98 95/100/97 1/95/96 
f 95/100/97 4/96/98 96/101/99 
f 6/97/100 96/101/99 4/96/98 
f 96/101/99 6/97/100 7/102/101 
f 8/98/102 7/102/101 6/97/100 
f 9/103/103 2/99/95 97/104/104 
f 95/100/97 97/104/104 2/99/95 
f 97/104/104 95/100/97 98/105/105 
f 96/101/99 98/105/105 95/100/97 
f 98/105/105 96/101/99 12/106/106 
f 7/102/101 12/106/106 96/101/99 
f 13/107/107 9/103/103 14/108/108 
f 97/104/104 14/108/108 9/103/103 
f 14/108/108 97/104/104 15/109/109 
f 98/105/105 15/109/109 97/104/104 
f 15/109/109 98/105/105 16/110/110 
f 12/106/106 16/110/110 98/105/105 
f 99/115/111 17/111/112 100/116/113 
f 20/112/114 100/116/113 17/111/112 
f 100/116/113 20/112/114 101/117/115 
f 22/113/116 101/117/115 20/112/114 
f 101/117/115 22/113/116 23/118/117 
f 24/114/118 23/118/117 22/113/116 
f 102/119/119 99/115/111 103/120/120 
f 100/116/113 103/120/120 99/115/111 
f 103/120/120 100/116/113 104/121/121 
f 101/117/115 104/121/121 100/116/113 
f 104/121/121 101/117/115 28/122/122 
f 23/118/117 28/122/122 101/117/115 
f 105/123/123 102/119/119 30/124/124 
f 103/120/120 30/124/124 102/119/119 
f 30/124/124 103/120/120 31/125/125 
f 104/121/121 31/125/125 103/120/120 
f 31/125/125 104/121/121 32/126/126 
f 28/122/122 32/126/126 104/121/121 
f 106/129/127 33/130/128 107/127/129 
f 36/128/130 107/127/129 33/130/128 
f 38/131/131 37/132/132 106/129/127 
f 33/130/128 106/129/127 37/132/132 
f 108/137/133 109/133/134 110/138/135 
f 111/134/136 110/138/135 109/133/134 
f 110/138/135 111/134/136 112/139/137 
f 44/135/138 112/139/137 111/134/136 
f 112/139/137 44/135/138 113/140/139 
f 46/136/140 113/140/139 44/135/138 
f 114/141/141 108/137/133 115/142/142 
f 110/138/135 115/142/142 108/137/133 
f 115/142/142 110/138/135 49/143/143 
f 112/139/137 49/143/143 110/138/135 
f 49/143/143 112/139/137 50/144/144 
f 113/140/139 50/144/144 112/139/137 
f 116/145/145 114/141/141 117/146/146 
f 115/142/142 117/146/146 114/141/141 
f 117/146/146 115/142/142 118/147/147 
f 49/143/143 118/147/147 115/142/142 
f 118/147/147 49/143/143 54/148/148 
f 50/144/144 54/148/148 49/143/143 
f 119/151/149 55/152/150 120/149/151 
f 58/150/152 120/149/151 55/152/150 
f 121/153/153 59/154/154 119/151/149 
f 55/152/150 119/151/149 59/154/154 
f 122/159/155 123/155/156 63/160/157 
f 64/156/158 63/160/157 123/155/156 
f 63/160/157 64/156/158 65/161/159 
f 66/157/160 65/161/159 64/156/158 
f 65/161/159 66/157/160 67/162/161 
f 68/158/162 67/162/161 66/157/160 
f 124/163/163 122/159/155 125/164/164 
f 63/160/157 125/164/164 122/159/155 
f 125/164/164 63/160/157 126/165/165 
f 65/161/159 126/165/165 63/160/157 
f 126/165/165 65/161/159 72/166/166 
f 67/162/161 72/166/166 65/161/159 
f 73/167/167 124/163/163 74/168/168 
f 125/164/164 74/168/168 124/163/163 
f 74/168/168 125/164/164 75/169/169 
f 126/165/165 75/169/169 125/164/164 
f 75/169/169 126/165/165 76/170/170 
f 72/166/166 76/170/170 126/165/165 
f 127/173/171 128/171/172 79/174/173 
f 80/172/174 79/174/173 128/171/172 
f 81/175/175 127/173/171 82/176/176 
f 79/174/173 82/176/176 127/173/171 
f 84/179/177 83/180/178 85/177/179 
f 86/178/180 85/177/179 83/180/178 
f 88/181/181 87/182/182 84/179/177 
f 83/180/178 84/179/177 87/182/182 
f 129/185/183 130/183/184 91/186/185 
f 92/184/186 91/186/185 130/183/184 
f 131/187/187 129/185/183 94/188/188 
f 91/186/185 94/188/188 129/185/183 
# 184 faces

