# 3ds Max Wavefront OBJ Exporter v0.97b - (c)2007 guruware
# File Created: 17.03.2017 22:09:49

mtllib small_house_window_glass.mtl

#
# object glass001
#

v  7.4282 2.7483 -7.9688
v  7.4282 4.3378 -7.9688
v  7.4282 4.3378 -6.4014
v  7.4282 2.7483 -6.4014
v  7.4282 2.7483 -6.0798
v  7.4282 4.3378 -6.0798
v  7.4282 4.3378 -4.5124
v  7.4282 2.7483 -4.5124
v  7.4282 4.5776 -7.9688
v  7.4282 6.1672 -7.9688
v  7.4282 6.1672 -6.4014
v  7.4282 4.5776 -6.4014
v  7.4282 4.5776 -6.0798
v  7.4282 6.1672 -6.0798
v  7.4282 6.1672 -4.5124
v  7.4282 4.5776 -4.5124
v  7.3000 2.7483 -7.9688
v  7.3000 2.7483 -6.4014
v  7.3000 4.3378 -6.4014
v  7.3000 4.3378 -7.9688
v  7.3000 2.7483 -6.0798
v  7.3000 2.7483 -4.5124
v  7.3000 4.3378 -4.5124
v  7.3000 4.3378 -6.0798
v  7.3000 4.5776 -7.9688
v  7.3000 4.5776 -6.4014
v  7.3000 6.1672 -6.4014
v  7.3000 6.1672 -7.9688
v  7.3000 4.5776 -6.0798
v  7.3000 4.5776 -4.5124
v  7.3000 6.1672 -4.5124
v  7.3000 6.1672 -6.0798
v  7.4282 2.7483 3.4719
v  7.4282 4.3378 3.4719
v  7.4282 4.3378 5.0393
v  7.4282 2.7483 5.0393
v  7.4282 2.7483 5.3609
v  7.4282 4.3378 5.3609
v  7.4282 4.3378 6.9284
v  7.4282 2.7483 6.9284
v  7.4282 4.5776 3.4719
v  7.4282 6.1672 3.4719
v  7.4282 6.1672 5.0393
v  7.4282 4.5776 5.0393
v  7.4282 4.5776 5.3609
v  7.4282 6.1672 5.3609
v  7.4282 6.1672 6.9284
v  7.4282 4.5776 6.9284
v  7.3000 2.7483 3.4719
v  7.3000 2.7483 5.0393
v  7.3000 4.3378 5.0393
v  7.3000 4.3378 3.4719
v  7.3000 2.7483 5.3609
v  7.3000 2.7483 6.9284
v  7.3000 4.3378 6.9284
v  7.3000 4.3378 5.3609
v  7.3000 4.5776 3.4719
v  7.3000 4.5776 5.0393
v  7.3000 6.1672 5.0393
v  7.3000 6.1672 3.4719
v  7.3000 4.5776 5.3609
v  7.3000 4.5776 6.9284
v  7.3000 6.1672 6.9284
v  7.3000 6.1672 5.3609
v  -7.3673 2.7483 3.4719
v  -7.3673 4.3378 5.0393
v  -7.3673 4.3378 3.4719
v  -7.3673 2.7483 5.0393
v  -7.3673 2.7483 5.3609
v  -7.3673 4.3378 6.9284
v  -7.3673 4.3378 5.3609
v  -7.3673 2.7483 6.9284
v  -7.3673 4.5776 3.4719
v  -7.3673 6.1672 5.0393
v  -7.3673 6.1672 3.4719
v  -7.3673 4.5776 5.0393
v  -7.3673 4.5776 5.3609
v  -7.3673 6.1672 6.9284
v  -7.3673 6.1672 5.3609
v  -7.3673 4.5776 6.9284
v  -7.2391 2.7483 3.4719
v  -7.2391 4.3378 5.0393
v  -7.2391 2.7483 5.0393
v  -7.2391 4.3378 3.4719
v  -7.2391 2.7483 5.3609
v  -7.2391 4.3378 6.9284
v  -7.2391 2.7483 6.9284
v  -7.2391 4.3378 5.3609
v  -7.2391 4.5776 3.4719
v  -7.2391 6.1672 5.0393
v  -7.2391 4.5776 5.0393
v  -7.2391 6.1672 3.4719
v  -7.2391 4.5776 5.3609
v  -7.2391 6.1672 6.9284
v  -7.2391 4.5776 6.9284
v  -7.2391 6.1672 5.3609
v  -7.3673 2.7483 -7.9688
v  -7.3672 4.3378 -6.4014
v  -7.3673 4.3378 -7.9688
v  -7.3672 2.7483 -6.4014
v  -7.3673 2.7483 -6.0798
v  -7.3672 4.3378 -4.5124
v  -7.3672 4.3378 -6.0798
v  -7.3672 2.7483 -4.5124
v  -7.3673 4.5776 -7.9688
v  -7.3672 6.1672 -6.4014
v  -7.3673 6.1672 -7.9688
v  -7.3672 4.5776 -6.4014
v  -7.3673 4.5776 -6.0798
v  -7.3673 6.1672 -4.5124
v  -7.3672 6.1672 -6.0798
v  -7.3672 4.5776 -4.5124
v  -7.2391 2.7483 -7.9688
v  -7.2391 4.3378 -6.4014
v  -7.2391 2.7483 -6.4014
v  -7.2391 4.3378 -7.9688
v  -7.2391 2.7483 -6.0798
v  -7.2391 4.3378 -4.5124
v  -7.2391 2.7483 -4.5124
v  -7.2391 4.3378 -6.0798
v  -7.2391 4.5776 -7.9688
v  -7.2391 6.1672 -6.4014
v  -7.2391 4.5776 -6.4014
v  -7.2391 6.1672 -7.9688
v  -7.2391 4.5776 -6.0798
v  -7.2391 6.1672 -4.5124
v  -7.2391 4.5776 -4.5124
v  -7.2391 6.1672 -6.0798
v  -2.1380 2.7483 -13.0286
v  -3.7054 4.3378 -13.0286
v  -2.1380 4.3378 -13.0286
v  -3.7054 2.7483 -13.0286
v  -4.0271 2.7483 -13.0286
v  -5.5945 4.3378 -13.0286
v  -4.0271 4.3378 -13.0286
v  -5.5945 2.7483 -13.0286
v  -2.1380 4.5776 -13.0286
v  -3.7054 6.1672 -13.0286
v  -2.1380 6.1672 -13.0286
v  -3.7054 4.5776 -13.0286
v  -4.0271 4.5776 -13.0286
v  -5.5945 6.1672 -13.0286
v  -4.0271 6.1672 -13.0286
v  -5.5945 4.5776 -13.0286
v  -2.1380 2.7483 -12.9004
v  -3.7054 4.3378 -12.9004
v  -3.7054 2.7483 -12.9004
v  -2.1380 4.3378 -12.9004
v  -4.0271 2.7483 -12.9004
v  -5.5945 4.3378 -12.9004
v  -5.5945 2.7483 -12.9004
v  -4.0271 4.3378 -12.9004
v  -2.1380 4.5776 -12.9004
v  -3.7054 6.1672 -12.9004
v  -3.7054 4.5776 -12.9004
v  -2.1380 6.1672 -12.9004
v  -4.0271 4.5776 -12.9004
v  -5.5945 6.1672 -12.9004
v  -5.5945 4.5776 -12.9004
v  -4.0271 6.1672 -12.9004
# 160 vertices

vn 1.0000 0.0000 0.0000
vn -1.0000 -0.0000 -0.0000
vn -1.0000 0.0000 0.0000
vn -1.0000 -0.0000 0.0000
vn -1.0000 0.0000 -0.0000
vn 1.0000 -0.0000 -0.0000
vn 1.0000 0.0000 -0.0000
vn 1.0000 -0.0000 0.0000
vn -0.0000 0.0000 -1.0000
vn -0.0000 -0.0000 -1.0000
vn 0.0000 0.0000 -1.0000
vn 0.0000 -0.0000 1.0000
vn 0.0000 0.0000 1.0000
# 13 vertex normals

vt -0.2401 -0.2333 0.0000
vt -0.2401 -0.1961 0.0000
vt -0.2906 -0.1961 0.0000
vt -0.2909 -0.2333 0.0000
vt -0.2907 -0.1961 0.0000
vt -0.2910 -0.2333 0.0000
vt -0.2402 -0.2335 0.0000
vt -0.2402 -0.1960 0.0000
vt -0.2909 -0.1960 0.0000
vt -0.2912 -0.2335 0.0000
vt -0.2401 -0.2335 0.0000
vt -0.2401 -0.1960 0.0000
vt -0.2907 -0.1960 0.0000
vt -0.2910 -0.2335 0.0000
vt -0.2405 -0.1963 0.0000
vt -0.2915 -0.1964 0.0000
vt -0.2912 -0.2339 0.0000
vt -0.2405 -0.2339 0.0000
vt -0.2913 -0.1964 0.0000
vt -0.2910 -0.2339 0.0000
vt -0.2401 -0.1965 0.0000
vt -0.2919 -0.1965 0.0000
vt -0.2916 -0.2337 0.0000
vt -0.2401 -0.2337 0.0000
vt -0.2917 -0.1965 0.0000
vt -0.2914 -0.2337 0.0000
# 26 texture coords

g glass001
usemtl Material__1
s 2
f 1/1/1 2/2/1 3/3/1 
f 3/3/1 4/4/1 1/1/1 
f 5/1/1 6/2/1 7/5/1 
f 7/5/1 8/6/1 5/1/1 
f 9/7/1 10/8/1 11/9/1 
f 11/9/1 12/10/1 9/7/1 
f 13/11/1 14/12/1 15/13/1 
f 15/13/1 16/14/1 13/11/1 
s 4
f 17/15/2 18/16/2 19/17/2 
f 19/17/2 20/18/2 17/15/2 
f 21/15/2 22/19/2 23/20/2 
f 23/20/2 24/18/2 21/15/2 
f 25/21/2 26/22/2 27/23/2 
f 27/23/2 28/24/2 25/21/2 
f 29/21/2 30/25/2 31/26/2 
f 31/26/2 32/24/2 29/21/2 
s 2
f 33/1/1 34/2/1 35/3/1 
f 35/3/1 36/4/1 33/1/1 
f 37/1/1 38/2/1 39/5/1 
f 39/5/1 40/6/1 37/1/1 
f 41/7/1 42/8/1 43/9/1 
f 43/9/1 44/10/1 41/7/1 
f 45/11/1 46/12/1 47/13/1 
f 47/13/1 48/14/1 45/11/1 
s 4
f 49/15/2 50/16/2 51/17/2 
f 51/17/2 52/18/2 49/15/2 
f 53/15/2 54/19/2 55/20/2 
f 55/20/2 56/18/2 53/15/2 
f 57/21/2 58/22/2 59/23/2 
f 59/23/2 60/24/2 57/21/2 
f 61/21/2 62/25/2 63/26/2 
f 63/26/2 64/24/2 61/21/2 
s 2
f 65/1/3 66/3/3 67/2/3 
f 66/3/3 65/1/3 68/4/4 
f 69/1/3 70/5/3 71/2/5 
f 70/5/3 69/1/3 72/6/4 
f 73/7/3 74/9/3 75/8/3 
f 74/9/3 73/7/3 76/10/4 
f 77/11/3 78/13/3 79/12/5 
f 78/13/3 77/11/3 80/14/4 
s 4
f 81/15/6 82/17/6 83/16/7 
f 82/17/6 81/15/6 84/18/8 
f 85/15/6 86/20/6 87/19/7 
f 86/20/6 85/15/6 88/18/8 
f 89/21/6 90/23/6 91/22/7 
f 90/23/6 89/21/6 92/24/6 
f 93/21/6 94/26/6 95/25/7 
f 94/26/6 93/21/6 96/24/8 
s 2
f 97/1/3 98/3/3 99/2/3 
f 98/3/3 97/1/3 100/4/4 
f 101/1/3 102/5/3 103/2/5 
f 102/5/3 101/1/3 104/6/4 
f 105/7/3 106/9/3 107/8/3 
f 106/9/3 105/7/3 108/10/4 
f 109/11/3 110/13/3 111/12/5 
f 110/13/3 109/11/3 112/14/4 
s 4
f 113/15/6 114/17/6 115/16/7 
f 114/17/6 113/15/6 116/18/8 
f 117/15/6 118/20/6 119/19/7 
f 118/20/6 117/15/6 120/18/8 
f 121/21/6 122/23/6 123/22/6 
f 122/23/6 121/21/6 124/24/6 
f 125/21/6 126/26/6 127/25/7 
f 126/26/6 125/21/6 128/24/8 
s 2
f 129/1/9 130/3/9 131/2/9 
f 130/3/9 129/1/9 132/4/10 
f 133/1/11 134/5/11 135/2/11 
f 134/5/11 133/1/11 136/6/11 
f 137/7/11 138/9/11 139/8/11 
f 138/9/11 137/7/11 140/10/11 
f 141/11/10 142/13/10 143/12/10 
f 142/13/10 141/11/10 144/14/10 
s 4
f 145/15/12 146/17/12 147/16/13 
f 146/17/12 145/15/12 148/18/12 
f 149/15/13 150/20/13 151/19/13 
f 150/20/13 149/15/13 152/18/13 
f 153/21/13 154/23/13 155/22/13 
f 154/23/13 153/21/13 156/24/13 
f 157/21/13 158/26/13 159/25/13 
f 158/26/13 157/21/13 160/24/13 
# 80 faces

