# 3ds Max Wavefront OBJ Exporter v0.97b - (c)2007 guruware
# File Created: 09.04.2017 21:33:01

#
# object Object002
#

v  -1.90092 0.87706 -24.78929
v  -0.07467 0.87706 -25.95334
v  -2.13041 2.42962 -25.41157
v  -0.07467 2.42962 -26.68213
v  -3.13460 0.87706 -22.81713
v  -3.32424 2.42506 -23.46272
v  -2.37561 4.58641 -26.33703
v  -0.07467 4.58641 -27.73671
v  -3.62458 4.56490 -24.31339
v  -2.09587 0.79883 -24.96901
v  -0.00462 0.79883 -26.21809
v  -0.00272 0.81122 -25.97835
v  -1.89964 0.81122 -24.76925
v  -0.00462 2.41148 -26.97508
v  -0.00272 2.42387 -26.73534
v  -3.41089 0.79883 -22.75230
v  -3.18106 0.81122 -22.72077
v  -3.60788 2.40674 -23.42287
v  -3.37804 2.41913 -23.39134
v  -0.00462 4.65174 -28.07047
v  -2.58893 4.65174 -26.57665
v  -2.39270 4.66413 -26.37689
v  -0.00272 4.66413 -27.83074
v  -3.91984 4.62939 -24.30647
v  -3.69001 4.64178 -24.27493
v  -0.06344 0.84867 -26.19712
v  -2.09571 0.84867 -24.98328
v  -2.32735 2.41583 -25.61141
v  -0.06344 2.41583 -26.93276
v  -3.37364 0.84867 -22.82909
v  -3.56507 2.41123 -23.48075
v  -2.57485 4.59290 -26.54557
v  -0.06344 4.59290 -27.99726
v  -3.86823 4.57119 -24.33942
# 34 vertices

vn 0.67983 0.29418 0.67178
vn 0.53107 0.32242 0.78359
vn 0.66660 0.35694 0.65439
vn 0.53005 0.36738 0.76425
vn 0.79573 0.26483 0.54469
vn 0.77497 0.32415 0.54253
vn 0.64252 0.41292 0.64550
vn 0.50843 0.41529 0.75434
vn 0.77281 0.35769 0.52424
vn 0.03197 -0.99900 0.03123
vn 0.03067 -0.99821 0.05135
vn 0.03032 -0.99826 0.05062
vn 0.03211 -0.99901 0.03085
vn 0.99996 -0.00363 -0.00773
vn 0.99996 -0.00372 -0.00772
vn 0.99996 -0.00368 -0.00772
vn 0.04863 -0.99836 0.03030
vn 0.04957 -0.99829 0.03101
vn -0.14583 0.35596 0.92305
vn -0.14583 0.36553 0.91931
vn -0.14583 0.35734 0.92252
vn -0.03050 0.99827 -0.05031
vn -0.03425 0.99900 -0.02860
vn -0.03431 0.99900 -0.02866
vn -0.03124 0.99819 -0.05135
vn 0.99996 -0.00377 -0.00772
vn -0.14582 0.34773 0.92619
vn -0.14583 0.34773 0.92619
vn -0.05108 0.99849 -0.02011
vn -0.05077 0.99851 -0.01997
vn -0.51300 -0.31592 -0.79814
vn -0.68041 -0.28234 -0.67626
vn -0.66615 -0.35749 -0.65455
vn -0.51428 -0.37118 -0.77314
vn -0.80968 -0.24853 -0.53165
vn -0.78521 -0.32034 -0.52994
vn -0.63933 -0.42298 -0.64214
vn -0.49121 -0.42470 -0.76049
vn -0.78186 -0.36058 -0.50860
vn -0.53995 -0.30768 -0.78344
vn -0.71749 -0.18951 -0.67030
vn -0.56260 -0.35799 -0.74520
vn -0.79410 -0.25585 -0.55132
vn -0.74556 -0.33294 -0.57731
vn -0.60008 -0.48111 -0.63909
vn -0.50148 -0.43166 -0.74979
vn -0.76283 -0.38038 -0.52287
vn 0.71257 0.21694 0.66722
vn 0.55339 0.31136 0.77254
vn 0.57413 0.35454 0.73802
vn 0.78370 0.26745 0.56061
vn 0.73879 0.33509 0.58472
vn 0.51555 0.42372 0.74476
vn 0.60704 0.46427 0.64495
vn 0.75673 0.37672 0.53427
# 55 vertex normals

vt 0.90761 0.87632 0.00000
vt 0.90761 0.90457 0.00000
vt 0.88091 0.87277 0.00000
vt 0.88091 0.90457 0.00000
vt 0.90707 0.94089 0.00000
vt 0.89454 0.96878 0.00000
vt 0.87863 0.94117 0.00000
vt 0.86618 0.96871 0.00000
vt 0.84383 0.86898 0.00000
vt 0.84383 0.90457 0.00000
vt 0.83959 0.94098 0.00000
vt 0.82640 0.96947 0.00000
vt 0.86837 0.84888 0.00000
vt 0.90448 0.85647 0.00000
vt 0.90197 0.85885 0.00000
vt 0.86840 0.85272 0.00000
vt 0.90326 0.84184 0.00000
vt 0.87615 0.84147 0.00000
vt 0.87758 0.83845 0.00000
vt 0.90469 0.83881 0.00000
vt 0.83052 0.85821 0.00000
vt 0.83270 0.86071 0.00000
vt 0.95263 0.85206 0.00000
vt 0.97809 0.85486 0.00000
vt 0.97790 0.85814 0.00000
vt 0.95243 0.85533 0.00000
vt 0.82158 0.92912 0.00000
vt 0.86528 0.91787 0.00000
vt 0.86539 0.92171 0.00000
vt 0.82419 0.93142 0.00000
vt 0.83821 0.84151 0.00000
vt 0.83964 0.83848 0.00000
vt 0.91743 0.84761 0.00000
vt 0.91724 0.85089 0.00000
vt 0.90422 0.92636 0.00000
vt 0.90214 0.92893 0.00000
vt 0.97963 0.86684 0.00000
vt 0.97963 0.89806 0.00000
vt 0.95287 0.90161 0.00000
vt 0.95287 0.86684 0.00000
vt 0.97914 0.93628 0.00000
vt 0.97914 0.96887 0.00000
vt 0.95287 0.95901 0.00000
vt 0.95279 0.92678 0.00000
vt 0.91570 0.90542 0.00000
vt 0.91570 0.86684 0.00000
vt 0.91655 0.94602 0.00000
vt 0.91618 0.91265 0.00000
vt 0.98048 0.86594 0.00000
vt 0.98048 0.89806 0.00000
vt 0.95294 0.86594 0.00000
vt 0.97998 0.93650 0.00000
vt 0.97998 0.97003 0.00000
vt 0.95294 0.95989 0.00000
vt 0.91469 0.90563 0.00000
vt 0.91469 0.86594 0.00000
vt 0.91557 0.94652 0.00000
vt 0.91519 0.91218 0.00000
vt 0.90874 0.87634 0.00000
vt 0.90874 0.90568 0.00000
vt 0.88101 0.90568 0.00000
vt 0.90871 0.93990 0.00000
vt 0.89570 0.96887 0.00000
vt 0.87918 0.94020 0.00000
vt 0.84249 0.90568 0.00000
vt 0.84249 0.86871 0.00000
vt 0.83863 0.93999 0.00000
vt 0.82493 0.96959 0.00000
# 68 texture coords

g Object002
f 1/1/1 2/2/2 3/3/3 
f 4/4/4 3/3/3 2/2/2 
f 5/5/5 1/6/1 6/7/6 
f 3/8/3 6/7/6 1/6/1 
f 3/3/3 4/4/4 7/9/7 
f 8/10/8 7/9/7 4/4/4 
f 6/7/6 3/8/3 9/11/9 
f 7/12/7 9/11/9 3/8/3 
f 10/13/10 11/14/11 12/15/12 
f 12/15/12 13/16/13 10/13/10 
f 11/17/14 14/18/15 15/19/16 
f 15/19/16 12/20/14 11/17/14 
f 16/21/17 10/13/10 13/16/13 
f 13/16/13 17/22/18 16/21/17 
f 18/23/19 16/24/20 17/25/20 
f 17/25/20 19/26/21 18/23/19 
f 20/27/22 21/28/23 22/29/24 
f 22/29/24 23/30/25 20/27/22 
f 14/18/15 20/31/26 23/32/26 
f 23/32/26 15/19/16 14/18/15 
f 24/33/27 18/23/19 19/26/21 
f 19/26/21 25/34/28 24/33/27 
f 21/28/23 24/35/29 25/36/30 
f 25/36/30 22/29/24 21/28/23 
f 26/37/31 27/38/32 28/39/33 
f 28/39/33 29/40/34 26/37/31 
f 27/41/32 30/42/35 31/43/36 
f 31/43/36 28/44/33 27/41/32 
f 29/40/34 28/39/33 32/45/37 
f 32/45/37 33/46/38 29/40/34 
f 28/44/33 31/43/36 34/47/39 
f 34/47/39 32/48/37 28/44/33 
f 11/49/40 10/50/41 27/38/32 
f 27/38/32 26/37/31 11/49/40 
f 14/51/42 11/49/40 26/37/31 
f 26/37/31 29/40/34 14/51/42 
f 10/52/41 16/53/43 30/42/35 
f 30/42/35 27/41/32 10/52/41 
f 16/53/43 18/54/44 31/43/36 
f 31/43/36 30/42/35 16/53/43 
f 21/55/45 20/56/46 33/46/38 
f 33/46/38 32/45/37 21/55/45 
f 20/56/46 14/51/42 29/40/34 
f 29/40/34 33/46/38 20/56/46 
f 18/54/44 24/57/47 34/47/39 
f 34/47/39 31/43/36 18/54/44 
f 24/57/47 21/58/45 32/48/37 
f 32/48/37 34/47/39 24/57/47 
f 13/59/48 12/60/49 2/2/2 
f 2/2/2 1/1/1 13/59/48 
f 12/60/49 15/61/50 4/4/4 
f 4/4/4 2/2/2 12/60/49 
f 17/62/51 13/63/48 1/6/1 
f 1/6/1 5/5/5 17/62/51 
f 19/64/52 17/62/51 5/5/5 
f 5/5/5 6/7/6 19/64/52 
f 23/65/53 22/66/54 7/9/7 
f 7/9/7 8/10/8 23/65/53 
f 15/61/50 23/65/53 8/10/8 
f 8/10/8 4/4/4 15/61/50 
f 25/67/55 19/64/52 6/7/6 
f 6/7/6 9/11/9 25/67/55 
f 22/68/54 25/67/55 9/11/9 
f 9/11/9 7/12/7 22/68/54 
# 64 faces

