# 3ds Max Wavefront OBJ Exporter v0.97b - (c)2007 guruware
# File Created: 09.04.2017 21:33:26

#
# object Object003
#

v  0.07467 0.87706 -25.95334
v  1.90092 0.87706 -24.78929
v  2.13041 2.42962 -25.41157
v  0.07467 2.42962 -26.68213
v  3.13460 0.87706 -22.81713
v  3.32424 2.42506 -23.46272
v  2.37561 4.58641 -26.33703
v  0.07467 4.58641 -27.73671
v  3.62458 4.56490 -24.31339
v  0.00462 0.79883 -26.21809
v  2.09587 0.79883 -24.96901
v  0.00272 0.81122 -25.97835
v  1.89964 0.81122 -24.76925
v  0.00462 2.41147 -26.97508
v  0.00272 2.42387 -26.73534
v  3.41089 0.79883 -22.75230
v  3.18106 0.81122 -22.72077
v  3.60788 2.40674 -23.42287
v  3.37804 2.41913 -23.39134
v  2.58893 4.65173 -26.57665
v  0.00462 4.65173 -28.07047
v  2.39270 4.66413 -26.37689
v  0.00272 4.66413 -27.83074
v  3.91984 4.62939 -24.30647
v  3.69001 4.64178 -24.27493
v  2.09571 0.84867 -24.98328
v  0.06344 0.84867 -26.19712
v  2.32735 2.41583 -25.61141
v  0.06344 2.41583 -26.93276
v  3.37364 0.84867 -22.82909
v  3.56507 2.41123 -23.48075
v  2.57485 4.59290 -26.54557
v  0.06344 4.59290 -27.99726
v  3.86823 4.57118 -24.33942
# 34 vertices

vn -0.53107 0.32242 0.78359
vn -0.67983 0.29418 0.67178
vn -0.66660 0.35694 0.65439
vn -0.53005 0.36738 0.76425
vn -0.79573 0.26483 0.54469
vn -0.77497 0.32415 0.54253
vn -0.64252 0.41292 0.64550
vn -0.50843 0.41529 0.75434
vn -0.77281 0.35769 0.52424
vn -0.03067 -0.99821 0.05135
vn -0.03197 -0.99900 0.03123
vn -0.03032 -0.99826 0.05062
vn -0.03211 -0.99901 0.03085
vn -0.99996 -0.00372 -0.00772
vn -0.99996 -0.00363 -0.00773
vn -0.99996 -0.00368 -0.00772
vn -0.04863 -0.99836 0.03030
vn -0.04957 -0.99829 0.03101
vn 0.14583 0.36553 0.91931
vn 0.14583 0.35596 0.92305
vn 0.14583 0.35734 0.92252
vn 0.03425 0.99900 -0.02860
vn 0.03050 0.99827 -0.05031
vn 0.03431 0.99900 -0.02866
vn 0.03124 0.99819 -0.05135
vn -0.99996 -0.00377 -0.00772
vn 0.14582 0.34773 0.92619
vn 0.14583 0.34773 0.92619
vn 0.05108 0.99849 -0.02012
vn 0.05077 0.99851 -0.01997
vn 0.68041 -0.28234 -0.67626
vn 0.51300 -0.31592 -0.79814
vn 0.66615 -0.35749 -0.65455
vn 0.51428 -0.37118 -0.77314
vn 0.80968 -0.24853 -0.53165
vn 0.78521 -0.32034 -0.52994
vn 0.63933 -0.42298 -0.64214
vn 0.49121 -0.42470 -0.76049
vn 0.78186 -0.36058 -0.50860
vn 0.71749 -0.18951 -0.67030
vn 0.53995 -0.30768 -0.78344
vn 0.56260 -0.35799 -0.74520
vn 0.79410 -0.25585 -0.55132
vn 0.74556 -0.33294 -0.57731
vn 0.50148 -0.43166 -0.74979
vn 0.60008 -0.48111 -0.63909
vn 0.76283 -0.38038 -0.52287
vn -0.55339 0.31136 0.77254
vn -0.71257 0.21694 0.66722
vn -0.57413 0.35454 0.73802
vn -0.78370 0.26745 0.56061
vn -0.73879 0.33509 0.58472
vn -0.60704 0.46427 0.64495
vn -0.51555 0.42373 0.74476
vn -0.75673 0.37672 0.53427
# 55 vertex normals

vt 0.97094 0.68678 0.00000
vt 0.97094 0.71370 0.00000
vt 0.94481 0.71709 0.00000
vt 0.94481 0.68678 0.00000
vt 0.97050 0.78803 0.00000
vt 0.97050 0.81669 0.00000
vt 0.94481 0.80731 0.00000
vt 0.94474 0.77898 0.00000
vt 0.90852 0.72070 0.00000
vt 0.90852 0.68678 0.00000
vt 0.90931 0.79495 0.00000
vt 0.90895 0.76553 0.00000
vt 0.89715 0.69241 0.00000
vt 0.86212 0.70072 0.00000
vt 0.89460 0.69022 0.00000
vt 0.86201 0.69707 0.00000
vt 0.85200 0.74355 0.00000
vt 0.87680 0.73528 0.00000
vt 0.85444 0.74584 0.00000
vt 0.87924 0.73757 0.00000
vt 0.82474 0.69297 0.00000
vt 0.82678 0.69052 0.00000
vt 0.89845 0.77241 0.00000
vt 0.87334 0.77202 0.00000
vt 0.89875 0.76929 0.00000
vt 0.87365 0.76890 0.00000
vt 0.85913 0.71953 0.00000
vt 0.81596 0.71012 0.00000
vt 0.85909 0.71587 0.00000
vt 0.81842 0.70785 0.00000
vt 0.81709 0.75465 0.00000
vt 0.81953 0.75694 0.00000
vt 0.83856 0.77201 0.00000
vt 0.83887 0.76890 0.00000
vt 0.89690 0.71028 0.00000
vt 0.89476 0.70790 0.00000
vt 0.90026 0.78725 0.00000
vt 0.90026 0.81700 0.00000
vt 0.87407 0.78386 0.00000
vt 0.87407 0.81700 0.00000
vt 0.97047 0.72865 0.00000
vt 0.95719 0.75744 0.00000
vt 0.94261 0.72892 0.00000
vt 0.92941 0.75738 0.00000
vt 0.83769 0.78023 0.00000
vt 0.83769 0.81700 0.00000
vt 0.90436 0.72874 0.00000
vt 0.89043 0.75810 0.00000
vt 0.90109 0.78725 0.00000
vt 0.90109 0.81786 0.00000
vt 0.87414 0.81786 0.00000
vt 0.97170 0.72789 0.00000
vt 0.95804 0.75752 0.00000
vt 0.94304 0.72817 0.00000
vt 0.83671 0.81786 0.00000
vt 0.83671 0.78003 0.00000
vt 0.90368 0.72798 0.00000
vt 0.88934 0.75820 0.00000
vt 0.97204 0.68572 0.00000
vt 0.97204 0.71368 0.00000
vt 0.94491 0.68572 0.00000
vt 0.97159 0.78832 0.00000
vt 0.97159 0.81809 0.00000
vt 0.94491 0.80835 0.00000
vt 0.90721 0.72095 0.00000
vt 0.90721 0.68572 0.00000
vt 0.90803 0.79550 0.00000
vt 0.90766 0.76495 0.00000
# 68 texture coords

g Object003
f 1/1/1 2/2/2 3/3/3 
f 3/3/3 4/4/4 1/1/1 
f 2/5/2 5/6/5 6/7/6 
f 6/7/6 3/8/3 2/5/2 
f 4/4/4 3/3/3 7/9/7 
f 7/9/7 8/10/8 4/4/4 
f 3/8/3 6/7/6 9/11/9 
f 9/11/9 7/12/7 3/8/3 
f 10/13/10 11/14/11 12/15/12 
f 13/16/13 12/15/12 11/14/11 
f 14/17/14 10/18/15 15/19/16 
f 12/20/15 15/19/16 10/18/15 
f 11/14/11 16/21/17 13/16/13 
f 17/22/18 13/16/13 16/21/17 
f 16/23/19 18/24/20 17/25/19 
f 19/26/21 17/25/19 18/24/20 
f 20/27/22 21/28/23 22/29/24 
f 23/30/25 22/29/24 21/28/23 
f 21/31/26 14/17/14 23/32/26 
f 15/19/16 23/32/26 14/17/14 
f 18/24/20 24/33/27 19/26/21 
f 25/34/28 19/26/21 24/33/27 
f 24/35/29 20/27/22 25/36/30 
f 22/29/24 25/36/30 20/27/22 
f 26/37/31 27/38/32 28/39/33 
f 29/40/34 28/39/33 27/38/32 
f 30/41/35 26/42/31 31/43/36 
f 28/44/33 31/43/36 26/42/31 
f 28/39/33 29/40/34 32/45/37 
f 33/46/38 32/45/37 29/40/34 
f 31/43/36 28/44/33 34/47/39 
f 32/48/37 34/47/39 28/44/33 
f 11/49/40 10/50/41 26/37/31 
f 27/38/32 26/37/31 10/50/41 
f 10/50/41 14/51/42 27/38/32 
f 29/40/34 27/38/32 14/51/42 
f 16/52/43 11/53/40 30/41/35 
f 26/42/31 30/41/35 11/53/40 
f 18/54/44 16/52/43 31/43/36 
f 30/41/35 31/43/36 16/52/43 
f 21/55/45 20/56/46 33/46/38 
f 32/45/37 33/46/38 20/56/46 
f 14/51/42 21/55/45 29/40/34 
f 33/46/38 29/40/34 21/55/45 
f 24/57/47 18/54/44 34/47/39 
f 31/43/36 34/47/39 18/54/44 
f 20/58/46 24/57/47 32/48/37 
f 34/47/39 32/48/37 24/57/47 
f 12/59/48 13/60/49 1/1/1 
f 2/2/2 1/1/1 13/60/49 
f 15/61/50 12/59/48 4/4/4 
f 1/1/1 4/4/4 12/59/48 
f 13/62/49 17/63/51 2/5/2 
f 5/6/5 2/5/2 17/63/51 
f 17/63/51 19/64/52 5/6/5 
f 6/7/6 5/6/5 19/64/52 
f 22/65/53 23/66/54 7/9/7 
f 8/10/8 7/9/7 23/66/54 
f 23/66/54 15/61/50 8/10/8 
f 4/4/4 8/10/8 15/61/50 
f 19/64/52 25/67/55 6/7/6 
f 9/11/9 6/7/6 25/67/55 
f 25/67/55 22/68/53 9/11/9 
f 7/12/7 9/11/9 22/68/53 
# 64 faces

