# 3ds Max Wavefront OBJ Exporter v0.97b - (c)2007 guruware
# File Created: 14.04.2017 13:30:27

#
# object rocket_launcher
#

v  -2.78484 6.10830 15.97559
v  -2.78484 6.10726 15.52707
v  -2.33011 5.99698 15.52707
v  -2.33011 6.10791 15.97559
v  -1.87538 6.10726 15.52707
v  -1.87538 6.10830 15.97559
v  -2.78484 6.10830 15.07854
v  -2.33011 6.10791 15.07854
v  -1.87538 6.10830 15.07854
v  -4.11104 7.68301 16.60854
v  -2.73720 7.68301 16.60854
v  -2.73720 7.68301 15.52707
v  -4.11104 7.68301 15.52707
v  -2.65471 7.89931 16.53932
v  -1.44583 8.01019 16.53561
v  -1.44583 8.01019 15.52707
v  -2.65471 7.89931 15.52707
v  -2.73720 7.68301 14.44559
v  -4.11104 7.68301 14.44559
v  -1.44583 8.01019 14.51852
v  -2.65471 7.89931 14.51481
v  -4.11104 6.67687 16.75273
v  -2.73720 6.67687 16.75273
v  -2.73720 7.60768 16.75273
v  -4.11104 7.60768 16.75273
v  -1.42720 6.67687 16.75273
v  -1.42720 7.60768 16.75273
v  -1.09511 6.71023 16.48785
v  -1.09511 6.71023 15.52707
v  -1.09511 7.57433 15.52707
v  -1.09511 7.57433 16.48785
v  -1.09511 6.71023 14.56628
v  -1.09511 7.57433 14.56628
v  -1.42720 6.67687 14.30140
v  -2.73720 6.67687 14.30140
v  -2.73720 7.60768 14.30140
v  -1.42720 7.60768 14.30140
v  -4.11104 6.67687 14.30140
v  -4.11104 7.60768 14.30140
v  -4.18314 6.68551 14.52956
v  -4.18314 6.68551 15.44310
v  -4.18314 7.59905 15.44310
v  -4.18314 7.59905 14.52956
v  -4.18314 6.68551 15.61103
v  -4.18314 6.68551 16.52457
v  -4.18314 7.59905 16.52457
v  -4.18314 7.59905 15.61103
v  -4.11104 6.60154 16.60854
v  -4.11104 6.60154 15.52707
v  -2.85963 6.52944 15.52707
v  -2.85963 6.52944 16.04937
v  -2.73720 6.60154 16.60854
v  -2.33011 6.52944 16.04937
v  -1.36335 6.60154 15.52707
v  -1.36335 6.60154 16.60854
v  -1.80059 6.52944 16.04937
v  -1.80059 6.52944 15.52707
v  -4.11104 6.60154 14.44559
v  -2.85963 6.52944 15.00476
v  -2.73720 6.60154 14.44559
v  -2.33011 6.52944 15.00476
v  -1.36335 6.60154 14.44559
v  -1.80059 6.52944 15.00476
v  -1.36335 7.68301 15.52707
v  -1.36335 7.68301 16.60854
v  -1.36335 7.68301 14.44559
# 66 vertices

vn -0.12090 -0.98515 0.12191
vn -0.17720 -0.98237 -0.05957
vn 0.00000 -1.00000 0.00000
vn 0.05973 -0.98150 0.18193
vn 0.17720 -0.98237 0.05957
vn 0.00085 -1.00000 0.00232
vn -0.00085 -1.00000 -0.00232
vn -0.05973 -0.98150 -0.18193
vn 0.12090 -0.98515 -0.12191
vn 0.00000 1.00000 -0.00000
vn -0.09134 0.99582 -0.00000
vn 0.00000 0.00000 1.00000
vn 1.00000 0.00000 -0.00000
vn 0.00000 0.00000 -1.00000
vn -1.00000 0.00000 -0.00000
vn -0.05752 -0.99834 -0.00000
vn 0.00000 -0.99179 0.12788
vn 0.16270 -0.98668 -0.00000
vn 0.00000 -0.99179 -0.12788
vn -0.98467 -0.17444 -0.00000
vn -0.98458 -0.17492 0.00041
vn 0.00000 -0.17254 0.98500
vn -0.00015 -0.17239 0.98503
vn 0.98459 -0.17485 -0.00000
vn 0.98467 -0.17444 0.00040
vn 0.00000 -0.17239 0.98503
vn 0.00015 -0.17257 0.98500
vn -0.98459 -0.17485 -0.00000
vn -0.98467 -0.17444 -0.00040
vn 0.00000 -0.17239 -0.98503
vn -0.00015 -0.17257 -0.98500
vn 0.00000 -0.17254 -0.98500
vn 0.00015 -0.17239 -0.98503
vn 0.98467 -0.17444 -0.00000
vn 0.98458 -0.17492 -0.00041
vn -0.75869 0.65145 -0.00000
vn -0.75869 0.00000 -0.65145
vn -0.75869 -0.65145 -0.00000
vn -0.75869 0.00000 0.65145
vn 0.37551 0.92682 -0.00000
vn 0.41030 0.00000 0.91195
vn 0.37551 -0.92682 -0.00000
vn 0.41030 0.00000 -0.91195
vn 0.00000 0.88634 0.46304
vn 0.00000 0.88634 -0.46304
vn 0.00000 -0.88634 0.46304
vn -1.00000 0.00000 0.00000
vn 0.91436 0.00000 0.40490
vn 0.00000 -0.88634 -0.46304
vn 0.91436 0.00000 -0.40490
vn -0.93436 0.35632 -0.00000
vn 0.00000 0.21756 0.97605
vn -0.02585 0.31361 0.94920
vn 0.96966 0.24446 -0.00000
vn 0.00000 0.30478 -0.95242
vn -0.01659 0.21354 -0.97679
# 56 vertex normals

vt 1.52132 0.08154 0.00000
vt 1.52132 0.09122 0.00000
vt 1.53003 0.09122 0.00000
vt 1.53003 0.08154 0.00000
vt 1.53873 0.09122 0.00000
vt 1.53873 0.08154 0.00000
vt 1.52132 0.10089 0.00000
vt 1.53003 0.10089 0.00000
vt 1.53873 0.10089 0.00000
vt 1.43152 0.21119 0.00000
vt 1.44463 0.21119 0.00000
vt 1.44463 0.22207 0.00000
vt 1.43152 0.22207 0.00000
vt 1.24914 0.88933 0.00000
vt 1.17350 0.88933 0.00000
vt 1.17398 0.81884 0.00000
vt 1.24932 0.81885 0.00000
vt 1.44463 0.23296 0.00000
vt 1.43152 0.23296 0.00000
vt 1.24919 0.88929 0.00000
vt 1.17339 0.88929 0.00000
vt 1.17387 0.81889 0.00000
vt 1.24938 0.81890 0.00000
vt 1.42686 0.14876 0.00000
vt 1.45315 0.14876 0.00000
vt 1.45315 0.17463 0.00000
vt 1.42686 0.17463 0.00000
vt 1.47822 0.14876 0.00000
vt 1.47822 0.17463 0.00000
vt 1.43309 0.14968 0.00000
vt 1.45572 0.14968 0.00000
vt 1.45572 0.17370 0.00000
vt 1.43309 0.17370 0.00000
vt 1.47834 0.14968 0.00000
vt 1.47834 0.17370 0.00000
vt 1.26955 0.83358 0.00000
vt 1.31335 0.83358 0.00000
vt 1.31335 0.87582 0.00000
vt 1.26955 0.87582 0.00000
vt 1.31334 0.83358 0.00000
vt 1.31334 0.87582 0.00000
vt 1.47371 0.11700 0.00000
vt 1.47371 0.12863 0.00000
vt 1.48427 0.12863 0.00000
vt 1.48427 0.12301 0.00000
vt 1.48530 0.11700 0.00000
vt 1.48874 0.12301 0.00000
vt 1.49689 0.12863 0.00000
vt 1.49689 0.11700 0.00000
vt 1.49320 0.12301 0.00000
vt 1.49320 0.12863 0.00000
vt 1.47371 0.14025 0.00000
vt 1.48427 0.13424 0.00000
vt 1.48530 0.14025 0.00000
vt 1.48874 0.13424 0.00000
vt 1.49689 0.14025 0.00000
vt 1.49320 0.13424 0.00000
vt 1.51107 0.07884 0.00000
vt 1.52337 0.07884 0.00000
vt 1.52337 0.06560 0.00000
vt 1.51281 0.06563 0.00000
vt 1.52859 0.07884 0.00000
vt 1.51846 0.07884 0.00000
vt 1.51989 0.06563 0.00000
vt 1.52859 0.06562 0.00000
vt 1.53872 0.07884 0.00000
vt 1.53729 0.06563 0.00000
vt 1.53566 0.07884 0.00000
vt 1.53393 0.06563 0.00000
vt 1.32567 0.88746 0.00000
vt 1.25780 0.88746 0.00000
vt 1.25780 0.82213 0.00000
vt 1.32567 0.82213 0.00000
vt 1.45775 0.22207 0.00000
vt 1.45775 0.21119 0.00000
vt 1.46031 0.21240 0.00000
vt 1.46031 0.22207 0.00000
vt 1.45775 0.23296 0.00000
vt 1.46031 0.23175 0.00000
vt 1.47944 0.17673 0.00000
vt 1.47944 0.14666 0.00000
vt 1.48457 0.14968 0.00000
vt 1.48457 0.17370 0.00000
vt 1.49915 0.12863 0.00000
vt 1.49915 0.11830 0.00000
vt 1.49915 0.13896 0.00000
vt 1.43152 0.20973 0.00000
vt 1.44463 0.20973 0.00000
vt 1.45714 0.20973 0.00000
vt 1.44463 0.23441 0.00000
vt 1.43152 0.23441 0.00000
vt 1.45714 0.23441 0.00000
vt 1.48530 0.11545 0.00000
vt 1.47371 0.11545 0.00000
vt 1.43025 0.17673 0.00000
vt 1.43025 0.14666 0.00000
vt 1.49635 0.11545 0.00000
vt 1.48530 0.14181 0.00000
vt 1.49635 0.14181 0.00000
vt 1.48118 0.17673 0.00000
vt 1.48118 0.14666 0.00000
vt 1.48457 0.14876 0.00000
vt 1.48457 0.17463 0.00000
vt 1.47371 0.14181 0.00000
vt 1.32225 0.85521 0.00000
vt 1.32235 0.88438 0.00000
vt 1.31862 0.88248 0.00000
vt 1.31853 0.85517 0.00000
vt 1.26030 0.88375 0.00000
vt 1.26402 0.88182 0.00000
vt 1.26021 0.85458 0.00000
vt 1.26393 0.85462 0.00000
vt 1.32216 0.82603 0.00000
vt 1.31844 0.82786 0.00000
vt 1.26011 0.82540 0.00000
vt 1.26384 0.82741 0.00000
# 116 texture coords

g rocket_launcher
f 1/1/1 2/2/2 3/3/3 
f 3/3/3 4/4/4 1/1/1 
f 4/4/4 3/3/3 5/5/5 
f 5/5/5 6/6/6 4/4/4 
f 2/2/2 7/7/7 8/8/8 
f 8/8/8 3/3/3 2/2/2 
f 3/3/3 8/8/8 9/9/9 
f 9/9/9 5/5/5 3/3/3 
f 10/10/10 11/11/10 12/12/10 
f 12/12/10 13/13/10 10/10/10 
f 14/14/11 15/15/11 16/16/11 
f 16/16/11 17/17/11 14/14/11 
f 13/13/10 12/12/10 18/18/10 
f 18/18/10 19/19/10 13/13/10 
f 17/20/11 16/21/11 20/22/11 
f 20/22/11 21/23/11 17/20/11 
f 22/24/12 23/25/12 24/26/12 
f 24/26/12 25/27/12 22/24/12 
f 23/25/12 26/28/12 27/29/12 
f 27/29/12 24/26/12 23/25/12 
f 28/30/13 29/31/13 30/32/13 
f 30/32/13 31/33/13 28/30/13 
f 29/31/13 32/34/13 33/35/13 
f 33/35/13 30/32/13 29/31/13 
f 34/28/14 35/25/14 36/26/14 
f 36/26/14 37/29/14 34/28/14 
f 35/25/14 38/24/14 39/27/14 
f 39/27/14 36/26/14 35/25/14 
f 40/36/15 41/37/15 42/38/15 
f 42/38/15 43/39/15 40/36/15 
f 44/36/15 45/40/15 46/41/15 
f 46/41/15 47/39/15 44/36/15 
f 48/42/16 49/43/16 50/44/16 
f 50/44/16 51/45/16 48/42/16 
f 52/46/17 48/42/17 51/45/17 
f 51/45/17 53/47/17 52/46/17 
f 54/48/18 55/49/18 56/50/18 
f 56/50/18 57/51/18 54/48/18 
f 55/49/17 52/46/17 53/47/17 
f 53/47/17 56/50/17 55/49/17 
f 49/43/16 58/52/16 59/53/16 
f 59/53/16 50/44/16 49/43/16 
f 58/52/19 60/54/19 61/55/19 
f 61/55/19 59/53/19 58/52/19 
f 60/54/19 62/56/19 63/57/19 
f 63/57/19 61/55/19 60/54/19 
f 62/56/18 54/48/18 57/51/18 
f 57/51/18 63/57/18 62/56/18 
f 51/58/20 50/59/20 2/60/20 
f 2/60/21 1/61/21 51/58/21 
f 53/62/22 51/63/22 1/64/22 
f 1/64/23 4/65/23 53/62/23 
f 57/59/24 56/58/24 6/61/24 
f 6/61/25 5/60/25 57/59/25 
f 56/66/26 53/62/26 4/65/26 
f 4/65/27 6/67/27 56/66/27 
f 50/59/28 59/68/28 7/69/28 
f 7/69/29 2/60/29 50/59/29 
f 59/63/30 61/62/30 8/65/30 
f 8/65/31 7/64/31 59/63/31 
f 61/62/32 63/66/32 9/67/32 
f 9/67/33 8/65/33 61/62/33 
f 63/68/34 57/59/34 5/60/34 
f 5/60/35 9/69/35 63/68/35 
f 13/70/36 19/71/36 43/39/36 
f 43/39/36 42/38/36 13/70/36 
f 19/71/37 58/72/37 40/36/37 
f 40/36/37 43/39/37 19/71/37 
f 58/72/38 49/73/38 41/37/38 
f 41/37/38 40/36/38 58/72/38 
f 49/73/39 13/70/39 42/38/39 
f 42/38/39 41/37/39 49/73/39 
f 10/70/36 13/71/36 47/39/36 
f 47/39/36 46/41/36 10/70/36 
f 48/73/39 10/70/39 46/41/39 
f 46/41/39 45/40/39 48/73/39 
f 49/72/38 48/73/38 45/40/38 
f 45/40/38 44/36/38 49/72/38 
f 13/71/37 49/72/37 44/36/37 
f 44/36/37 47/39/37 13/71/37 
f 64/74/40 65/75/40 31/76/40 
f 31/76/40 30/77/40 64/74/40 
f 66/78/40 64/74/40 30/77/40 
f 30/77/40 33/79/40 66/78/40 
f 65/80/41 55/81/41 28/82/41 
f 28/82/41 31/83/41 65/80/41 
f 55/49/42 54/48/42 29/84/42 
f 29/84/42 28/85/42 55/49/42 
f 54/48/42 62/56/42 32/86/42 
f 32/86/42 29/84/42 54/48/42 
f 62/81/43 66/80/43 33/83/43 
f 33/83/43 32/82/43 62/81/43 
f 11/11/44 10/10/44 25/87/44 
f 25/87/44 24/88/44 11/11/44 
f 65/75/44 11/11/44 24/88/44 
f 24/88/44 27/89/44 65/75/44 
f 19/19/45 18/18/45 36/90/45 
f 36/90/45 39/91/45 19/19/45 
f 18/18/45 66/78/45 37/92/45 
f 37/92/45 36/90/45 18/18/45 
f 48/42/46 52/46/46 23/93/46 
f 23/93/46 22/94/46 48/42/46 
f 10/95/47 48/96/47 22/24/47 
f 22/24/47 25/27/47 10/95/47 
f 52/46/46 55/49/46 26/97/46 
f 26/97/46 23/93/46 52/46/46 
f 55/96/48 65/95/48 27/27/48 
f 27/27/48 26/24/48 55/96/48 
f 62/56/49 60/54/49 35/98/49 
f 35/98/49 34/99/49 62/56/49 
f 66/100/50 62/101/50 34/102/50 
f 34/102/50 37/103/50 66/100/50 
f 60/54/49 58/52/49 38/104/49 
f 38/104/49 35/98/49 60/54/49 
f 58/101/15 19/100/15 39/103/15 
f 39/103/15 38/102/15 58/101/15 
f 12/105/51 11/106/51 14/107/51 
f 14/107/51 17/108/51 12/105/51 
f 11/106/52 65/109/52 15/110/52 
f 15/110/53 14/107/53 11/106/53 
f 65/109/54 64/111/54 16/112/54 
f 16/112/54 15/110/54 65/109/54 
f 18/113/51 12/105/51 17/108/51 
f 17/108/51 21/114/51 18/113/51 
f 64/111/54 66/115/54 20/116/54 
f 20/116/54 16/112/54 64/111/54 
f 66/115/55 18/113/55 21/114/55 
f 21/114/56 20/116/56 66/115/56 
# 128 faces

