# 3ds Max Wavefront OBJ Exporter v0.97b - (c)2007 guruware
# File Created: 14.04.2017 13:28:21

#
# object cannon_main
#

v  0.01581 5.83789 24.26871
v  0.15038 6.07024 24.25011
v  0.28495 5.83789 24.26871
v  -0.11877 6.07024 24.25011
v  -0.25334 5.83789 24.26871
v  -0.11877 5.60555 24.28732
v  0.15038 5.60555 24.28732
v  0.15038 6.15672 25.23880
v  0.28495 5.92438 25.25741
v  -0.11877 6.15672 25.23880
v  -0.25334 5.92438 25.25741
v  -0.11877 5.69203 25.27602
v  0.15038 5.69203 25.27602
v  0.12856 6.27477 27.27713
v  0.24132 6.08009 27.29272
v  -0.09695 6.27477 27.27713
v  -0.20971 6.08009 27.29272
v  -0.09695 5.88542 27.30832
v  0.12856 5.88542 27.30832
v  0.11942 6.42249 29.26171
v  0.22304 6.24359 29.27604
v  -0.08781 6.42249 29.26171
v  -0.19143 6.24359 29.27604
v  -0.08781 6.06469 29.29036
v  0.11942 6.06469 29.29036
v  0.01581 6.21005 28.90162
v  0.16116 6.21005 28.90162
v  0.08849 6.33553 28.89156
v  -0.05687 6.33553 28.89156
v  -0.12955 6.21005 28.90162
v  -0.05687 6.08457 28.91166
v  0.08849 6.08457 28.91166
v  0.08849 6.37706 29.36567
v  0.16116 6.25157 29.37572
v  -0.05687 6.37706 29.36567
v  -0.12955 6.25157 29.37572
v  -0.05687 6.12609 29.38577
v  0.08849 6.12609 29.38577
# 38 vertices

vn -0.00000 -0.07984 -0.99681
vn 0.00000 -0.07984 -0.99681
vn 1.00000 -0.00232 0.00020
vn 0.49923 0.86437 -0.06019
vn 0.99994 0.00257 0.01047
vn 0.50100 0.86215 -0.07541
vn -0.49923 0.86437 -0.06019
vn -0.50100 0.86215 -0.07541
vn -0.99994 0.00257 0.01047
vn -1.00000 -0.00232 0.00020
vn -0.50071 -0.86178 0.08135
vn -0.49898 -0.86332 0.07552
vn 0.50071 -0.86178 0.08135
vn 0.49898 -0.86332 0.07552
vn 0.50035 0.86418 -0.05331
vn 0.99988 0.00028 0.01533
vn -0.50035 0.86418 -0.05331
vn -0.99988 0.00028 0.01533
vn -0.49954 -0.86222 0.08386
vn 0.49954 -0.86222 0.08386
vn 0.49967 0.86400 -0.06201
vn 0.99996 0.00147 0.00909
vn -0.49967 0.86400 -0.06201
vn -0.99996 0.00147 0.00909
vn -0.50029 -0.86213 0.08028
vn 0.50029 -0.86213 0.08028
vn 0.00000 0.07984 0.99681
vn 0.00000 0.07983 0.99681
vn 0.85036 0.04201 0.52452
vn 0.42518 0.77610 0.46572
vn -0.42518 0.77610 0.46572
vn -0.85036 0.04201 0.52452
vn -0.42518 -0.69208 0.58331
vn 0.42518 -0.69208 0.58331
vn -0.86602 -0.49810 0.04362
vn 0.00000 -0.99619 0.08725
vn 0.86602 -0.49810 0.04362
vn 0.86602 0.49810 -0.04362
vn 0.00000 0.99619 -0.08725
vn -0.86602 0.49810 -0.04362
# 40 vertex normals

vt 0.45181 1.25526 0.00000
vt 0.47830 1.25532 1.00000
vt 0.46771 1.25529 1.00000
vt 0.42533 1.25520 1.00000
vt 0.41473 1.25517 1.00000
vt 0.43592 1.25522 1.00000
vt 0.44652 1.25524 1.00000
vt 0.45711 1.25527 1.00000
vt 0.47881 1.26460 1.00000
vt 0.46821 1.26461 1.00000
vt 0.42583 1.26466 1.00000
vt 0.41524 1.26490 1.00000
vt 0.43643 1.26465 1.00000
vt 0.44702 1.26464 1.00000
vt 0.45762 1.26462 1.00000
vt 0.47902 1.30273 1.00000
vt 0.46848 1.30273 1.00000
vt 0.41524 1.26467 1.00000
vt 0.42630 1.30273 1.00000
vt 0.41575 1.30273 1.00000
vt 0.43684 1.30273 1.00000
vt 0.44739 1.30273 1.00000
vt 0.45793 1.30273 1.00000
vt 0.47859 1.31381 1.00000
vt 0.46820 1.31381 1.00000
vt 0.42664 1.31382 1.00000
vt 0.41625 1.31455 1.00000
vt 0.43703 1.31382 1.00000
vt 0.44742 1.31382 1.00000
vt 0.45781 1.31381 1.00000
vt 0.63279 1.22301 0.00000
vt 0.64826 1.22302 1.00000
vt 0.65858 1.22303 1.00000
vt 0.59668 1.22299 1.00000
vt 0.60700 1.22300 1.00000
vt 0.61732 1.22300 1.00000
vt 0.62763 1.22301 1.00000
vt 0.63795 1.22302 1.00000
vt 0.50618 1.29803 0.00000
vt 0.50043 1.30881 0.00000
vt 0.49872 1.30607 0.00000
vt 0.50275 1.29851 0.00000
vt 0.48894 1.30881 0.00000
vt 0.49065 1.30607 0.00000
vt 0.48319 1.29803 0.00000
vt 0.48662 1.29851 0.00000
vt 0.48894 1.28725 0.00000
vt 0.49065 1.29095 0.00000
vt 0.50043 1.28725 0.00000
vt 0.49872 1.29095 0.00000
vt 0.64826 1.20521 1.00000
vt 0.65858 1.20522 1.00000
vt 0.59668 1.20518 1.00000
vt 0.60700 1.20519 1.00000
vt 0.61732 1.20519 1.00000
vt 0.62763 1.20520 1.00000
vt 0.63795 1.20521 1.00000
# 57 texture coords

g cannon_main
f 1/1/1 2/2/2 3/3/2 
f 1/1/1 4/4/2 2/5/2 
f 1/1/1 5/6/1 4/4/2 
f 1/1/1 6/7/1 5/6/1 
f 1/1/1 7/8/2 6/7/1 
f 1/1/1 3/3/2 7/8/2 
f 3/3/3 8/9/4 9/10/5 
f 3/3/3 2/2/6 8/9/4 
f 2/5/6 10/11/7 8/12/4 
f 2/5/6 4/4/8 10/11/7 
f 4/4/8 11/13/9 10/11/7 
f 4/4/8 5/6/10 11/13/9 
f 5/6/10 12/14/11 11/13/9 
f 5/6/10 6/7/12 12/14/11 
f 6/7/12 13/15/13 12/14/11 
f 6/7/12 7/8/14 13/15/13 
f 7/8/14 9/10/5 13/15/13 
f 7/8/14 3/3/3 9/10/5 
f 9/10/5 14/16/15 15/17/16 
f 9/10/5 8/9/4 14/16/15 
f 8/18/4 16/19/17 14/20/15 
f 8/18/4 10/11/7 16/19/17 
f 10/11/7 17/21/18 16/19/17 
f 10/11/7 11/13/9 17/21/18 
f 11/13/9 18/22/19 17/21/18 
f 11/13/9 12/14/11 18/22/19 
f 12/14/11 19/23/20 18/22/19 
f 12/14/11 13/15/13 19/23/20 
f 13/15/13 15/17/16 19/23/20 
f 13/15/13 9/10/5 15/17/16 
f 15/17/16 20/24/21 21/25/22 
f 15/17/16 14/16/15 20/24/21 
f 14/20/15 22/26/23 20/27/21 
f 14/20/15 16/19/17 22/26/23 
f 16/19/17 23/28/24 22/26/23 
f 16/19/17 17/21/18 23/28/24 
f 17/21/18 24/29/25 23/28/24 
f 17/21/18 18/22/19 24/29/25 
f 18/22/19 25/30/26 24/29/25 
f 18/22/19 19/23/20 25/30/26 
f 19/23/20 21/25/22 25/30/26 
f 19/23/20 15/17/16 21/25/22 
f 26/31/27 27/32/27 28/33/28 
f 26/31/27 28/34/28 29/35/28 
f 26/31/27 29/35/28 30/36/27 
f 26/31/27 30/36/27 31/37/27 
f 26/31/27 31/37/27 32/38/27 
f 26/31/27 32/38/27 27/32/27 
f 21/39/29 20/40/30 33/41/30 
f 33/41/30 34/42/29 21/39/29 
f 20/40/30 22/43/31 35/44/31 
f 35/44/31 33/41/30 20/40/30 
f 22/43/31 23/45/32 36/46/32 
f 36/46/32 35/44/31 22/43/31 
f 23/45/32 24/47/33 37/48/33 
f 37/48/33 36/46/32 23/45/32 
f 24/47/33 25/49/34 38/50/34 
f 38/50/34 37/48/33 24/47/33 
f 25/49/34 21/39/29 34/42/29 
f 34/42/29 38/50/34 25/49/34 
f 34/51/35 33/52/35 28/33/35 
f 28/33/35 27/32/35 34/51/35 
f 33/53/36 35/54/36 29/35/36 
f 29/35/36 28/34/36 33/53/36 
f 35/54/37 36/55/37 30/36/37 
f 30/36/37 29/35/37 35/54/37 
f 36/55/38 37/56/38 31/37/38 
f 31/37/38 30/36/38 36/55/38 
f 37/56/39 38/57/39 32/38/39 
f 32/38/39 31/37/39 37/56/39 
f 38/57/40 34/51/40 27/32/40 
f 27/32/40 32/38/40 38/57/40 
# 72 faces

