# 3ds Max Wavefront OBJ Exporter v0.97b - (c)2007 guruware
# File Created: 14.04.2017 13:11:03

#
# object turret_main
#

v  -1.39159 4.82051 24.79512
v  -1.97475 4.68242 23.16061
v  -1.00090 4.58622 24.08206
v  -0.56248 4.82051 25.10466
v  1.03535 4.58622 24.08206
v  0.59773 4.82051 25.10466
v  2.00920 4.68242 23.16061
v  1.40866 4.82051 24.79512
v  -2.01235 4.68242 22.85642
v  -1.18709 4.58622 22.47758
v  -1.00090 4.28641 24.06929
v  -1.18709 4.28641 22.46482
v  1.22154 4.28641 22.46482
v  1.03535 4.28641 24.06929
v  1.22154 4.58622 22.47758
v  2.04680 4.68242 22.85642
v  -1.86104 5.57771 20.52615
v  -0.62567 5.57771 19.97851
v  -1.02012 4.65365 21.76883
v  -0.62567 4.67543 19.99045
v  0.66012 4.67543 19.99045
v  1.05457 4.65365 21.76883
v  0.66012 5.57771 19.97851
v  1.89550 5.57771 20.52615
v  -1.27636 5.93578 24.62188
v  -0.56147 6.18283 24.74271
v  -0.56518 6.61912 22.84434
v  -1.74615 6.26382 22.84434
v  -0.37874 6.17901 24.71403
v  0.41259 6.17901 24.71403
v  0.39389 6.55608 23.10431
v  -0.35053 6.55608 23.10431
v  0.59773 6.18283 24.74271
v  1.29343 5.93578 24.62188
v  1.78140 6.26382 22.84434
v  0.60043 6.61912 22.84434
v  -0.57477 6.60839 22.57031
v  -1.77804 6.26382 22.40294
v  0.61002 6.60839 22.57031
v  1.81329 6.26382 22.40294
v  -1.77804 6.39700 22.25335
v  -0.57477 6.74156 22.42072
v  -0.69973 6.98518 19.99633
v  -1.80250 6.58263 20.55852
v  0.61002 6.74156 22.42072
v  0.73418 6.98518 19.99633
v  1.81329 6.39700 22.25335
v  1.83695 6.58263 20.55852
v  -0.56248 5.25847 25.10466
v  -1.39159 5.24773 24.79512
v  0.59773 5.25847 25.10466
v  1.40866 5.24773 24.79512
v  -0.36923 5.49257 25.03250
v  0.41259 5.49257 25.03250
v  1.50926 4.92008 24.66593
v  2.07197 4.76086 23.15047
v  2.07197 5.32347 23.15047
v  1.50926 5.25874 24.66593
v  2.10334 4.76086 22.88257
v  2.10334 5.32347 22.88257
v  1.97712 5.60728 20.67549
v  1.97712 5.74773 20.67549
v  1.88195 6.15362 22.87193
v  1.41693 5.86471 24.50732
v  1.90855 6.15362 22.46322
v  1.92829 6.35494 20.59066
v  0.66012 5.75572 19.97851
v  1.89550 5.75572 20.52615
v  -0.62567 5.75572 19.97851
v  -1.86104 5.75572 20.52615
v  0.73418 6.88647 19.87131
v  1.83695 6.47106 20.43350
v  -0.69973 6.88647 19.87131
v  -1.80250 6.47106 20.43350
v  -1.94314 5.60846 20.67433
v  -2.06936 4.76205 22.88146
v  -2.06936 5.32466 22.88146
v  -1.94314 5.74892 20.67433
v  -2.03800 4.76205 23.14936
v  -2.03800 5.32466 23.14936
v  -1.48978 4.92126 24.66477
v  -1.48978 5.25992 24.66477
v  -1.87390 6.15480 22.46211
v  -1.89431 6.35613 20.58950
v  -1.84730 6.15480 22.87082
v  -1.39745 5.86590 24.50616
v  -1.02012 4.35383 21.75607
v  1.05457 4.35383 21.75607
v  -0.52993 6.67362 22.88171
v  -0.52595 6.22345 24.77980
v  -0.42437 6.23326 24.78821
v  -0.39291 6.64024 22.99549
v  0.56148 6.22345 24.77980
v  0.56438 6.67362 22.88171
v  0.43718 6.64024 22.99549
v  0.45803 6.23326 24.78821
v  -0.52703 5.33032 25.16232
v  0.56148 5.33032 25.16232
v  0.45803 5.43643 25.13442
v  -0.41376 5.43643 25.13442
# 100 vertices

vn -0.15763 -0.96052 0.22924
vn -0.13507 -0.99003 0.03988
vn -0.13833 -0.97396 0.17965
vn -0.02902 -0.97155 0.23504
vn 0.28029 -0.91573 0.28788
vn 0.04960 -0.97552 0.21423
vn 0.13026 -0.99024 0.04961
vn 0.03730 -0.99451 0.09773
vn -0.16614 -0.97532 -0.14544
vn -0.22818 -0.93867 -0.25852
vn 0.00000 -1.00000 -0.00000
vn 0.00000 -0.99897 -0.04546
vn 0.20032 -0.95182 -0.23221
vn 0.17469 -0.97572 -0.13208
vn -0.16094 -0.91776 -0.36305
vn -0.19197 -0.90706 -0.37468
vn 0.00000 -0.99993 -0.01225
vn 0.17596 -0.90083 -0.39692
vn 0.19341 -0.90006 -0.39050
vn -0.32876 0.67076 0.66482
vn -0.36708 0.70965 0.60137
vn -0.19508 0.97923 0.05530
vn -0.28117 0.95209 0.12024
vn 0.00000 0.77508 0.63186
vn 0.00000 0.77441 0.63268
vn 0.00000 0.97364 0.22807
vn 0.33996 0.71630 0.60938
vn 0.37155 0.66293 0.64998
vn 0.29541 0.94838 0.11532
vn 0.18488 0.98141 0.05151
vn -0.15385 0.98769 -0.02809
vn -0.27782 0.96042 0.02007
vn 0.14593 0.98872 -0.03363
vn 0.28564 0.95824 0.01354
vn -0.28887 0.95105 0.10983
vn -0.13561 0.98508 0.10598
vn -0.12568 0.98649 0.10507
vn -0.29170 0.95036 0.10830
vn 0.13613 0.98507 0.10535
vn 0.12596 0.98640 0.10557
vn 0.28756 0.95163 0.10824
vn 0.28976 0.95078 0.10976
vn -0.34976 0.00000 0.93684
vn -0.17771 0.00000 0.98408
vn -0.17702 0.00000 0.98421
vn 0.18131 0.00000 0.98343
vn 0.18060 0.00000 0.98356
vn 0.35662 0.00000 0.93425
vn -0.30122 0.31779 0.89904
vn -0.33230 0.34421 0.87812
vn 0.00000 0.42086 0.90713
vn 0.31257 0.31717 0.89538
vn 0.34529 0.28312 0.89477
vn 0.86441 0.00000 0.50279
vn 0.97317 0.00000 0.23010
vn 0.95865 0.15192 0.24063
vn 0.86151 0.13560 0.48930
vn 0.99915 0.00000 0.04117
vn 0.99132 0.12080 0.05191
vn 0.96461 0.00000 -0.26367
vn 0.96517 0.02392 -0.26051
vn 0.84977 0.49318 0.18619
vn 0.80221 0.42588 0.41843
vn 0.88341 0.46525 0.05600
vn 0.92559 0.33483 -0.17657
vn 0.40527 -0.00000 -0.91420
vn 0.13774 -0.00450 -0.99046
vn 0.20712 -0.00000 -0.97831
vn 0.40527 0.00000 -0.91420
vn -0.13774 -0.00450 -0.99046
vn -0.20712 -0.00000 -0.97831
vn -0.40526 0.00000 -0.91420
vn -0.40526 -0.00000 -0.91420
vn 0.41573 -0.09674 -0.90433
vn 0.20018 -0.10545 -0.97407
vn 0.19158 -0.10062 -0.97630
vn 0.42812 -0.08153 -0.90004
vn -0.20543 -0.10110 -0.97343
vn -0.19492 -0.10521 -0.97516
vn -0.40380 -0.08493 -0.91090
vn -0.40946 -0.09659 -0.90720
vn -0.96377 -0.00000 -0.26675
vn -0.99915 0.00000 0.04117
vn -0.99220 0.11660 0.04415
vn -0.96806 0.03746 -0.24790
vn -0.97410 0.00000 0.22612
vn -0.96248 0.14136 0.23162
vn -0.87060 0.00000 0.49199
vn -0.86515 0.12855 0.48476
vn -0.88811 0.45786 0.04025
vn -0.92868 0.32851 -0.17213
vn -0.84534 0.50338 0.17889
vn -0.79785 0.43363 0.41880
vn 0.00000 -0.99551 -0.09470
vn -0.97543 -0.00292 -0.22029
vn 0.96407 -0.16024 0.21187
vn 0.00000 -0.01324 -0.99991
vn 0.97596 -0.00552 -0.21788
vn 0.99741 -0.00055 -0.07195
vn 0.97312 -0.01771 -0.22962
vn 0.97626 -0.00287 -0.21658
vn 0.00000 -0.04254 0.99909
vn -0.99332 -0.00491 0.11527
vn -0.99832 0.00247 -0.05790
vn -0.99837 0.00242 -0.05694
vn 0.99332 -0.00491 0.11527
vn 0.99837 0.00242 -0.05694
vn 0.00000 0.04254 -0.99909
vn -0.97351 0.00973 -0.22842
vn 0.97351 0.00973 -0.22842
vn 0.02340 0.96808 0.24954
vn -0.12736 0.76034 0.63691
vn -0.12188 0.76102 0.63718
vn 0.02555 0.96713 0.25298
vn 0.12010 0.76344 0.63461
vn -0.02558 0.96660 0.25500
vn -0.02214 0.96630 0.25647
vn 0.12573 0.76356 0.63337
vn -0.07280 0.32553 0.94272
vn 0.07452 0.32350 0.94329
vn 0.08098 0.32651 0.94172
vn -0.06942 0.32307 0.94383
vn -0.60282 0.67933 -0.41848
vn -0.84209 0.41921 0.33933
vn -0.84079 0.41239 0.35071
vn -0.54203 0.68464 -0.48732
vn -0.79285 0.59222 0.14374
vn -0.88475 0.38258 0.26619
vn -0.89269 0.32888 0.30812
vn -0.79188 0.59347 0.14394
vn 0.00000 0.79102 0.61179
vn 0.88352 0.39005 0.25935
vn 0.78866 0.59542 0.15330
vn 0.79346 0.58943 0.15165
vn 0.88951 0.34011 0.30511
vn 0.83544 0.41799 0.35683
vn 0.60109 0.68255 -0.41571
vn 0.53459 0.68984 -0.48820
vn 0.83901 0.40897 0.35890
vn -0.55939 -0.33305 0.75905
vn 0.55909 -0.32231 0.76389
vn 0.60319 -0.29141 0.74246
vn -0.60057 -0.29476 0.74326
vn 0.00000 0.87593 0.48243
vn -0.83453 0.23188 0.49979
vn -0.84440 0.22386 0.48670
vn 0.84441 0.22344 0.48687
vn 0.84142 0.22473 0.49144
vn -0.77988 -0.58074 0.23351
vn -0.85420 -0.39498 0.33813
vn -0.85217 -0.39930 0.33816
vn -0.78179 -0.59048 0.20036
vn 0.84137 -0.40826 0.35414
vn 0.77538 -0.58938 0.22675
vn 0.78045 -0.59380 0.19571
vn 0.84730 -0.39411 0.35602
vn -0.82195 -0.56264 -0.08851
vn -0.82040 -0.56729 -0.07154
vn 0.82033 -0.56543 -0.08576
vn 0.81874 -0.57049 -0.06488
vn -0.74056 -0.61204 -0.27745
vn -0.73507 -0.61792 -0.27900
vn 0.73903 -0.61140 -0.28288
vn 0.74061 -0.60979 -0.28225
vn -0.73924 0.44366 0.50665
vn -0.70357 0.69089 0.16629
vn 0.70622 0.68685 0.17175
vn 0.73454 0.44381 0.51330
vn -0.72966 0.68015 0.07066
vn 0.73497 0.67463 0.06851
vn -0.89881 0.34390 -0.27180
vn 0.89990 0.34306 -0.26924
vn -0.79875 0.00000 0.60167
vn -0.78562 0.12651 0.60563
vn 0.77695 0.12979 0.61604
vn 0.78902 0.00000 0.61437
vn 0.87747 0.00000 -0.47963
vn 0.87663 0.00216 -0.48116
vn -0.87480 0.00475 -0.48447
vn -0.87471 0.00000 -0.48464
vn -0.59330 0.60124 0.53526
vn -0.15189 0.73823 0.65722
vn -0.14410 0.73910 0.65800
vn -0.87881 0.35614 0.31757
vn 0.15189 0.73823 0.65722
vn 0.14410 0.73910 0.65800
vn 0.59329 0.60085 0.53571
vn 0.87775 0.35785 0.31858
vn -0.25572 0.75738 -0.60082
vn -0.77255 0.47414 -0.42233
vn -0.93215 0.27136 -0.23969
vn -0.27980 0.75350 -0.59493
vn 0.25823 0.75823 -0.59867
vn 0.28321 0.75142 -0.59596
vn 0.76942 0.47843 -0.42319
vn 0.93061 0.27338 -0.24338
# 196 vertex normals

vt 0.66565 0.85620 0.00000
vt 0.69653 0.84863 0.00000
vt 0.67912 0.86128 0.00000
vt 0.65981 0.86697 0.00000
vt 0.67912 0.88773 0.00000
vt 0.65981 0.88204 0.00000
vt 0.69653 0.90038 0.00000
vt 0.66565 0.89258 0.00000
vt 0.70227 0.84814 0.00000
vt 0.70943 0.85886 0.00000
vt 0.71497 0.84159 0.00000
vt 0.71157 0.82144 0.00000
vt 0.75555 0.82144 0.00000
vt 0.75215 0.84159 0.00000
vt 0.70943 0.89015 0.00000
vt 0.70227 0.90087 0.00000
vt 0.74629 0.85010 0.00000
vt 0.75664 0.86615 0.00000
vt 0.61259 0.90029 0.00000
vt 0.61979 0.87797 0.00000
vt 0.64325 0.87797 0.00000
vt 0.65045 0.90029 0.00000
vt 0.75664 0.88285 0.00000
vt 0.74629 0.89890 0.00000
vt 0.66631 0.98609 0.00000
vt 0.65270 0.98668 0.00000
vt 0.65650 0.96225 0.00000
vt 0.67860 0.96385 0.00000
vt 0.72655 0.99074 0.00000
vt 0.71215 0.98970 0.00000
vt 0.71566 0.96903 0.00000
vt 0.72920 0.97001 0.00000
vt 0.63100 0.98511 0.00000
vt 0.61822 0.98261 0.00000
vt 0.61258 0.95908 0.00000
vt 0.63469 0.96067 0.00000
vt 0.65722 0.95874 0.00000
vt 0.68006 0.95821 0.00000
vt 0.63504 0.95713 0.00000
vt 0.61286 0.95335 0.00000
vt 0.68036 0.95628 0.00000
vt 0.65751 0.95681 0.00000
vt 0.66462 0.92578 0.00000
vt 0.68415 0.93450 0.00000
vt 0.63534 0.95521 0.00000
vt 0.63778 0.92384 0.00000
vt 0.61315 0.95143 0.00000
vt 0.61604 0.92958 0.00000
vt 0.70960 0.77575 0.00000
vt 0.72491 0.77575 0.00000
vt 0.72491 0.78099 0.00000
vt 0.70960 0.78087 0.00000
vt 0.74633 0.77575 0.00000
vt 0.74633 0.78099 0.00000
vt 0.76131 0.77575 0.00000
vt 0.76131 0.78087 0.00000
vt 0.72493 0.79206 0.00000
vt 0.71173 0.78910 0.00000
vt 0.74681 0.76545 0.00000
vt 0.76068 0.76545 0.00000
vt 0.76068 0.77415 0.00000
vt 0.74664 0.77415 0.00000
vt 0.75918 0.78910 0.00000
vt 0.74633 0.79206 0.00000
vt 0.70923 0.73592 0.00000
vt 0.73724 0.73401 0.00000
vt 0.73724 0.74075 0.00000
vt 0.70923 0.73998 0.00000
vt 0.74219 0.73401 0.00000
vt 0.74219 0.74075 0.00000
vt 0.78298 0.74415 0.00000
vt 0.78298 0.74584 0.00000
vt 0.74239 0.75070 0.00000
vt 0.71216 0.74724 0.00000
vt 0.74994 0.75070 0.00000
vt 0.78455 0.75311 0.00000
vt 0.60972 0.77148 0.00000
vt 0.63230 0.77148 0.00000
vt 0.63230 0.77359 0.00000
vt 0.60972 0.77359 0.00000
vt 0.65581 0.77148 0.00000
vt 0.65581 0.77359 0.00000
vt 0.67839 0.77148 0.00000
vt 0.67839 0.77359 0.00000
vt 0.63095 0.78700 0.00000
vt 0.61079 0.78207 0.00000
vt 0.65716 0.78700 0.00000
vt 0.67732 0.78207 0.00000
vt 0.61580 0.75283 0.00000
vt 0.65797 0.74551 0.00000
vt 0.65688 0.75221 0.00000
vt 0.61553 0.75450 0.00000
vt 0.66289 0.74585 0.00000
vt 0.66180 0.75255 0.00000
vt 0.69041 0.74964 0.00000
vt 0.68976 0.75368 0.00000
vt 0.64758 0.76157 0.00000
vt 0.61280 0.76163 0.00000
vt 0.65509 0.76209 0.00000
vt 0.68567 0.76069 0.00000
vt 0.71462 0.81254 0.00000
vt 0.75250 0.81254 0.00000
vt 0.70370 0.81938 0.00000
vt 0.65405 0.82035 0.00000
vt 0.65996 0.80963 0.00000
vt 0.70385 0.80465 0.00000
vt 0.67080 0.80437 0.00000
vt 0.65763 0.80351 0.00000
vt 0.73230 0.86847 0.00000
vt 0.75576 0.86847 0.00000
vt 0.75576 0.87979 0.00000
vt 0.73230 0.87979 0.00000
vt 0.70349 0.84180 0.00000
vt 0.65742 0.82923 0.00000
vt 0.67049 0.83009 0.00000
vt 0.70327 0.83036 0.00000
vt 0.65046 0.86397 0.00000
vt 0.61329 0.86397 0.00000
vt 0.61329 0.86021 0.00000
vt 0.65046 0.86021 0.00000
vt 0.75569 0.80726 0.00000
vt 0.72624 0.80656 0.00000
vt 0.72620 0.80277 0.00000
vt 0.75565 0.80347 0.00000
vt 0.62785 0.82923 0.00000
vt 0.62809 0.82543 0.00000
vt 0.65766 0.82543 0.00000
vt 0.65045 0.87275 0.00000
vt 0.61258 0.87275 0.00000
vt 0.61258 0.86899 0.00000
vt 0.65045 0.86899 0.00000
vt 0.71319 0.80710 0.00000
vt 0.71315 0.80331 0.00000
vt 0.67072 0.82629 0.00000
vt 0.73293 0.96720 0.00000
vt 0.72913 0.99161 0.00000
vt 0.72727 0.99155 0.00000
vt 0.73021 0.96850 0.00000
vt 0.70934 0.99018 0.00000
vt 0.71302 0.96576 0.00000
vt 0.71511 0.96741 0.00000
vt 0.71121 0.99039 0.00000
vt 0.72557 0.78185 0.00000
vt 0.74566 0.78185 0.00000
vt 0.74375 0.78312 0.00000
vt 0.72766 0.78312 0.00000
vt 0.72559 0.79255 0.00000
vt 0.72746 0.79267 0.00000
vt 0.74566 0.79255 0.00000
vt 0.74375 0.79267 0.00000
vt 0.68926 0.96396 0.00000
vt 0.69047 0.98843 0.00000
vt 0.68940 0.98880 0.00000
vt 0.68799 0.96429 0.00000
vt 0.70688 0.96488 0.00000
vt 0.70348 0.98552 0.00000
vt 0.70185 0.98615 0.00000
vt 0.70582 0.96323 0.00000
vt 0.73187 0.91084 0.00000
vt 0.72032 0.93003 0.00000
vt 0.71823 0.93113 0.00000
vt 0.73091 0.90974 0.00000
vt 0.72769 0.93699 0.00000
vt 0.71499 0.95985 0.00000
vt 0.71393 0.95925 0.00000
vt 0.72685 0.93640 0.00000
vt 0.70344 0.93544 0.00000
vt 0.70099 0.95146 0.00000
vt 0.69997 0.95089 0.00000
vt 0.70227 0.93586 0.00000
vt 0.72680 0.76920 0.00000
vt 0.74434 0.77365 0.00000
vt 0.74297 0.77436 0.00000
vt 0.72603 0.76966 0.00000
vt 0.72253 0.77427 0.00000
vt 0.70771 0.77427 0.00000
vt 0.70687 0.77302 0.00000
vt 0.72339 0.77302 0.00000
vt 0.73022 0.76263 0.00000
vt 0.74276 0.76578 0.00000
vt 0.74379 0.76706 0.00000
vt 0.72928 0.76364 0.00000
vt 0.72122 0.77134 0.00000
vt 0.70778 0.77138 0.00000
vt 0.70744 0.77022 0.00000
vt 0.72287 0.77039 0.00000
vt 0.72618 0.76713 0.00000
vt 0.70730 0.76700 0.00000
vt 0.70684 0.76638 0.00000
vt 0.72532 0.76614 0.00000
vt 0.66325 0.74492 0.00000
vt 0.69300 0.74861 0.00000
vt 0.70684 0.73472 0.00000
vt 0.73705 0.73307 0.00000
vt 0.65766 0.74454 0.00000
vt 0.74268 0.73307 0.00000
vt 0.61314 0.75228 0.00000
vt 0.78574 0.74380 0.00000
vt 0.69187 0.74277 0.00000
vt 0.65875 0.74277 0.00000
vt 0.65908 0.74105 0.00000
vt 0.68959 0.74130 0.00000
vt 0.78602 0.73112 0.00000
vt 0.75376 0.72602 0.00000
vt 0.75652 0.72492 0.00000
vt 0.78632 0.72938 0.00000
vt 0.65439 0.76335 0.00000
vt 0.64628 0.76280 0.00000
vt 0.75106 0.75202 0.00000
vt 0.74290 0.75202 0.00000
vt 0.60972 0.76280 0.00000
vt 0.78746 0.75451 0.00000
vt 0.69217 0.75369 0.00000
vt 0.70684 0.73984 0.00000
vt 0.68766 0.76167 0.00000
vt 0.71005 0.74809 0.00000
vt 0.78574 0.74593 0.00000
vt 0.61280 0.75440 0.00000
vt 0.69375 0.92494 0.00000
vt 0.71310 0.93391 0.00000
vt 0.71082 0.93539 0.00000
vt 0.69168 0.92646 0.00000
vt 0.69853 0.93594 0.00000
vt 0.69475 0.96066 0.00000
vt 0.69294 0.95847 0.00000
vt 0.69606 0.93718 0.00000
vt 0.63803 0.92223 0.00000
vt 0.66486 0.92417 0.00000
vt 0.71112 0.93685 0.00000
vt 0.70360 0.96116 0.00000
vt 0.70181 0.95945 0.00000
vt 0.70842 0.93854 0.00000
vt 0.64760 0.98585 0.00000
vt 0.64158 0.97000 0.00000
vt 0.64447 0.96977 0.00000
vt 0.65062 0.98555 0.00000
# 236 texture coords

g turret_main
f 1/1/1 2/2/2 3/3/3 
f 3/3/3 4/4/4 1/1/1 
f 4/4/4 3/3/3 5/5/5 
f 5/5/5 6/6/6 4/4/4 
f 6/6/6 5/5/5 7/7/7 
f 7/7/7 8/8/8 6/6/6 
f 2/2/2 9/9/9 10/10/10 
f 10/10/10 3/3/3 2/2/2 
f 11/11/11 12/12/12 13/13/12 
f 13/13/12 14/14/11 11/11/11 
f 5/5/5 15/15/13 16/16/14 
f 16/16/14 7/7/7 5/5/5 
f 9/9/9 17/17/15 18/18/16 
f 18/18/16 10/10/10 9/9/9 
f 19/19/17 20/20/17 21/21/17 
f 21/21/17 22/22/17 19/19/17 
f 15/15/13 23/23/18 24/24/19 
f 24/24/19 16/16/14 15/15/13 
f 25/25/20 26/26/21 27/27/22 
f 27/27/22 28/28/23 25/25/20 
f 29/29/24 30/30/25 31/31/26 
f 31/31/26 32/32/26 29/29/24 
f 33/33/27 34/34/28 35/35/29 
f 35/35/29 36/36/30 33/33/27 
f 28/28/23 27/27/22 37/37/31 
f 37/37/31 38/38/32 28/28/23 
f 27/27/22 36/36/30 39/39/33 
f 39/39/33 37/37/31 27/27/22 
f 36/36/30 35/35/29 40/40/34 
f 40/40/34 39/39/33 36/36/30 
f 41/41/35 42/42/36 43/43/37 
f 43/43/37 44/44/38 41/41/35 
f 42/42/36 45/45/39 46/46/40 
f 46/46/40 43/43/37 42/42/36 
f 45/45/39 47/47/41 48/48/42 
f 48/48/42 46/46/40 45/45/39 
f 1/49/43 4/50/44 49/51/45 
f 49/51/45 50/52/43 1/49/43 
f 4/50/44 6/53/46 51/54/47 
f 51/54/47 49/51/45 4/50/44 
f 6/53/46 8/55/48 52/56/48 
f 52/56/48 51/54/47 6/53/46 
f 50/52/49 49/51/50 26/57/21 
f 26/57/21 25/58/20 50/52/49 
f 53/59/51 54/60/51 30/61/25 
f 30/61/25 29/62/24 53/59/51 
f 51/54/52 52/56/53 34/63/28 
f 34/63/28 33/64/27 51/54/52 
f 55/65/54 56/66/55 57/67/56 
f 57/67/56 58/68/57 55/65/54 
f 56/66/55 59/69/58 60/70/59 
f 60/70/59 57/67/56 56/66/55 
f 59/69/58 61/71/60 62/72/61 
f 62/72/61 60/70/59 59/69/58 
f 58/68/57 57/67/56 63/73/62 
f 63/73/62 64/74/63 58/68/57 
f 57/67/56 60/70/59 65/75/64 
f 65/75/64 63/73/62 57/67/56 
f 60/70/59 62/72/61 66/76/65 
f 66/76/65 65/75/64 60/70/59 
f 24/77/66 23/78/67 67/79/68 
f 67/79/68 68/80/69 24/77/66 
f 23/78/67 18/81/70 69/82/71 
f 69/82/71 67/79/68 23/78/67 
f 18/81/70 17/83/72 70/84/73 
f 70/84/73 69/82/71 18/81/70 
f 68/80/74 67/79/75 71/85/76 
f 71/85/76 72/86/77 68/80/74 
f 67/79/75 69/82/78 73/87/79 
f 73/87/79 71/85/76 67/79/75 
f 69/82/78 70/84/80 74/88/81 
f 74/88/81 73/87/79 69/82/78 
f 75/89/82 76/90/83 77/91/84 
f 77/91/84 78/92/85 75/89/82 
f 76/90/83 79/93/86 80/94/87 
f 80/94/87 77/91/84 76/90/83 
f 79/93/86 81/95/88 82/96/89 
f 82/96/89 80/94/87 79/93/86 
f 78/92/85 77/91/84 83/97/90 
f 83/97/90 84/98/91 78/92/85 
f 77/91/84 80/94/87 85/99/92 
f 85/99/92 83/97/90 77/91/84 
f 80/94/87 82/96/89 86/100/93 
f 86/100/93 85/99/92 80/94/87 
f 13/13/12 12/12/12 87/101/94 
f 87/101/94 88/102/94 13/13/12 
f 10/103/95 18/104/95 20/105/95 
f 20/106/96 19/107/96 10/108/96 
f 18/109/70 23/110/67 21/111/97 
f 21/111/97 20/112/97 18/109/70 
f 23/113/98 15/114/99 22/115/100 
f 22/115/100 21/116/101 23/113/98 
f 5/117/102 3/118/102 11/119/102 
f 11/119/102 14/120/102 5/117/102 
f 3/121/103 10/122/104 12/123/105 
f 12/123/105 11/124/103 3/121/103 
f 15/114/99 5/125/106 14/126/106 
f 14/126/106 13/127/107 15/114/99 
f 19/128/108 22/129/108 88/130/108 
f 88/130/108 87/131/108 19/128/108 
f 10/122/104 19/132/109 87/133/109 
f 87/133/109 12/123/105 10/122/104 
f 22/115/100 15/114/99 13/127/107 
f 13/127/107 88/134/110 22/115/100 
f 89/135/111 90/136/112 91/137/113 
f 91/137/113 92/138/114 89/135/111 
f 93/139/115 94/140/116 95/141/117 
f 95/141/117 96/142/118 93/139/115 
f 94/140/116 89/135/111 92/138/114 
f 92/138/114 95/141/117 94/140/116 
f 97/143/119 98/144/120 99/145/121 
f 99/145/121 100/146/122 97/143/119 
f 90/147/112 97/143/119 100/146/122 
f 100/146/122 91/148/113 90/147/112 
f 98/144/120 93/149/115 96/150/118 
f 96/150/118 99/145/121 98/144/120 
f 27/151/123 26/152/124 90/153/125 
f 90/153/125 89/154/126 27/151/123 
f 31/155/127 30/156/128 96/157/129 
f 96/157/129 95/158/130 31/155/127 
f 32/32/131 31/31/131 95/141/131 
f 95/141/131 92/138/131 32/32/131 
f 29/159/132 32/160/133 92/161/134 
f 92/161/134 91/162/135 29/159/132 
f 33/163/136 36/164/137 94/165/138 
f 94/165/138 93/166/139 33/163/136 
f 36/167/137 27/168/123 89/169/126 
f 89/169/126 94/170/138 36/167/137 
f 49/51/140 51/54/141 98/144/142 
f 98/144/142 97/143/143 49/51/140 
f 26/171/124 49/172/140 97/173/143 
f 97/173/143 90/174/125 26/171/124 
f 54/175/144 53/176/144 100/177/144 
f 100/177/144 99/178/144 54/175/144 
f 30/179/128 54/180/145 99/181/146 
f 99/181/146 96/182/129 30/179/128 
f 53/183/147 29/184/132 91/185/135 
f 91/185/135 100/186/148 53/183/147 
f 51/187/141 33/188/136 93/189/139 
f 93/189/139 98/190/142 51/187/141 
f 2/191/149 1/192/150 81/95/151 
f 81/95/151 79/93/152 2/191/149 
f 8/193/153 7/194/154 56/66/155 
f 56/66/155 55/65/156 8/193/153 
f 9/195/157 2/191/149 79/93/152 
f 79/93/152 76/90/158 9/195/157 
f 7/194/154 16/196/159 59/69/160 
f 59/69/160 56/66/155 7/194/154 
f 17/197/161 9/195/157 76/90/158 
f 76/90/158 75/89/162 17/197/161 
f 16/196/159 24/198/163 61/71/164 
f 61/71/164 59/69/160 16/196/159 
f 25/199/165 28/200/166 85/201/92 
f 85/201/92 86/202/93 25/199/165 
f 35/203/167 34/204/168 64/205/63 
f 64/205/63 63/206/62 35/203/167 
f 28/207/166 38/208/169 83/97/90 
f 83/97/90 85/99/92 28/207/166 
f 40/209/170 35/210/167 63/73/62 
f 63/73/62 65/75/64 40/209/170 
f 38/208/169 74/211/171 84/98/91 
f 84/98/91 83/97/90 38/208/169 
f 72/212/172 40/209/170 65/75/64 
f 65/75/64 66/76/65 72/212/172 
f 1/192/173 50/213/174 82/96/89 
f 82/96/89 81/95/88 1/192/173 
f 52/214/175 8/193/176 55/65/54 
f 55/65/54 58/68/57 52/214/175 
f 50/213/174 25/215/165 86/100/93 
f 86/100/93 82/96/89 50/213/174 
f 34/216/168 52/214/175 58/68/57 
f 58/68/57 64/74/63 34/216/168 
f 24/198/177 68/217/178 62/72/61 
f 62/72/61 61/71/60 24/198/177 
f 68/217/178 72/212/172 66/76/65 
f 66/76/65 62/72/61 68/217/178 
f 70/218/179 17/197/180 75/89/82 
f 75/89/82 78/92/85 70/218/179 
f 74/211/171 70/218/179 78/92/85 
f 78/92/85 84/98/91 74/211/171 
f 38/38/181 37/37/182 42/42/183 
f 42/42/183 41/41/184 38/38/181 
f 37/37/182 39/39/185 45/45/186 
f 45/45/186 42/42/183 37/37/182 
f 39/39/185 40/40/187 47/47/188 
f 47/47/188 45/45/186 39/39/185 
f 73/219/189 74/220/190 44/221/191 
f 44/221/191 43/222/192 73/219/189 
f 74/223/190 38/224/181 41/225/184 
f 41/225/184 44/226/191 74/223/190 
f 71/227/193 73/228/189 43/43/192 
f 43/43/192 46/46/194 71/227/193 
f 40/229/187 72/230/195 48/231/196 
f 48/231/196 47/232/188 40/229/187 
f 72/233/195 71/234/193 46/235/194 
f 46/235/194 48/236/196 72/233/195 
# 196 faces

