# 3ds Max Wavefront OBJ Exporter v0.97b - (c)2007 guruware
# File Created: 14.04.2017 13:29:09

#
# object turren_small
#

v  -7.19641 7.63674 -3.31327
v  -7.19508 7.63674 -3.61362
v  -6.95581 7.63674 -3.28074
v  -7.67361 7.63674 -3.61362
v  -7.91288 7.63674 -3.31327
v  -7.19641 7.63674 -2.80615
v  -7.67361 7.63674 -2.50580
v  -7.91288 7.63674 -2.80615
v  -7.19508 7.63674 -2.50580
v  -6.95581 7.63674 -2.83868
v  -7.19508 8.22744 -3.61362
v  -6.95581 8.22744 -3.28074
v  -7.67361 8.22744 -3.61362
v  -7.91288 8.22744 -3.31327
v  -7.67361 8.22744 -2.50580
v  -7.91288 8.22744 -2.80615
v  -7.19508 8.22744 -2.50580
v  -6.95581 8.22744 -2.83868
v  -6.73954 8.54282 -4.10450
v  -6.42309 8.54282 -3.20287
v  -7.88504 8.54282 -4.10450
v  -8.44560 8.54282 -3.48228
v  -7.88504 8.54282 -2.01492
v  -8.44560 8.54282 -2.63713
v  -6.73954 8.54282 -2.01492
v  -6.42309 8.54282 -2.91655
v  -6.73954 9.36225 -4.10450
v  -6.42309 9.36225 -3.20287
v  -7.88504 9.36225 -4.10450
v  -8.44560 9.36225 -3.48228
v  -7.88504 9.36225 -2.01492
v  -8.44560 9.36225 -2.63713
v  -6.73954 9.36225 -2.01492
v  -6.42309 9.36225 -2.91655
v  -7.19641 9.51103 -3.48228
v  -7.19641 9.51103 -2.63713
# 36 vertices

vn 0.00000 -1.00000 -0.00000
vn -0.00000 -1.00000 -0.00000
vn 0.00000 -1.00000 0.00000
vn 0.81200 0.00000 -0.58366
vn 0.45626 0.00000 -0.88985
vn -0.43411 0.00000 -0.90086
vn -0.78215 0.00000 -0.62309
vn -0.78215 0.00000 0.62309
vn -0.43411 0.00000 0.90086
vn 0.45626 0.00000 0.88985
vn 0.81200 0.00000 0.58366
vn 0.45222 -0.86613 -0.21288
vn 0.26303 -0.88990 -0.37269
vn 0.52050 -0.83409 -0.18268
vn 0.15869 -0.89107 -0.42522
vn -0.20570 -0.86123 -0.46472
vn -0.21140 -0.86567 -0.45379
vn -0.40468 -0.84529 -0.34890
vn -0.40448 -0.85591 -0.32222
vn -0.40831 -0.84294 0.35035
vn -0.20702 -0.86450 0.45802
vn -0.39136 -0.85002 0.35258
vn -0.22802 -0.86087 0.45487
vn 0.25764 -0.90384 0.34160
vn 0.21492 -0.88231 0.41874
vn 0.46797 -0.85517 0.22292
vn 0.51286 -0.77529 0.36864
vn 0.94357 0.00000 -0.33117
vn 0.57828 0.00000 -0.81584
vn -0.40661 0.00000 -0.91360
vn -0.74296 0.00000 -0.66934
vn -0.74296 0.00000 0.66934
vn -0.40661 0.00000 0.91360
vn 0.57828 0.00000 0.81584
vn 0.94357 0.00000 0.33117
vn 0.05439 0.98725 -0.14963
vn 0.21457 0.97380 -0.07531
vn 0.11007 0.98192 -0.15398
vn -0.07988 0.98586 -0.14733
vn -0.11760 0.98739 -0.10595
vn 0.05439 0.98725 0.14963
vn -0.11760 0.98739 0.10595
vn -0.07988 0.98586 0.14733
vn 0.11007 0.98192 0.15398
vn 0.21457 0.97380 0.07531
vn 1.00000 0.00000 -0.00000
vn -1.00000 0.00000 -0.00000
vn 0.50943 -0.86051 -0.00000
vn -0.50943 -0.86051 -0.00000
vn 0.18893 0.98199 -0.00000
vn -0.11827 0.99298 -0.00000
# 51 vertex normals

vt 1.42208 0.09858 0.00000
vt 1.42211 0.10378 0.00000
vt 1.42640 0.09801 0.00000
vt 1.41351 0.10378 0.00000
vt 1.40921 0.09858 0.00000
vt 1.42208 0.08979 0.00000
vt 1.41351 0.08458 0.00000
vt 1.40921 0.08979 0.00000
vt 1.42211 0.08458 0.00000
vt 1.42640 0.09035 0.00000
vt 1.47443 0.08899 0.00000
vt 1.48022 0.10040 0.00000
vt 1.47443 0.10040 0.00000
vt 1.48022 0.08899 0.00000
vt 1.52639 0.07863 0.00000
vt 1.51780 0.09004 0.00000
vt 1.52639 0.09004 0.00000
vt 1.51780 0.07863 0.00000
vt 1.45071 0.08814 0.00000
vt 1.44549 0.09955 0.00000
vt 1.45071 0.09955 0.00000
vt 1.44549 0.08814 0.00000
vt 1.43667 0.08814 0.00000
vt 1.43145 0.09955 0.00000
vt 1.43667 0.09955 0.00000
vt 1.43145 0.08814 0.00000
vt 1.50687 0.07849 0.00000
vt 1.51547 0.08990 0.00000
vt 1.50687 0.08990 0.00000
vt 1.51547 0.07849 0.00000
vt 1.46096 0.08899 0.00000
vt 1.46675 0.10040 0.00000
vt 1.46096 0.10040 0.00000
vt 1.46675 0.08899 0.00000
vt 1.49327 0.13526 0.00000
vt 1.49716 0.14953 0.00000
vt 1.50284 0.13391 0.00000
vt 1.48898 0.14103 0.00000
vt 1.47659 0.14953 0.00000
vt 1.48038 0.14103 0.00000
vt 1.46652 0.13875 0.00000
vt 1.47609 0.13582 0.00000
vt 1.47609 0.12703 0.00000
vt 1.47659 0.11332 0.00000
vt 1.46652 0.12410 0.00000
vt 1.48038 0.12183 0.00000
vt 1.49716 0.11332 0.00000
vt 1.48898 0.12183 0.00000
vt 1.50284 0.12895 0.00000
vt 1.49327 0.12760 0.00000
vt 1.44924 0.15105 0.00000
vt 1.46846 0.17000 0.00000
vt 1.44924 0.17000 0.00000
vt 1.46846 0.15105 0.00000
vt 1.46149 0.15105 0.00000
vt 1.43626 0.17000 0.00000
vt 1.46149 0.17000 0.00000
vt 1.43626 0.15105 0.00000
vt 1.45520 0.17000 0.00000
vt 1.45520 0.15105 0.00000
vt 1.43718 0.15105 0.00000
vt 1.42391 0.17000 0.00000
vt 1.43718 0.17000 0.00000
vt 1.42391 0.15105 0.00000
vt 1.44313 0.17000 0.00000
vt 1.44313 0.15105 0.00000
vt 1.46184 0.21936 0.00000
vt 1.47573 0.21451 0.00000
vt 1.47004 0.23014 0.00000
vt 1.44947 0.23014 0.00000
vt 1.43940 0.21936 0.00000
vt 1.46184 0.20471 0.00000
vt 1.43940 0.20471 0.00000
vt 1.44947 0.19393 0.00000
vt 1.47004 0.19393 0.00000
vt 1.47573 0.20955 0.00000
vt 1.24526 0.84143 0.00000
vt 1.22981 0.84151 0.00000
vt 1.22972 0.83160 0.00000
vt 1.24516 0.83152 0.00000
vt 1.21272 0.84153 0.00000
vt 1.21263 0.83161 0.00000
# 82 texture coords

g turren_small
f 1/1/1 2/2/1 3/3/1 
f 1/1/1 4/4/1 2/2/1 
f 1/1/2 5/5/2 4/4/2 
f 6/6/3 7/7/3 8/8/3 
f 6/6/3 9/9/3 7/7/3 
f 6/6/3 10/10/3 9/9/3 
f 3/11/4 11/12/5 12/13/4 
f 3/11/4 2/14/5 11/12/5 
f 2/15/5 13/16/6 11/17/5 
f 2/15/5 4/18/6 13/16/6 
f 4/19/6 14/20/7 13/21/6 
f 4/19/6 5/22/7 14/20/7 
f 8/23/8 15/24/9 16/25/8 
f 8/23/8 7/26/9 15/24/9 
f 7/27/9 17/28/10 15/29/9 
f 7/27/9 9/30/10 17/28/10 
f 9/31/10 18/32/11 17/33/10 
f 9/31/10 10/34/11 18/32/11 
f 12/35/12 19/36/13 20/37/14 
f 12/35/12 11/38/15 19/36/13 
f 11/38/15 21/39/16 19/36/13 
f 11/38/15 13/40/17 21/39/16 
f 13/40/17 22/41/18 21/39/16 
f 13/40/17 14/42/19 22/41/18 
f 16/43/20 23/44/21 24/45/22 
f 16/43/20 15/46/23 23/44/21 
f 15/46/23 25/47/24 23/44/21 
f 15/46/23 17/48/25 25/47/24 
f 17/48/25 26/49/26 25/47/24 
f 17/48/25 18/50/27 26/49/26 
f 20/51/28 27/52/29 28/53/28 
f 20/51/28 19/54/29 27/52/29 
f 19/55/29 29/56/30 27/57/29 
f 19/55/29 21/58/30 29/56/30 
f 21/54/30 30/59/31 29/52/30 
f 21/54/30 22/60/31 30/59/31 
f 24/61/32 31/62/33 32/63/32 
f 24/61/32 23/64/33 31/62/33 
f 23/58/33 33/57/34 31/56/33 
f 23/58/33 25/55/34 33/57/34 
f 25/64/34 34/65/35 33/62/34 
f 25/64/34 26/66/35 34/65/35 
f 35/67/36 28/68/37 27/69/38 
f 35/67/36 27/69/38 29/70/39 
f 35/67/36 29/70/39 30/71/40 
f 36/72/41 32/73/42 31/74/43 
f 36/72/41 31/74/43 33/75/44 
f 36/72/41 33/75/44 34/76/45 
f 10/10/1 6/6/1 1/1/1 
f 1/1/1 3/3/1 10/10/1 
f 6/6/1 8/8/1 5/5/1 
f 5/5/1 1/1/1 6/6/1 
f 18/32/46 10/34/46 3/11/46 
f 3/11/46 12/13/46 18/32/46 
f 8/23/47 16/25/47 14/20/47 
f 14/20/47 5/22/47 8/23/47 
f 26/49/48 18/50/48 12/35/48 
f 12/35/48 20/37/48 26/49/48 
f 16/43/49 24/45/49 22/41/49 
f 22/41/49 14/42/49 16/43/49 
f 34/65/46 26/66/46 20/51/46 
f 20/51/46 28/53/46 34/65/46 
f 24/77/47 32/78/47 30/79/47 
f 30/79/47 22/80/47 24/77/47 
f 36/72/50 34/76/50 28/68/50 
f 28/68/50 35/67/50 36/72/50 
f 32/78/51 36/81/51 35/82/51 
f 35/82/51 30/79/51 32/78/51 
# 68 faces

