# 3ds Max Wavefront OBJ Exporter v0.97b - (c)2007 guruware
# File Created: 08.04.2017 22:46:03

#
# object Box003
#

v  -2.46252 0.70842 -6.53599
v  -2.46252 0.70782 -6.71015
v  -1.22005 0.70782 -6.71015
v  -1.22005 0.70842 -6.53599
v  1.09621 0.70782 -6.71015
v  1.09621 0.70842 -6.53599
v  2.33868 0.70782 -6.71015
v  2.33868 0.70842 -6.53599
v  -2.46252 3.67554 -7.18791
v  -1.22005 3.67554 -7.18791
v  -1.22005 3.64468 -7.33120
v  -2.46252 3.64468 -7.33120
v  1.09621 3.67554 -7.18791
v  1.09621 3.64468 -7.33120
v  2.33868 3.67554 -7.18791
v  2.33868 3.64468 -7.33120
v  -1.22005 1.09779 -6.62650
v  -2.46252 1.09779 -6.62650
v  1.09621 1.09779 -6.62650
v  2.33868 1.09779 -6.62650
v  -1.22005 1.71289 -6.75988
v  -2.46252 1.71289 -6.75988
v  1.09621 1.71289 -6.75988
v  2.33868 1.71289 -6.75988
v  2.33868 1.02668 -6.96658
v  2.33868 1.68203 -6.90316
v  1.09621 1.02668 -6.96658
v  -1.22005 1.02668 -6.96658
v  -2.46252 1.02668 -6.96658
v  1.09621 1.68203 -6.90316
v  -1.22005 1.68203 -6.90316
v  -2.46252 1.68203 -6.90316
# 32 vertices

vn 0.00000 -0.99999 0.00343
vn -0.00000 0.97759 -0.21054
vn 0.00000 0.97759 -0.21054
vn 0.00000 0.22642 0.97403
vn 0.00000 0.21191 0.97729
vn 0.00000 0.21308 0.97703
vn -0.00000 0.21308 0.97703
vn 1.00000 -0.00000 0.00000
vn 1.00000 0.00000 -0.00000
vn 0.00000 -0.62668 -0.77928
vn 0.00000 0.09632 -0.99535
vn 0.00000 -0.21308 -0.97703
vn -0.00000 -0.21308 -0.97703
vn -1.00000 -0.00000 0.00000
vn -1.00000 0.00000 -0.00000
# 15 vertex normals

vt 1.26005 -0.07454 0.00000
vt 1.24953 -0.07456 0.00000
vt 1.24959 -0.02838 0.00000
vt 1.26001 -0.02841 0.00000
vt 1.25992 0.90921 0.00000
vt 1.24938 0.90941 0.00000
vt 1.24939 0.99554 0.00000
vt 1.25991 0.99553 0.00000
vt 1.25993 -0.07801 0.00000
vt 1.24943 -0.07803 0.00000
vt 1.24948 -0.03142 0.00000
vt 1.25989 -0.03145 0.00000
vt 1.26058 -0.00718 0.00000
vt 1.26028 -0.05301 0.00000
vt 1.29085 -0.05301 0.00000
vt 1.29090 -0.00717 0.00000
vt 1.25983 0.99553 0.00000
vt 1.25971 0.90986 0.00000
vt 1.29090 0.90993 0.00000
vt 1.29095 0.99553 0.00000
vt 1.26035 -0.02827 0.00000
vt 1.26005 -0.07511 0.00000
vt 1.29057 -0.07511 0.00000
vt 1.29062 -0.02826 0.00000
vt 1.31965 -0.05300 0.00000
vt 1.31940 -0.00710 0.00000
vt 1.30495 0.90993 0.00000
vt 1.30494 0.99569 0.00000
vt 1.31925 -0.07505 0.00000
vt 1.31901 -0.02820 0.00000
vt 1.35664 -0.05300 0.00000
vt 1.35679 -0.00709 0.00000
vt 1.35712 0.91000 0.00000
vt 1.35700 0.99570 0.00000
vt 1.35665 -0.07506 0.00000
vt 1.35681 -0.02819 0.00000
vt 1.26056 1.96582 0.00000
vt 1.26024 1.96365 0.00000
vt 1.28859 1.96369 0.00000
vt 1.28748 1.96834 0.00000
vt 1.31695 1.96364 0.00000
vt 1.31727 1.96582 0.00000
vt 1.34530 1.96364 0.00000
vt 1.34563 1.96581 0.00000
# 44 texture coords

g Box003
f 1/1/1 2/2/1 3/3/1 
f 3/3/1 4/4/1 1/1/1 
f 4/5/1 3/6/1 5/7/1 
f 5/7/1 6/8/1 4/5/1 
f 6/9/1 5/10/1 7/11/1 
f 7/11/1 8/12/1 6/9/1 
f 9/12/2 10/9/2 11/10/2 
f 11/10/2 12/11/2 9/12/2 
f 10/8/3 13/5/3 14/6/3 
f 14/6/3 11/7/3 10/8/3 
f 13/4/3 15/1/3 16/2/3 
f 16/2/3 14/3/3 13/4/3 
f 1/13/4 4/14/4 17/15/4 
f 17/15/4 18/16/4 1/13/4 
f 4/17/4 6/18/4 19/19/4 
f 19/19/4 17/20/4 4/17/4 
f 6/21/4 8/22/4 20/23/4 
f 20/23/4 19/24/4 6/21/4 
f 18/16/5 17/15/5 21/25/5 
f 21/25/5 22/26/5 18/16/5 
f 17/20/5 19/19/5 23/27/5 
f 23/27/5 21/28/5 17/20/5 
f 19/24/5 20/23/5 24/29/5 
f 24/29/5 23/30/5 19/24/5 
f 22/26/6 21/25/6 10/31/6 
f 10/31/7 9/32/7 22/26/7 
f 21/28/6 23/27/6 13/33/6 
f 13/33/6 10/34/6 21/28/6 
f 23/30/6 24/29/6 15/35/6 
f 15/35/6 13/36/6 23/30/6 
f 8/37/8 7/38/8 25/39/8 
f 25/39/8 20/40/8 8/37/8 
f 20/40/9 25/39/9 26/41/9 
f 26/41/9 24/42/9 20/40/9 
f 24/42/9 26/41/9 16/43/9 
f 16/43/9 15/44/9 24/42/9 
f 7/13/10 5/14/10 27/15/10 
f 27/15/10 25/16/10 7/13/10 
f 5/17/10 3/18/10 28/19/10 
f 28/19/10 27/20/10 5/17/10 
f 3/21/10 2/22/10 29/23/10 
f 29/23/10 28/24/10 3/21/10 
f 25/16/11 27/15/11 30/25/11 
f 30/25/11 26/26/11 25/16/11 
f 27/20/11 28/19/11 31/27/11 
f 31/27/11 30/28/11 27/20/11 
f 28/24/11 29/23/11 32/29/11 
f 32/29/11 31/30/11 28/24/11 
f 26/26/12 30/25/12 14/31/12 
f 14/31/13 16/32/13 26/26/13 
f 30/28/12 31/27/12 11/33/12 
f 11/33/12 14/34/12 30/28/12 
f 31/30/12 32/29/12 12/35/12 
f 12/35/12 11/36/12 31/30/12 
f 2/37/14 1/38/14 18/39/14 
f 18/39/14 29/40/14 2/37/14 
f 29/40/15 18/39/15 22/41/15 
f 22/41/15 32/42/15 29/40/15 
f 32/42/15 22/41/15 9/43/15 
f 9/43/15 12/44/15 32/42/15 
# 60 faces

